<?xml version="1.0" standalone="no"?><!DOCTYPE svg PUBLIC "-//W3C//DTD SVG 1.1//EN" "http://www.w3.org/Graphics/SVG/1.1/DTD/svg11.dtd"><svg class="icon" width="200px" height="200.00px" viewBox="0 0 1024 1024" version="1.1" xmlns="http://www.w3.org/2000/svg"><path fill="#1296db" d="M512 896q163.008-4 271.488-112.512T896 512q-4-163.008-112.512-271.488T512 128q-163.008 4-271.488 112.512T128 512q4 163.008 112.512 271.488T512 896z m0 64q-190.016-4.992-316.512-131.488T64 512q4.992-190.016 131.488-316.512T512 64q190.016 4.992 316.512 131.488T960 512q-4.992 190.016-131.488 316.512T512 960z m0-864q14.016 0 23.008 8.992T544 128v192q0 14.016-8.992 23.008T512 352t-23.008-8.992T480 320V128q0-14.016 8.992-23.008T512 96z m0 576q14.016 0 23.008 8.992T544 704v192q0 14.016-8.992 23.008T512 928t-23.008-8.992T480 896v-192q0-14.016 8.992-23.008T512 672zM96 512q0-14.016 8.992-23.008T128 480h192q14.016 0 23.008 8.992T352 512t-8.992 23.008T320 544H128q-14.016 0-23.008-8.992T96 512z m576 0q0-14.016 8.992-23.008T704 480h192q14.016 0 23.008 8.992T928 512t-8.992 23.008T896 544h-192q-14.016 0-23.008-8.992T672 512z" /></svg>