<?xml version="1.0" standalone="no"?><!DOCTYPE svg PUBLIC "-//W3C//DTD SVG 1.1//EN" "http://www.w3.org/Graphics/SVG/1.1/DTD/svg11.dtd"><svg class="icon" width="200px" height="200.00px" viewBox="0 0 1024 1024" version="1.1" xmlns="http://www.w3.org/2000/svg"><path fill="#1296db" d="M512 832q136-3.008 226.496-93.504T832 512q-3.008-136-93.504-226.496T512 192q-136 3.008-226.496 93.504T192 512q3.008 136 93.504 226.496T512 832z m0 64q-163.008-4-271.488-112.512T128 512q4-163.008 112.512-271.488T512 128q163.008 4 271.488 112.512T896 512q-4 163.008-112.512 271.488T512 896z m-220-71.008l56 32-48 83.008q-10.016 15.008-28 15.008t-27.008-15.488-0.992-31.488z m440 0l-56 32 48 83.008q10.016 15.008 28 15.008t27.008-15.488 0.992-31.488zM512 512h160q14.016 0 23.008 8.992T704 544t-8.992 23.008T672 576h-192q-14.016 0-23.008-8.992T448 544v-224q0-14.016 8.992-23.008T480 288t23.008 8.992T512 320v192zM90.016 312q-31.008-48.992-25.504-104t47.008-96.512 96.512-47.008 104 25.504L265.024 136.992q-28-12.992-57.504-8t-51.008 27.008-27.008 51.488 7.488 57.504L90.976 312h-0.992z m836 0q31.008-48.992 25.504-104t-46.496-96.512-96.512-47.008T704 89.984l47.008 47.008q28-12.992 57.504-8t51.488 27.008 27.008 51.488-8 57.504z" /></svg>