<?xml version="1.0" standalone="no"?><!DOCTYPE svg PUBLIC "-//W3C//DTD SVG 1.1//EN" "http://www.w3.org/Graphics/SVG/1.1/DTD/svg11.dtd"><svg class="icon" width="200px" height="200.00px" viewBox="0 0 1024 1024" version="1.1" xmlns="http://www.w3.org/2000/svg"><path fill="#1296db" d="M600 204q32-8 64-4.992h3.008q23.008 0.992 40.992 4.512t38.016 12.512q56.992 23.008 112 88.992 72 94.016 62.496 248t-97.504 274.016l-31.008 40q-14.016 18.016-30.016 35.008-23.008 24.992-49.504 37.504t-60.512 12.512q-23.008 0.992-42.496-3.488t-41.504-14.496l-7.008-3.008q-15.008-7.008-24.992-9.504t-22.496-2.496-23.488 2.496-27.008 10.496l-6.016 2.016q-20.992 8.992-38.496 14.016t-38.496 6.016q-54.016 2.016-94.016-30.016t-86.016-103.008q-74.016-110.016-92.992-244.512t38.016-241.504q35.008-62.016 92.992-97.504t127.008-37.504q24-0.992 47.488 4.992t52.512 18.016l28 11.008 8.992 3.008q24.992-30.016 35.008-50.016 20-40 40.992-100.992 4-12.992 15.488-18.496t24.512-1.504 18.496 15.488 1.504 24.512q-18.016 56.992-38.016 98.016z m-52 78.016q-20.992 27.008-52 59.008-8.992 8.992-22.016 9.504t-22.496-8.512-10.016-22.016 8.512-23.008l12-12.992q-20.992-8.992-45.504-17.504t-50.496-8.512q-52.992 0.992-98.016 28.992t-72.992 76q-52 102.016-28.512 222.496t80.512 203.488q26.016 40.992 58.016 73.504t72.992 33.504q36.992-4 64-18.496t72-16.512q44.992 2.016 71.488 16.992t65.504 16.992q40-0.992 65.504-28t61.504-76q80-110.016 85.504-243.488t-49.504-205.504q-55.008-62.016-93.504-74.496t-58.496-10.496q-31.008-3.008-60 6.016t-54.016 19.008z" /></svg>