<?xml version="1.0" standalone="no"?><!DOCTYPE svg PUBLIC "-//W3C//DTD SVG 1.1//EN" "http://www.w3.org/Graphics/SVG/1.1/DTD/svg11.dtd"><svg class="icon" width="200px" height="200.00px" viewBox="0 0 1024 1024" version="1.1" xmlns="http://www.w3.org/2000/svg"><path fill="#1296db" d="M832 320V192h-128v320q-2.016 82.016-56 136T512 704q-82.016-2.016-136-56T320 512V192H192v128h128v64H192v128q3.008 136 93.504 226.496T512 832q136-3.008 226.496-93.504T832 512v-128h-128v-64h128z m-192 192V128h256v384q-4 163.008-112.512 271.488T512 896q-163.008-4-271.488-112.512T128 512V128h256v384q0.992 54.016 37.504 90.496T512 640q54.016-0.992 90.496-37.504T640 512z" /></svg>