<?xml version="1.0" standalone="no"?><!DOCTYPE svg PUBLIC "-//W3C//DTD SVG 1.1//EN" "http://www.w3.org/Graphics/SVG/1.1/DTD/svg11.dtd"><svg class="icon" width="200px" height="200.00px" viewBox="0 0 1024 1024" version="1.1" xmlns="http://www.w3.org/2000/svg"><path fill="#1296db" d="M224 480h640q14.016 0 23.008 8.992T896 512t-8.992 23.008T864 544H224q-14.016 0-23.008-8.992T192 512t8.992-23.008T224 480z m12.992 32l266.016 264.992Q512 787.008 512 800t-9.504 22.496T480 832t-23.008-8.992l-288-288Q160 524.992 160 512t8.992-23.008l288-288Q467.008 192 480 192t22.496 9.504T512 224t-8.992 23.008z" /></svg>