<?xml version="1.0" standalone="no"?><!DOCTYPE svg PUBLIC "-//W3C//DTD SVG 1.1//EN" "http://www.w3.org/Graphics/SVG/1.1/DTD/svg11.dtd"><svg class="icon" width="200px" height="200.00px" viewBox="0 0 1024 1024" version="1.1" xmlns="http://www.w3.org/2000/svg"><path fill="#1296db" d="M512 896q163.008-4 271.488-112.512T896 512q-4-163.008-112.512-271.488T512 128q-163.008 4-271.488 112.512T128 512q4 163.008 112.512 271.488T512 896z m0 64q-190.016-4.992-316.512-131.488T64 512q4.992-190.016 131.488-316.512T512 64q190.016 4.992 316.512 131.488T960 512q-4.992 190.016-131.488 316.512T512 960z m0-256q82.016-2.016 136-56T704 512q-2.016-82.016-56-136T512 320q-82.016 2.016-136 56T320 512q2.016 82.016 56 136T512 704z m0 64q-108.992-3.008-180.992-75.008T256 512q3.008-108.992 75.008-180.992T512 256q108.992 3.008 180.992 75.008T768 512q-3.008 108.992-75.008 180.992T512 768z m111.008-412.992l160.992-160L828.992 240l-160 160.992q-19.008-27.008-46.016-46.016z m45.984 268l160 160.992-44.992 44.992-160.992-160q27.008-19.008 46.016-46.016z m-268 45.984l-160.992 160L195.008 784l160-160.992q19.008 27.008 46.016 46.016z m-45.984-268l-160-160.992L240 195.008l160.992 160q-27.008 19.008-46.016 46.016z" /></svg>