<?xml version="1.0" standalone="no"?><!DOCTYPE svg PUBLIC "-//W3C//DTD SVG 1.1//EN" "http://www.w3.org/Graphics/SVG/1.1/DTD/svg11.dtd"><svg class="icon" width="200px" height="200.00px" viewBox="0 0 1024 1024" version="1.1" xmlns="http://www.w3.org/2000/svg"><path fill="#1296db" d="M896 324q0-31.008-2.016-44.992T885.984 256q-7.008-15.008-22.016-22.016-8.992-6.016-23.008-8t-44.992-2.016H227.968q-31.008 0-44.992 2.016t-23.008 8q-15.008 7.008-22.016 22.016-6.016 8.992-8 23.008t-2.016 44.992v376q0 31.008 2.016 44.992t8 23.008q7.008 15.008 22.016 22.016 8.992 6.016 23.008 8t44.992 2.016h568q31.008 0 44.992-2.016t23.008-8q15.008-7.008 22.016-22.016 6.016-8.992 8-23.008T896 700v-376z m64 0v376q0 42.016-4.512 63.008t-12.512 35.008q-16.992 32-48 48.992-15.008 8-36 12.512t-63.008 4.512H227.968q-42.016 0-63.008-4.512t-36-12.512q-31.008-16.992-48-48-8-15.008-12.512-36t-4.512-63.008v-376q0-42.016 4.512-63.008t12.512-36q16.992-31.008 48-48 15.008-8 36-12.512t63.008-4.512h568q42.016 0 63.008 4.512t35.008 12.512q32 16.992 48.992 48 8 15.008 12.512 36T960 324zM64 320h896v64H64v-64z m0 128h896v64H64v-64z m128 192h256v64H192v-64z" /></svg>