<?xml version="1.0" standalone="no"?><!DOCTYPE svg PUBLIC "-//W3C//DTD SVG 1.1//EN" "http://www.w3.org/Graphics/SVG/1.1/DTD/svg11.dtd"><svg class="icon" width="200px" height="200.00px" viewBox="0 0 1024 1024" version="1.1" xmlns="http://www.w3.org/2000/svg"><path fill="#1296db" d="M195.008 828.992Q64 690.976 64 512t131.008-316.992Q333.024 64 512 64t316.992 131.008Q960 333.024 960 512t-131.008 316.992Q690.976 960 512 960t-316.992-131.008zM240 784Q359.008 896 512 896t272-112Q896 664.992 896 512t-112-272Q664.992 128 512 128T240 240Q128 359.008 128 512t112 272z m256.992-687.008q35.008 7.008 64.992 14.016-43.008 78.016-32 162.016t72.992 148q64 62.016 148 72.992t162.016-32q7.008 30.016 14.016 64.992-95.008 44.992-194.496 28.992t-175.488-88.992q-72.992-76-88.992-175.488t28.992-194.496zM108 492q94.016-40.992 190.016-23.488t168.992 88.512q71.008 72.992 88.512 168.992t-23.488 190.016q-34.016-6.016-66.016-12 40-76.992 27.488-158.496t-72.512-142.496q-60.992-60-142.496-72.512t-158.496 27.488z" /></svg>