<?xml version="1.0" standalone="no"?><!DOCTYPE svg PUBLIC "-//W3C//DTD SVG 1.1//EN" "http://www.w3.org/Graphics/SVG/1.1/DTD/svg11.dtd"><svg class="icon" width="200px" height="200.00px" viewBox="0 0 1024 1024" version="1.1" xmlns="http://www.w3.org/2000/svg"><path fill="#1296db" d="M779.008 788q51.008-48.992 80.512-112t35.488-132.992q-56-34.016-119.488-37.504t-122.496 23.488q88 116.992 126.016 259.008zM724 832q-16.992-72.992-48.512-140.992t-76.512-128q-75.008 64-90.496 155.488t34.496 176.512q48-4 94.016-20T724 832z m-253.984 62.016q-44.992-102.016-20.992-205.504t108.992-174.496q-23.008-26.016-48-48.992-72 84.992-175.008 108.992t-204.992-20q8 64.992 36 124t74.496 105.504 104.992 74.496 124.512 36zM128.992 480.992q84.992 48.992 176.512 33.504t154.496-89.504q-60-46.016-127.488-76.992T192 300q-27.008 40.992-43.008 86.496t-20 94.496z m107.008-236q140.992 38.016 259.008 124.992 26.016-59.008 22.496-122.016T480.992 128.96q-70.016 6.016-132.992 35.488t-112 80.512z m318.016-114.976q30.016 68 28 141.504t-36.992 140.512q36 31.008 67.008 66.016 66.016-35.008 139.488-36.992t142.496 28.992q-8-66.016-36-124.512t-74.496-104.992-104.992-74.496-124.512-36z m274.976 698.976Q690.976 960 512 960t-316.992-131.008Q64 690.976 64 512t131.008-316.992Q333.024 64 512 64t316.992 131.008Q960 333.024 960 512t-131.008 316.992z" /></svg>