<?xml version="1.0" standalone="no"?><!DOCTYPE svg PUBLIC "-//W3C//DTD SVG 1.1//EN" "http://www.w3.org/Graphics/SVG/1.1/DTD/svg11.dtd"><svg class="icon" width="200px" height="200.00px" viewBox="0 0 1024 1024" version="1.1" xmlns="http://www.w3.org/2000/svg"><path fill="#1296db" d="M256 832q54.016-0.992 90.496-37.504T384 704q-0.992-54.016-37.504-90.496T256 576q-54.016 0.992-90.496 37.504T128 704q0.992 54.016 37.504 90.496T256 832z m0 64q-82.016-2.016-136-56T64 704q2.016-82.016 56-136T256 512q82.016 2.016 136 56T448 704q-2.016 82.016-56 136T256 896z m32-224h320q32 0 32 32t-32 32H288q-32 0-32-32t32-32z m480 160q54.016-0.992 90.496-37.504T896 704q-0.992-54.016-37.504-90.496T768 576q-54.016 0.992-90.496 37.504T640 704q0.992 54.016 37.504 90.496T768 832z m0 64q-82.016-2.016-136-56T576 704q2.016-82.016 56-136T768 512q82.016 2.016 136 56T960 704q-2.016 82.016-56 136T768 896zM480 192q-14.016 0-23.008-8.992T448 160t8.992-23.008T480 128h160q11.008 0 19.488 6.496t11.488 17.504l96 384q3.008 12.992-4 24t-19.488 14.016-23.488-3.008-15.008-19.008L614.976 192h-135.008zM96 384q-14.016 0-23.008-8.992T64 352t8.992-23.008T96 320h128q11.008 0 19.008 6.016t11.008 16l64 192q6.016 18.016-6.016 32t-30.496 10.016-23.488-22.016L201.024 384H96.032z m276.992 216l-42.016-48 320-288 42.016 48z" /></svg>