<?xml version="1.0" standalone="no"?><!DOCTYPE svg PUBLIC "-//W3C//DTD SVG 1.1//EN" "http://www.w3.org/Graphics/SVG/1.1/DTD/svg11.dtd"><svg class="icon" width="200px" height="200.00px" viewBox="0 0 1024 1024" version="1.1" xmlns="http://www.w3.org/2000/svg"><path fill="#1296db" d="M316.992 128L128 344V896h768V344L707.008 128H316.992z m-13.984-64h418.016q15.008 0 24.992 11.008l206.016 236q8 8.992 8 20.992V928q0 14.016-8.992 23.008t-23.008 8.992h-832q-14.016 0-23.008-8.992T64.032 928V332q0-12 8-20.992l206.016-236Q288.064 64 303.04 64zM64 320h896v64H64v-64z m384 8V640h128v-312L525.984 128h-28zM448 64h128l64 256v352q0 14.016-8.992 23.008T608 704h-192q-14.016 0-23.008-8.992T384 672V320z" /></svg>