<?xml version="1.0" standalone="no"?><!DOCTYPE svg PUBLIC "-//W3C//DTD SVG 1.1//EN" "http://www.w3.org/Graphics/SVG/1.1/DTD/svg11.dtd"><svg class="icon" width="200px" height="200.00px" viewBox="0 0 1024 1024" version="1.1" xmlns="http://www.w3.org/2000/svg"><path fill="#1296db" d="M896 448H128v192q0.992 27.008 19.008 44.992T192 704h192v192h256v-192h192q27.008-0.992 44.992-19.008T896 640v-192zM124.992 384q0-71.008 16-128Q163.008 175.008 224 96h416.992l-15.008 70.016L736 96h211.008Q910.016 160 896 256q-8.992 64-6.016 128H960v256q-0.992 54.016-37.504 90.496T832 768h-128v160q0 14.016-8.992 23.008T672 960H352q-14.016 0-23.008-8.992T320 928v-160H192q-54.016-0.992-90.496-37.504T64 640v-256h60.992z m64 0h636.992q-3.008-68.992 7.008-136.992 6.016-46.016 18.016-87.008h-96l-220.992 140.992L562.016 160H257.024Q218.016 216.992 203.008 272.992q-14.016 48-14.016 111.008z" /></svg>