<?xml version="1.0" standalone="no"?><!DOCTYPE svg PUBLIC "-//W3C//DTD SVG 1.1//EN" "http://www.w3.org/Graphics/SVG/1.1/DTD/svg11.dtd"><svg class="icon" width="200px" height="200.00px" viewBox="0 0 1024 1024" version="1.1" xmlns="http://www.w3.org/2000/svg"><path fill="#1296db" d="M160 512q-14.016 0-23.008 8.992T128 544v64q0 12.992 8.512 22.016t21.504 10.016h706.016q14.016 0 23.008-8.992t8.992-23.008v-64q0-14.016-8.992-23.008t-23.008-8.992h-704z m736-59.008q28.992 11.008 46.496 35.488T960 543.968v64q0 27.008-14.016 50.016t-38.016 35.008l-52.992 140.992q-11.008 28-35.008 44.512T765.952 896H257.952q-30.016-0.992-54.016-17.504t-35.008-44.512l-52.992-140.992q-24-12-38.016-35.008t-14.016-50.016v-64q0-31.008 17.504-55.488t46.496-35.488V448q4.992-163.008 114.496-270.496t272.512-110.496q163.008 4.992 270.496 114.016t110.496 272zM832 448q-3.008-136-93.504-226.496T512 128q-136 3.008-226.496 93.504T192 448h640z m-320 256H188l40.992 107.008q3.008 10.016 11.008 15.488t18.016 5.504h508q10.016 0 18.016-5.504t11.008-15.488L836.032 704H512.032z" /></svg>