<?xml version="1.0" standalone="no"?><!DOCTYPE svg PUBLIC "-//W3C//DTD SVG 1.1//EN" "http://www.w3.org/Graphics/SVG/1.1/DTD/svg11.dtd"><svg class="icon" width="200px" height="200.00px" viewBox="0 0 1024 1024" version="1.1" xmlns="http://www.w3.org/2000/svg"><path fill="#1296db" d="M812.992 180.992q26.016 0 43.008 16.992t16.992 43.008v482.016q0 24.992-17.504 42.496t-42.496 17.504H210.976q-24.992 0-42.496-17.504t-17.504-42.496V240.992q0-26.016 16.992-43.008t43.008-16.992h602.016z m0-60.992H210.976q-24 0.992-46.016 10.016t-39.008 26.016-26.496 39.008-9.504 46.016v482.016q0 24 9.504 46.016t26.496 39.008 39.008 26.016 46.016 8.992h602.016q24 0 46.016-8.992t39.008-26.016 26.496-39.008 9.504-46.016V241.056q0-24-9.504-46.016t-26.496-39.008-39.008-26.016-46.016-10.016z m-120 180.992q-12.992 0-21.504 8.992t-8.512 20.992v300.992q0 12.992 8.512 21.504t21.504 8.512 21.504-8.512 8.512-21.504v-300.992q0-12.992-8.512-21.504t-21.504-8.512z m-361.984 0q-12 0-20.992 8.992t-8.992 20.992v300.992q0 12.992 8.512 21.504t21.504 8.512 21.504-8.512 8.512-21.504v-300.992q0-12-8.512-20.992t-21.504-8.992zM512 360.992q-12.992 0.992-21.504 9.504t-8.512 21.504v30.016q0 12 8.512 20.512t21.504 8.512 21.504-8.512 8.512-20.512v-30.016q0-12.992-8.992-21.504t-20.992-9.504zM512 512q-12.992 0-21.504 8.512t-8.512 21.504v30.016q0 12.992 8.512 21.504t21.504 8.512 21.504-8.512 8.512-21.504v-30.016q0-12-8.992-20.992t-20.992-8.992z" /></svg>