<?xml version="1.0" standalone="no"?><!DOCTYPE svg PUBLIC "-//W3C//DTD SVG 1.1//EN" "http://www.w3.org/Graphics/SVG/1.1/DTD/svg11.dtd"><svg class="icon" width="200px" height="200.00px" viewBox="0 0 1024 1024" version="1.1" xmlns="http://www.w3.org/2000/svg"><path fill="#1296db" d="M896 256H128v576h768V256z m-199.008-64l-32-64H360l-32 64h368.992zM96 192h160l46.016-92.992q8.992-16 24-25.504T360.032 64h304.992q18.016 0 32.992 9.504t24 25.504L768.032 192h160q14.016 0 23.008 8.992t8.992 23.008v640q0 14.016-8.992 23.008t-23.008 8.992h-832q-14.016 0-23.008-8.992T64.032 864V224q0-14.016 8.992-23.008T96.032 192z m416 512q68-2.016 112.992-47.008T672 544q-2.016-68-47.008-112.992T512 384q-68 2.016-112.992 47.008T352 544q2.016 68 47.008 112.992T512 704z m0 64q-95.008-2.016-158.496-65.504T288 544q2.016-95.008 65.504-158.496T512 320q95.008 2.016 158.496 65.504T736 544q-2.016 95.008-65.504 158.496T512 768z" /></svg>