<?xml version="1.0" standalone="no"?><!DOCTYPE svg PUBLIC "-//W3C//DTD SVG 1.1//EN" "http://www.w3.org/Graphics/SVG/1.1/DTD/svg11.dtd"><svg class="icon" width="200px" height="200.00px" viewBox="0 0 1024 1024" version="1.1" xmlns="http://www.w3.org/2000/svg"><path fill="#1296db" d="M160 224q-27.008 0.992-44.992 19.008T96 288v512q0.992 27.008 19.008 44.992T160 864h704q27.008-0.992 44.992-19.008T928 800V288q-0.992-27.008-19.008-44.992T864 224h-116l-46.016-92.992q-8-16-23.488-25.504T644.992 96h-266.016q-18.016 0-32.992 9.504t-24 25.504L275.968 224H159.968z m352 435.008q31.008 0 57.504-15.008t42.016-42.496 15.488-57.504-15.488-57.504-42.016-42.496T512 428.992q-48.992 0.992-81.504 33.504T396.992 544q0.992 48.992 33.504 81.504T512 659.008zM512 800q-108.992-3.008-180.992-75.008T256 544q3.008-108.992 75.008-180.992T512 288q108.992 3.008 180.992 75.008T768 544q-3.008 108.992-75.008 180.992T512 800z" /></svg>