<?xml version="1.0" standalone="no"?><!DOCTYPE svg PUBLIC "-//W3C//DTD SVG 1.1//EN" "http://www.w3.org/Graphics/SVG/1.1/DTD/svg11.dtd"><svg class="icon" width="200px" height="200.00px" viewBox="0 0 1024 1024" version="1.1" xmlns="http://www.w3.org/2000/svg"><path fill="#1296db" d="M160 827.008L274.016 736h526.016q27.008-0.992 44.992-19.008T864.032 672V256q-0.992-27.008-19.008-44.992T800.032 192h-576q-27.008 0.992-44.992 19.008T160.032 256v571.008zM296 800l-148 118.016q-16 12-33.504 3.488T96 892.992V256q0.992-54.016 37.504-90.496T224 128h576q54.016 0.992 90.496 37.504T928 256v416q-0.992 54.016-37.504 90.496T800 800H296zM352 512h320q32 0 32 32t-32 32H352q-32 0-32-32t32-32z m0-192h320q32 0 32 32t-32 32H352q-32 0-32-32t32-32z" /></svg>