<?xml version="1.0" standalone="no"?><!DOCTYPE svg PUBLIC "-//W3C//DTD SVG 1.1//EN" "http://www.w3.org/Graphics/SVG/1.1/DTD/svg11.dtd"><svg class="icon" width="200px" height="200.00px" viewBox="0 0 1024 1024" version="1.1" xmlns="http://www.w3.org/2000/svg"><path fill="#1296db" d="M175.008 856l135.008-44.992 24 11.008q82.016 42.016 178.016 42.016 163.008-4.992 271.488-106.496t112.512-245.504q-4-144-112.512-245.504t-271.488-106.496q-163.008 4.992-271.488 106.496t-112.512 245.504q0 52 18.016 103.008t52.992 96l22.016 28.992z m-46.016 82.016q-19.008 6.016-32.512-8.512T89.984 896l58.016-146.016q-40-52.992-62.016-113.504t-22.016-124.512q4-164.992 128-287.488t320-128.512q196 6.016 320 128.512t128 287.488q-4 164.992-128 287.488t-320 128.512q-108.992 0-207.008-48zM512 563.008q-14.016 0-25.504-6.496t-18.496-19.008-7.008-25.504 7.008-25.504 18.496-19.008 25.504-6.496q22.016 0 36.512 14.496T563.008 512t-14.496 36.512-36.512 14.496z m192 0q-14.016 0-25.504-6.496t-18.496-19.008-7.008-25.504 7.008-25.504 18.496-19.008 25.504-6.496q22.016 0 36.512 14.496T755.008 512t-14.496 36.512-36.512 14.496z m-384 0q-14.016 0-25.504-6.496t-18.496-19.008T268.992 512t7.008-25.504 18.496-19.008 25.504-6.496q22.016 0 36.512 14.496T371.008 512t-14.496 36.512-36.512 14.496z" /></svg>