<?xml version="1.0" standalone="no"?><!DOCTYPE svg PUBLIC "-//W3C//DTD SVG 1.1//EN" "http://www.w3.org/Graphics/SVG/1.1/DTD/svg11.dtd"><svg class="icon" width="200px" height="200.00px" viewBox="0 0 1024 1024" version="1.1" xmlns="http://www.w3.org/2000/svg"><path fill="#1296db" d="M260.992 450.016q20.992-104.992 63.008-178.016Q360 211.008 436.992 128H320q-14.016 0-23.008-8.992T288 96t8.992-23.008T320 64h384q14.016 0 23.008 8.992T736 96t-8.992 23.008T704 128h-148.992q22.016 59.008 79.008 142.016 36 51.008 63.008 79.488T741.024 384q88 4 148.992 61.504t68.992 145.504q4.992 88.992-46.496 155.008t-138.496 83.008q-87.008 12.992-158.016-32t-96-128.992q-22.016-86.016 16-160.992t120-108q-34.016-35.008-74.016-92.992-59.008-84-84.992-148.992-83.008 87.008-117.504 147.008t-53.504 147.008q88.992 16.992 140.512 84.992t44.512 158.016q-11.008 88.992-74.496 145.504t-153.504 56.512Q192 892.096 131.52 832.608t-67.488-149.504q-2.016-90.016 52.992-155.488t144-77.504zM288 832q68-2.016 112.992-47.008T448 672q-2.016-68-47.008-112.992T288 512q-68 2.016-112.992 47.008T128 672q2.016 68 47.008 112.992T288 832z m448-64q68-2.016 112.992-47.008T896 608q-2.016-68-47.008-112.992T736 448q-68 2.016-112.992 47.008T576 608q2.016 68 47.008 112.992T736 768z" /></svg>