<?xml version="1.0" standalone="no"?><!DOCTYPE svg PUBLIC "-//W3C//DTD SVG 1.1//EN" "http://www.w3.org/Graphics/SVG/1.1/DTD/svg11.dtd"><svg class="icon" width="200px" height="200.00px" viewBox="0 0 1024 1024" version="1.1" xmlns="http://www.w3.org/2000/svg"><path fill="#1296db" d="M350.016 716.992l128.992-128.992q-15.008-7.008-26.496-19.008t-19.488-26.016l-128 128.992 2.016 8.992 2.016 32 32 2.016z m56.992 33.024q30.016 30.016 36.512 70.016t-12.512 77.504-54.496 56.512-76.992 12.992-71.008-33.504-37.504-68.512l-2.016-32-32-2.016q-40.992-8.992-68.512-38.016t-33.504-70.496 12.992-76.992 56.512-54.496 76.992-12.512 69.504 35.488l146.016-144.992Q416 390.976 456 300.48t110.016-161.504q82.016-78.016 166.496-72t150.496 72 72 150.496-72.992 166.496q-70.016 68.992-160.512 109.504t-169.504 39.488z m91.008-226.016q44 35.008 148.512 1.504t190.496-114.496q56.992-60 52.992-119.008t-52.512-107.488-108-52.992-118.496 52.512Q530.016 271.04 496 375.52t2.016 148.512z m-253.024 184.992q0.992-20-8.992-36.992t-28.512-25.504-38.016-4.992-33.504 18.016-17.504 34.016 4.512 38.016 24.992 28.512 36.992 8.992l56-4z m8 128q-0.992 20 8.992 36.512t28.512 24.992 38.016 4.992 33.504-18.016 17.504-33.504-4.512-37.504-24.992-28.512-36.992-8.992l-56.992 3.008z" /></svg>