<?xml version="1.0" standalone="no"?><!DOCTYPE svg PUBLIC "-//W3C//DTD SVG 1.1//EN" "http://www.w3.org/Graphics/SVG/1.1/DTD/svg11.dtd"><svg class="icon" width="200px" height="200.00px" viewBox="0 0 1024 1024" version="1.1" xmlns="http://www.w3.org/2000/svg"><path fill="#1296db" d="M352 480h320q14.016 0 23.008 8.992T704 512t-8.992 23.008T672 544H352q-14.016 0-23.008-8.992T320 512t8.992-23.008T352 480z m128 192V352q0-14.016 8.992-23.008T512 320t23.008 8.992T544 352v320q0 14.016-8.992 23.008T512 704t-23.008-8.992T480 672z m32 224q163.008-4 271.488-112.512T896 512q-4-163.008-112.512-271.488T512 128q-163.008 4-271.488 112.512T128 512q4 163.008 112.512 271.488T512 896z m0 64q-190.016-4.992-316.512-131.488T64 512q4.992-190.016 131.488-316.512T512 64q190.016 4.992 316.512 131.488T960 512q-4.992 190.016-131.488 316.512T512 960z" /></svg>