<?xml version="1.0" standalone="no"?><!DOCTYPE svg PUBLIC "-//W3C//DTD SVG 1.1//EN" "http://www.w3.org/Graphics/SVG/1.1/DTD/svg11.dtd"><svg class="icon" width="200px" height="200.00px" viewBox="0 0 1024 1024" version="1.1" xmlns="http://www.w3.org/2000/svg"><path fill="#1296db" d="M467.008 512l-91.008-90.016q-8.992-10.016-8.992-23.008t9.504-22.496 22.496-9.504 23.008 8.992l90.016 91.008 90.016-91.008q14.016-12.992 31.488-8t22.496 22.496-8 31.488l-91.008 90.016 91.008 90.016q12.992 14.016 8 31.488t-22.496 22.496-31.488-8l-90.016-91.008-90.016 91.008q-10.016 8.992-23.008 8.992t-22.496-9.504-9.504-22.496 8.992-23.008zM512 896q163.008-4 271.488-112.512T896 512q-4-163.008-112.512-271.488T512 128q-163.008 4-271.488 112.512T128 512q4 163.008 112.512 271.488T512 896z m0 64q-190.016-4.992-316.512-131.488T64 512q4.992-190.016 131.488-316.512T512 64q190.016 4.992 316.512 131.488T960 512q-4.992 190.016-131.488 316.512T512 960z" /></svg>