<?xml version="1.0" standalone="no"?><!DOCTYPE svg PUBLIC "-//W3C//DTD SVG 1.1//EN" "http://www.w3.org/Graphics/SVG/1.1/DTD/svg11.dtd"><svg class="icon" width="200px" height="200.00px" viewBox="0 0 1024 1024" version="1.1" xmlns="http://www.w3.org/2000/svg"><path fill="#1296db" d="M512 896q163.008-4 271.488-112.512T896 512q-4-163.008-112.512-271.488T512 128q-163.008 4-271.488 112.512T128 512q4 163.008 112.512 271.488T512 896z m0 64q-190.016-4.992-316.512-131.488T64 512q4.992-190.016 131.488-316.512T512 64q190.016 4.992 316.512 131.488T960 512q-4.992 190.016-131.488 316.512T512 960z m232.992-599.008Q755.008 352 768 352t22.496 9.504T800 384t-8.992 23.008l-288 288Q492.992 704 480 704t-23.008-8.992l-160-160Q288 524.992 288 512t9.504-22.496T320 480t23.008 8.992L480 627.008z" /></svg>