<?xml version="1.0" standalone="no"?><!DOCTYPE svg PUBLIC "-//W3C//DTD SVG 1.1//EN" "http://www.w3.org/Graphics/SVG/1.1/DTD/svg11.dtd"><svg class="icon" width="200px" height="200.00px" viewBox="0 0 1024 1024" version="1.1" xmlns="http://www.w3.org/2000/svg"><path fill="#1296db" d="M240.992 832l64-64H768V448q-0.992-64-28-118.016l46.016-47.008q22.016 36.992 34.016 78.496t12 86.496v320h96q14.016 0 23.008 8.992t8.992 23.008-8.992 23.008-23.008 8.992H241.024z m-89.984 0H96q-14.016 0-23.008-8.992T64 800t8.992-23.008T96 768h96V448q2.016-116.992 72-202.496T448 134.016V128q0.992-27.008 19.008-44.992T512 64.992t44.992 18.016T576 128v6.016q50.016 11.008 93.504 35.488t78.496 61.504l-46.016 46.016q-54.016-60-130.016-78.016t-151.488 11.008-119.488 92.992T256 448v278.016zM448 896h128q-0.992 27.008-19.008 44.992T512 959.008t-44.992-18.016T448 896z m-296.992-36.992q-10.016 8.992-22.496 8.992t-22.016-9.504-10.016-22.016 8.512-22.496l704-708.992Q819.008 96 831.488 96t22.016 9.504 10.016 22.496-8.512 23.008z" /></svg>