<?xml version="1.0" standalone="no"?><!DOCTYPE svg PUBLIC "-//W3C//DTD SVG 1.1//EN" "http://www.w3.org/Graphics/SVG/1.1/DTD/svg11.dtd"><svg class="icon" width="200px" height="200.00px" viewBox="0 0 1024 1024" version="1.1" xmlns="http://www.w3.org/2000/svg"><path fill="#1296db" d="M736.992 358.016L704 350.016l-12-32q-23.008-60.992-75.008-95.008t-116.992-30.016-112.512 44.512-62.496 103.488l-8.992 39.008-39.008 8.992q-72.992 18.016-113.504 76t-34.496 132.992Q139.008 672 192 718.976t128 48.992h368q42.016 0 79.488-16t67.008-45.504 45.504-67.008 16-79.488q-0.992-72.992-44.512-128t-114.496-74.016zM752 296q92.992 24 149.504 96T960 560q-3.008 115.008-79.488 192T688 832H320q-100-2.016-170.496-64.992t-84.512-162.016q-8.992-100 45.504-176.992t151.488-102.016q20.992-84 84.512-137.504T496 128.992q87.008-4.992 156 40.512T752 296z" /></svg>