<?xml version="1.0" standalone="no"?><!DOCTYPE svg PUBLIC "-//W3C//DTD SVG 1.1//EN" "http://www.w3.org/Graphics/SVG/1.1/DTD/svg11.dtd"><svg class="icon" width="200px" height="200.00px" viewBox="0 0 1024 1024" version="1.1" xmlns="http://www.w3.org/2000/svg"><path fill="#1296db" d="M768 192q52.992 0 97.504 26.016t70.496 72.512 24.512 97.504-28.992 96.512-72.992 69.504-98.496 22.016q-24 86.016-91.488 138.496t-156.512 53.504h-192q-108.992-3.008-180.992-75.008t-75.008-180.992v-352q0-14.016 8.992-23.008t23.008-8.992h640q14.016 0 23.008 8.992t8.992 23.008v32z m0 64v256q54.016-0.992 90.496-37.504T896 384q-0.992-54.016-37.504-90.496T768 256zM96 832h640q14.016 0 23.008 8.992T768 864t-8.992 23.008T736 896H96q-14.016 0-23.008-8.992T64 864t8.992-23.008T96 832zM128 192v320q2.016 82.016 56 136T320 704h192q82.016-2.016 136-56T704 512V192H128z" /></svg>