<?xml version="1.0" standalone="no"?><!DOCTYPE svg PUBLIC "-//W3C//DTD SVG 1.1//EN" "http://www.w3.org/Graphics/SVG/1.1/DTD/svg11.dtd"><svg class="icon" width="200px" height="200.00px" viewBox="0 0 1024 1024" version="1.1" xmlns="http://www.w3.org/2000/svg"><path fill="#1296db" d="M823.008 192h14.016q12 0 20.512 7.488t10.496 19.488l22.016 128q2.016 14.016-7.488 25.504t-24.512 11.488h-48.992l-39.008 546.016q-0.992 12.992-10.016 21.504t-22.016 8.512H286.016q-12.992 0-22.016-8.512t-10.016-21.504L214.976 383.968H165.984q-15.008 0-24.512-11.488t-7.488-25.504l22.016-128q2.016-12 10.496-19.488T187.008 192h14.016l-7.008-94.016q0-14.016 9.504-24t22.496-10.016h571.008q14.016 0 23.488 10.016t8.512 24z m-64.992 0l4.992-64H260.992l4 64h492.992zM210.016 320h610.016l-10.016-64H214.016l-10.016 64h6.016z m68.992 64l36.992 512h392l36.992-512H278.976z" /></svg>