<?xml version="1.0" standalone="no"?><!DOCTYPE svg PUBLIC "-//W3C//DTD SVG 1.1//EN" "http://www.w3.org/Graphics/SVG/1.1/DTD/svg11.dtd"><svg class="icon" width="200px" height="200.00px" viewBox="0 0 1024 1024" version="1.1" xmlns="http://www.w3.org/2000/svg"><path fill="#1296db" d="M162.016 580.992L192.032 640q-31.008 30.016-32 64 4 64 102.496 111.008T512.032 864q151.008-2.016 249.504-48.992T864.032 704q-0.992-34.016-32-64l31.008-59.008q31.008 26.016 48 56.992T928.032 704q-4.992 99.008-123.008 160.512T512.032 928q-175.008-2.016-292.992-63.488T96.032 704q0-35.008 17.504-66.016t48.512-56.992z m0-192L192.032 448q-31.008 30.016-32 64 4 64 102.496 111.008T512.032 672q151.008-2.016 249.504-48.992T864.032 512q-0.992-34.016-32-64l31.008-59.008q31.008 26.016 48 56.992T928.032 512q-4.992 99.008-123.008 160.512T512.032 736q-175.008-2.016-292.992-63.488T96.032 512q0-35.008 17.504-66.016t48.512-56.992zM512 544q-175.008-2.016-292.992-63.488T96 320q4.992-99.008 123.008-160.512T512 96q175.008 2.016 292.992 63.488T928 320q-4.992 99.008-123.008 160.512T512 544z m0-64q151.008-2.016 249.504-48.992T864 320q-4-64-102.496-111.008T512 160q-151.008 2.016-249.504 48.992T160 320q4 64 102.496 111.008T512 480z" /></svg>