<?xml version="1.0" standalone="no"?><!DOCTYPE svg PUBLIC "-//W3C//DTD SVG 1.1//EN" "http://www.w3.org/Graphics/SVG/1.1/DTD/svg11.dtd"><svg class="icon" width="200px" height="200.00px" viewBox="0 0 1024 1024" version="1.1" xmlns="http://www.w3.org/2000/svg"><path fill="#1296db" d="M768 64q59.008 0.992 106.016 32t70.016 85.504 12.512 110.016-51.488 98.016-96.512 54.496-110.496-8.992l-218.016 290.016v171.008h96q14.016 0 23.008 8.992t8.992 23.008-8.992 23.008-23.008 8.992h-256q-14.016 0-23.008-8.992t-8.992-23.008 8.992-23.008 23.008-8.992h96v-171.008L77.024 274.048q-12.992-18.016-12.992-39.008v-11.008q0-12.992 8.992-22.016T96.032 192h72L102.016 108.992q-8-11.008-6.496-24T108.032 64t23.488-6.496 21.504 11.488l96 123.008h338.016q20.992-58.016 70.016-92.512T768.064 64z m-111.008 128H800q14.016 0.992 23.008 10.016t8.992 22.016v11.008q0 20.992-12.992 38.016l-80 108q48.992 10.016 91.008-12.992t58.016-71.008-3.008-92-64.992-64.512-91.488-6.016-71.488 58.496v-0.992zM299.008 256l128.992 166.016q8 11.008 6.496 23.488t-12 20.512-23.008 7.008-21.504-11.008L217.984 256H143.968l304 404.992L751.968 256H298.976z" /></svg>