<?xml version="1.0" standalone="no"?><!DOCTYPE svg PUBLIC "-//W3C//DTD SVG 1.1//EN" "http://www.w3.org/Graphics/SVG/1.1/DTD/svg11.dtd"><svg class="icon" width="200px" height="200.00px" viewBox="0 0 1024 1024" version="1.1" xmlns="http://www.w3.org/2000/svg"><path fill="#1296db" d="M192 736h640V128H256q-27.008 0.992-44.992 19.008T192 192v544zM256 64h608q14.016 0 23.008 8.992T896 96v672q0 14.016-8.992 23.008T864 800H160l-32 58.016V192q0.992-54.016 37.504-90.496T256 64z m-16 736q-20 0.992-33.504 14.496T192.992 848t13.504 33.504T240 896H832v-96H240z m0-64H896v160q-0.992 27.008-19.008 44.992T832 960H240q-48-0.992-79.488-32.512T128 848q0.992-48 32.512-79.488T240 736zM384 128v251.008l96-76.992 96 76.992V128h-192z m-64-64h320v380.992q-0.992 20-18.496 28.512t-33.504-3.488L480 384l-108 86.016q-16 12-33.504 3.488T320 444.992V64z" /></svg>