<?xml version="1.0" standalone="no"?><!DOCTYPE svg PUBLIC "-//W3C//DTD SVG 1.1//EN" "http://www.w3.org/Graphics/SVG/1.1/DTD/svg11.dtd"><svg class="icon" width="200px" height="200.00px" viewBox="0 0 1024 1024" version="1.1" xmlns="http://www.w3.org/2000/svg"><path fill="#1296db" d="M640 384v64h-192q-54.016 0.992-90.496 37.504T320 576v128q0.992 54.016 37.504 90.496T448 832h320q54.016-0.992 90.496-37.504T896 704v-128q0-35.008-16.992-64T832 464.992v-70.016q56.992 20.992 92 68.992t36 112v128q-2.016 82.016-56 136T768 895.968H448q-82.016-2.016-136-56T256 703.968v-128q2.016-82.016 56-136t136-56h192z m-256 256v-64h192q54.016-0.992 90.496-37.504T704 448v-128q-0.992-54.016-37.504-90.496T576 192H256q-54.016 0.992-90.496 37.504T128 320v128q0 35.008 16.992 64T192 559.008v70.016q-58.016-20.992-92.512-70.016T64 448v-128q2.016-82.016 56-136T256 128h320q82.016 2.016 136 56T768 320v128q-2.016 82.016-56 136T576 640h-192z" /></svg>