<?xml version="1.0" standalone="no"?><!DOCTYPE svg PUBLIC "-//W3C//DTD SVG 1.1//EN" "http://www.w3.org/Graphics/SVG/1.1/DTD/svg11.dtd"><svg class="icon" width="200px" height="200.00px" viewBox="0 0 1024 1024" version="1.1" xmlns="http://www.w3.org/2000/svg"><path fill="#1296db" d="M480 512h64v320h-64V512zM192 896h640q-0.992-27.008-19.008-44.992T768 832H256q-27.008 0.992-44.992 19.008T192 896z m64-128h512q54.016 0.992 90.496 37.504T896 896v64H128v-64q0.992-54.016 37.504-90.496T256 768z m256-256q82.016-2.016 136-56T704 320q-2.016-82.016-56-136T512 128q-82.016 2.016-136 56T320 320q2.016 82.016 56 136T512 512z m0 64q-108.992-3.008-180.992-75.008T256 320q3.008-108.992 75.008-180.992T512 64q108.992 3.008 180.992 75.008T768 320q-3.008 108.992-75.008 180.992T512 576z" /></svg>