<?xml version="1.0" standalone="no"?><!DOCTYPE svg PUBLIC "-//W3C//DTD SVG 1.1//EN" "http://www.w3.org/Graphics/SVG/1.1/DTD/svg11.dtd"><svg class="icon" width="200px" height="200.00px" viewBox="0 0 1024 1024" version="1.1" xmlns="http://www.w3.org/2000/svg"><path fill="#1296db" d="M768 832q-0.992 54.016-37.504 90.496T640 960H192q-54.016-0.992-90.496-37.504T64 832V384q0.992-54.016 37.504-90.496T192 256v64q-27.008 0.992-44.992 19.008T128 384v448q0.992 27.008 19.008 44.992T192 896h448q27.008-0.992 44.992-19.008T704 832h64zM384 128q-27.008 0.992-44.992 19.008T320 192v448q0.992 27.008 19.008 44.992T384 704h448q27.008-0.992 44.992-19.008T896 640V192q-0.992-27.008-19.008-44.992T832 128H384z m0-64h448q54.016 0.992 90.496 37.504T960 192v448q-0.992 54.016-37.504 90.496T832 768H384q-54.016-0.992-90.496-37.504T256 640V192q0.992-54.016 37.504-90.496T384 64z" /></svg>