<?xml version="1.0" standalone="no"?><!DOCTYPE svg PUBLIC "-//W3C//DTD SVG 1.1//EN" "http://www.w3.org/Graphics/SVG/1.1/DTD/svg11.dtd"><svg class="icon" width="200px" height="200.00px" viewBox="0 0 1024 1024" version="1.1" xmlns="http://www.w3.org/2000/svg"><path fill="#1296db" d="M320 256q-27.008 0.992-44.992 19.008T256 320v384q0.992 27.008 19.008 44.992T320 768h384q27.008-0.992 44.992-19.008T768 704V320q-0.992-27.008-19.008-44.992T704 256H320z m0-64h384q54.016 0.992 90.496 37.504T832 320v384q-0.992 54.016-37.504 90.496T704 832H320q-54.016-0.992-90.496-37.504T192 704V320q0.992-54.016 37.504-90.496T320 192z m192-128q14.016 0 23.008 8.992T544 96v128h-64V96q0-14.016 8.992-23.008T512 64z m160 0q14.016 0 23.008 8.992T704 96v128h-64V96q0-14.016 8.992-23.008T672 64zM352 64q14.016 0 23.008 8.992T384 96v128h-64V96q0-14.016 8.992-23.008T352 64z m160 896q-14.016 0-23.008-8.992T480 928v-128h64v128q0 14.016-8.992 23.008T512 960z m160 0q-14.016 0-23.008-8.992T640 928v-128h64v128q0 14.016-8.992 23.008T672 960z m-320 0q-14.016 0-23.008-8.992T320 928v-128h64v128q0 14.016-8.992 23.008T352 960zM64 512q0-14.016 8.992-23.008T96 480h128v64H96q-14.016 0-23.008-8.992T64 512z m0-160q0-14.016 8.992-23.008T96 320h128v64H96q-14.016 0-23.008-8.992T64 352z m0 320q0-14.016 8.992-23.008T96 640h128v64H96q-14.016 0-23.008-8.992T64 672z m896-160q0 14.016-8.992 23.008T928 544h-128v-64h128q14.016 0 23.008 8.992T960 512z m0-160q0 14.016-8.992 23.008T928 384h-128v-64h128q14.016 0 23.008 8.992T960 352z m0 320q0 14.016-8.992 23.008T928 704h-128v-64h128q14.016 0 23.008 8.992T960 672z" /></svg>