<?xml version="1.0" standalone="no"?><!DOCTYPE svg PUBLIC "-//W3C//DTD SVG 1.1//EN" "http://www.w3.org/Graphics/SVG/1.1/DTD/svg11.dtd"><svg class="icon" width="200px" height="200.00px" viewBox="0 0 1024 1024" version="1.1" xmlns="http://www.w3.org/2000/svg"><path fill="#1296db" d="M256 768h672q14.016 0 23.008 8.992T960 800t-8.992 23.008T928 832H224q-14.016 0-23.008-8.992T192 800V96q0-14.016 8.992-23.008T224 64t23.008 8.992T256 96v672zM832 224v704q0 14.016-8.992 23.008T800 960t-23.008-8.992T768 928V256H96q-14.016 0-23.008-8.992T64 224t8.992-23.008T96 192h704q14.016 0 23.008 8.992T832 224z" /></svg>