<?xml version="1.0" standalone="no"?><!DOCTYPE svg PUBLIC "-//W3C//DTD SVG 1.1//EN" "http://www.w3.org/Graphics/SVG/1.1/DTD/svg11.dtd"><svg class="icon" width="200px" height="200.00px" viewBox="0 0 1024 1024" version="1.1" xmlns="http://www.w3.org/2000/svg"><path fill="#1296db" d="M528.992 148.992q8.992-8 20.992-8t20.992 8.992 8.992 20.992-8.992 20.992l-312 320 312 320q8.992 8.992 8.992 21.504t-8.992 20.992-20.992 8.512-20.992-8L197.984 533.984q-8.992-10.016-8.992-22.496t8.992-21.504z m256 0q8.992-8 20.992-8t20.992 8.992 8.992 20.992-8.992 20.992l-312 320 312 320q8.992 8.992 8.992 21.504t-8.992 20.992-20.992 8.512-20.992-8L453.984 533.984q-8.992-10.016-8.992-22.496t8.992-21.504z" /></svg>