<?xml version="1.0" standalone="no"?><!DOCTYPE svg PUBLIC "-//W3C//DTD SVG 1.1//EN" "http://www.w3.org/Graphics/SVG/1.1/DTD/svg11.dtd"><svg class="icon" width="200px" height="200.00px" viewBox="0 0 1024 1024" version="1.1" xmlns="http://www.w3.org/2000/svg"><path fill="#1296db" d="M452.992 148.992q8.992-8 20.992-8t20.992 8l331.008 340.992q8.992 8.992 8.992 22.016t-8.992 22.016L494.976 875.008q-8.992 8-20.992 8t-20.992-8.992-8.992-20.992 8.992-20.992l312-320-312-320q-8.992-8.992-8.992-20.992t8.992-22.016z m-256 0q8.992-8 20.992-8t20.992 8l331.008 340.992q8.992 8.992 8.992 22.016t-8.992 22.016L238.976 875.008q-8.992 8-20.992 8t-20.992-8.992-8.992-20.992 8.992-20.992l312-320-312-320q-8.992-8.992-8.992-20.992t8.992-22.016z" /></svg>