<?xml version="1.0" standalone="no"?><!DOCTYPE svg PUBLIC "-//W3C//DTD SVG 1.1//EN" "http://www.w3.org/Graphics/SVG/1.1/DTD/svg11.dtd"><svg class="icon" width="200px" height="200.00px" viewBox="0 0 1024 1024" version="1.1" xmlns="http://www.w3.org/2000/svg"><path fill="#1296db" d="M359.008 768H160q-14.016 0-23.008-8.992T128 736V192H64q-14.016 0-23.008-8.992T32 160t8.992-23.008T64 128h896q14.016 0 23.008 8.992T992 160t-8.992 23.008T960 192h-64v544q0 14.016-8.992 23.008T864 768h-199.008l111.008 192h-74.016l-111.008-192H432.96l-111.008 192H247.936zM832 192H192v512h640V192zM343.008 535.008Q332.992 544 320 544t-22.496-9.504T288 512t8.992-23.008l148-147.008 124.992 94.016 108.992-136q12-15.008 30.496-12.512t24.992 20-5.504 32.512l-147.008 184-131.008-98.016z" /></svg>