<?xml version="1.0" standalone="no"?><!DOCTYPE svg PUBLIC "-//W3C//DTD SVG 1.1//EN" "http://www.w3.org/Graphics/SVG/1.1/DTD/svg11.dtd"><svg class="icon" width="200px" height="200.00px" viewBox="0 0 1024 1024" version="1.1" xmlns="http://www.w3.org/2000/svg"><path fill="#1296db" d="M664.992 768l111.008 192h-74.016l-111.008-192H432.96l-111.008 192H247.936l111.008-192H159.936q-14.016 0-23.008-8.992T127.936 736V192h-64q-14.016 0-23.008-8.992T31.936 160t8.992-23.008T63.936 128h896q14.016 0 23.008 8.992t8.992 23.008-8.992 23.008-23.008 8.992h-64v544q0 14.016-8.992 23.008t-23.008 8.992h-199.008zM832 192H192v512h640V192z m-480 256q14.016 0 23.008 8.992T384 480v64q0 14.016-8.992 23.008T352 576t-23.008-8.992T320 544v-64q0-14.016 8.992-23.008T352 448z m160-64q14.016 0 23.008 8.992T544 416v128q0 14.016-8.992 23.008T512 576t-23.008-8.992T480 544v-128q0-14.016 8.992-23.008T512 384z m160-64q14.016 0 23.008 8.992T704 352v192q0 14.016-8.992 23.008T672 576t-23.008-8.992T640 544v-192q0-14.016 8.992-23.008T672 320z" /></svg>