<?xml version="1.0" standalone="no"?><!DOCTYPE svg PUBLIC "-//W3C//DTD SVG 1.1//EN" "http://www.w3.org/Graphics/SVG/1.1/DTD/svg11.dtd"><svg class="icon" width="200px" height="200.00px" viewBox="0 0 1024 1024" version="1.1" xmlns="http://www.w3.org/2000/svg"><path fill="#1296db" d="M128 384v512h768V192h-128v32q0 14.016-8.992 23.008T736 256t-23.008-8.992T704 224V192H320v32q0 14.016-8.992 23.008T288 256t-23.008-8.992T256 224V192H128v128h768v64H128z m192-256h384V96q0-14.016 8.992-23.008T736 64t23.008 8.992T768 96v32h160q14.016 0 23.008 8.992T960 160v768q0 14.016-8.992 23.008T928 960H96q-14.016 0-23.008-8.992T64 928V160q0-14.016 8.992-23.008T96 128h160V96q0-14.016 8.992-23.008T288 64t23.008 8.992T320 96v32zM288 512h64q14.016 0 23.008 8.992T384 544t-8.992 23.008T352 576H288q-14.016 0-23.008-8.992T256 544t8.992-23.008T288 512z m0 192h64q14.016 0 23.008 8.992T384 736t-8.992 23.008T352 768H288q-14.016 0-23.008-8.992T256 736t8.992-23.008T288 704z m192-192h64q14.016 0 23.008 8.992T576 544t-8.992 23.008T544 576h-64q-14.016 0-23.008-8.992T448 544t8.992-23.008T480 512z m0 192h64q14.016 0 23.008 8.992T576 736t-8.992 23.008T544 768h-64q-14.016 0-23.008-8.992T448 736t8.992-23.008T480 704z m192-192h64q14.016 0 23.008 8.992T768 544t-8.992 23.008T736 576h-64q-14.016 0-23.008-8.992T640 544t8.992-23.008T672 512z m0 192h64q14.016 0 23.008 8.992T768 736t-8.992 23.008T736 768h-64q-14.016 0-23.008-8.992T640 736t8.992-23.008T672 704z" /></svg>