<?xml version="1.0" standalone="no"?><!DOCTYPE svg PUBLIC "-//W3C//DTD SVG 1.1//EN" "http://www.w3.org/Graphics/SVG/1.1/DTD/svg11.dtd"><svg class="icon" width="200px" height="200.00px" viewBox="0 0 1024 1024" version="1.1" xmlns="http://www.w3.org/2000/svg"><path fill="#1296db" d="M352 192V96q0-14.016 8.992-23.008T384 64h256q14.016 0 23.008 8.992T672 96v96h256q14.016 0 23.008 8.992T960 224t-8.992 23.008T928 256H96q-14.016 0-23.008-8.992T64 224t8.992-23.008T96 192h256z m64 0h192V128h-192v64zM192 960q-14.016 0-23.008-8.992T160 928V256h704v672q0 14.016-8.992 23.008T832 960H192z m224-192q14.016 0 23.008-8.992T448 736V416q0-14.016-8.992-23.008T416 384t-23.008 8.992T384 416v320q0 14.016 8.992 23.008T416 768z m192 0q14.016 0 23.008-8.992T640 736V416q0-14.016-8.992-23.008T608 384t-23.008 8.992T576 416v320q0 14.016 8.992 23.008T608 768z" /></svg>