<?xml version="1.0" standalone="no"?><!DOCTYPE svg PUBLIC "-//W3C//DTD SVG 1.1//EN" "http://www.w3.org/Graphics/SVG/1.1/DTD/svg11.dtd"><svg class="icon" width="200px" height="200.00px" viewBox="0 0 1024 1024" version="1.1" xmlns="http://www.w3.org/2000/svg"><path fill="#1296db" d="M160 256H96q-14.016 0-23.008-8.992T64 224t8.992-23.008T96 192h256V96q0-14.016 8.992-23.008T384 64h256q14.016 0 23.008 8.992T672 96v96h256q14.016 0 23.008 8.992T960 224t-8.992 23.008T928 256h-64v672q0 14.016-8.992 23.008T832 960H192q-14.016 0-23.008-8.992T160 928V256z m448-64V128h-192v64h192zM224 896h576V256H224v640z m192-128q-14.016 0-23.008-8.992T384 736V416q0-14.016 8.992-23.008T416 384t23.008 8.992T448 416v320q0 14.016-8.992 23.008T416 768z m192 0q-14.016 0-23.008-8.992T576 736V416q0-14.016 8.992-23.008T608 384t23.008 8.992T640 416v320q0 14.016-8.992 23.008T608 768z" /></svg>