<?xml version="1.0" standalone="no"?><!DOCTYPE svg PUBLIC "-//W3C//DTD SVG 1.1//EN" "http://www.w3.org/Graphics/SVG/1.1/DTD/svg11.dtd"><svg class="icon" width="200px" height="200.00px" viewBox="0 0 1024 1024" version="1.1" xmlns="http://www.w3.org/2000/svg"><path fill="#1296db" d="M288 896h448q32 0 32 32t-32 32H288q-32 0-32-32t32-32z m512-480q-3.008-122.016-84.512-203.488T512 128q-122.016 3.008-203.488 84.512T224 416q0 88.992 71.488 203.488T512 872.992q144.992-139.008 216.512-253.504T800 416z m-288 544Q160 640 160 416q4-150.016 103.008-248.992T512 64q150.016 4 248.992 103.008T864 416q0 224-352 544z m-128-576h256q32 0 32 32t-32 32h-256q-32 0-32-32t32-32z" /></svg>