<?xml version="1.0" standalone="no"?><!DOCTYPE svg PUBLIC "-//W3C//DTD SVG 1.1//EN" "http://www.w3.org/Graphics/SVG/1.1/DTD/svg11.dtd"><svg class="icon" width="200px" height="200.00px" viewBox="0 0 1024 1024" version="1.1" xmlns="http://www.w3.org/2000/svg"><path fill="#1296db" d="M128 416v-48q0-32 13.504-60.512T179.52 257.984t55.008-28.992 62.496-3.008q22.016-72.992 80.512-116.992T512.032 64q76 0.992 134.496 44.992t80.512 116.992q32-4.992 62.496 3.008t55.008 28.992 38.016 49.504 13.504 60.512V416q-3.008 152.992-100.992 260t-251.008 123.008V896h-64v-96.992q-152.992-16-251.008-123.008T128.064 416z m287.008-32h194.016q-4-39.008 11.488-74.016t47.488-59.008q-14.016-55.008-56.512-88.512T512 128.96t-99.488 33.504-56.512 88.512q32 24 47.488 59.008T414.976 384z m-72.992 0q4.992-22.016-3.008-42.016t-26.496-32.992T272 296t-40.512 12.992-26.496 32.992T201.984 384h140z m340 0h140q4.992-22.016-3.008-42.016t-26.496-32.992T752 296t-40.512 12.992-26.496 32.992T681.984 384zM512 736q126.016-3.008 214.496-83.008T829.984 448H193.984q15.008 124.992 103.488 204.992T511.968 736z m-128 160h256q14.016 0 23.008 8.992T672 928t-8.992 23.008T640 960h-256q-14.016 0-23.008-8.992T352 928t8.992-23.008T384 896z" /></svg>