<?xml version="1.0" standalone="no"?><!DOCTYPE svg PUBLIC "-//W3C//DTD SVG 1.1//EN" "http://www.w3.org/Graphics/SVG/1.1/DTD/svg11.dtd"><svg class="icon" width="200px" height="200.00px" viewBox="0 0 1024 1024" version="1.1" xmlns="http://www.w3.org/2000/svg"><path fill="#1296db" d="M384 275.008V224q2.016-54.016 38.016-90.496T512.032 96q54.016 0.992 90.016 36.992T640.064 224v50.016q162.016 52 248.992 188.512t66.016 305.504H69.056q-22.016-168.992 65.504-305.504t249.504-187.488zM96 832h832q14.016 0 23.008 8.992T960 864t-8.992 23.008T928 896H96q-14.016 0-23.008-8.992T64 864t8.992-23.008T96 832z m32-128h768q-4-163.008-112.512-271.488T512 320q-163.008 4-271.488 112.512T128 704zM576 256V224q-0.992-27.008-19.008-44.992T512 160.992t-44.992 18.016T448 224v32h128z" /></svg>