<?xml version="1.0" standalone="no"?><!DOCTYPE svg PUBLIC "-//W3C//DTD SVG 1.1//EN" "http://www.w3.org/Graphics/SVG/1.1/DTD/svg11.dtd"><svg class="icon" width="200px" height="200.00px" viewBox="0 0 1024 1024" version="1.1" xmlns="http://www.w3.org/2000/svg"><path fill="#1296db" d="M480 256.992V192h-96q-14.016 0-23.008-8.992T352 160t8.992-23.008T384 128h256q14.016 0 23.008 8.992T672 160t-8.992 23.008T640 192h-96v64.992q94.016 7.008 176 50.016t140.992 116.512 83.488 162.496 11.488 182.016H67.968q-12.992-92.992 11.488-182.016t83.488-162.496 140.992-116.512 176-50.016zM128 704h768q-4-163.008-112.512-271.488T512 320q-163.008 4-271.488 112.512T128 704z m-32 128h832q14.016 0 23.008 8.992T960 864t-8.992 23.008T928 896H96q-14.016 0-23.008-8.992T64 864t8.992-23.008T96 832z" /></svg>