<?xml version="1.0" standalone="no"?><!DOCTYPE svg PUBLIC "-//W3C//DTD SVG 1.1//EN" "http://www.w3.org/Graphics/SVG/1.1/DTD/svg11.dtd"><svg class="icon" width="200px" height="200.00px" viewBox="0 0 1024 1024" version="1.1" xmlns="http://www.w3.org/2000/svg"><path fill="#1296db" d="M128 320v576h576V320H128zM96 256h640q14.016 0 23.008 8.992T768 288v640q0 14.016-8.992 23.008T736 960H96q-14.016 0-23.008-8.992T64 928V288q0-14.016 8.992-23.008T96 256z m864-160v704q0 14.016-8.992 23.008T928 832h-96v-64h64V128H384v64h-64V96q0-14.016 8.992-23.008T352 64h576q14.016 0 23.008 8.992T960 96zM256 672h320v64H256v-64z m0-192h320v64H256v-64z" /></svg>