<?xml version="1.0" standalone="no"?><!DOCTYPE svg PUBLIC "-//W3C//DTD SVG 1.1//EN" "http://www.w3.org/Graphics/SVG/1.1/DTD/svg11.dtd"><svg class="icon" width="200px" height="200.00px" viewBox="0 0 1024 1024" version="1.1" xmlns="http://www.w3.org/2000/svg"><path fill="#1296db" d="M832 512q0-14.016 8.992-23.008T864 480t23.008 8.992T896 512v352q0 14.016-8.992 23.008T864 896H160q-14.016 0-23.008-8.992T128 864V160q0-14.016 8.992-23.008T160 128h352q14.016 0 23.008 8.992T544 160t-8.992 23.008T512 192H192v640h640V512z m-361.984 42.016l52.992-7.008L847.008 222.016q12.992-12.992 8.512-30.496t-22.496-22.496-31.008 8L477.024 501.024zM892 132q28 28 28 67.488t-28 68.512L560.992 599.008q-8 8-19.008 10.016l-104.992 15.008q-16 2.016-27.008-9.504t-8.992-27.488L416 482.048q0.992-11.008 8.992-18.016L756.992 132.032q28.992-28 67.488-28t67.488 28z" /></svg>