<?xml version="1.0" standalone="no"?><!DOCTYPE svg PUBLIC "-//W3C//DTD SVG 1.1//EN" "http://www.w3.org/Graphics/SVG/1.1/DTD/svg11.dtd"><svg class="icon" width="200px" height="200.00px" viewBox="0 0 1024 1024" version="1.1" xmlns="http://www.w3.org/2000/svg"><path fill="#1296db" d="M300 188.992q136.992-84 284-52.992t238.016 162.016l18.016 31.008v0.992q3.008 7.008 0.512 14.496t-8.512 12.512l-352 228q-8 4.992-16 3.488t-12.992-8.512l-18.016-28q-12-20-7.488-40.992t23.488-34.016l224.992-147.008q8-4.992 9.504-12.992t-3.488-16q-0.992-3.008-4-4.992-68.992-55.008-154.496-60t-160.512 43.008q-94.016 64.992-116.512 170.016t37.504 202.016q64 92.992 168.512 115.488t201.504-37.504q20-12 40.992-7.008t34.016 24l18.016 26.016q4 8 2.496 15.488t-7.488 12.512q-12.992 12-28.992 20.992-136.992 84-284 52.992t-238.016-163.008q-84-136.992-52.512-284t163.488-238.016z m526.016 305.024q8-4 16-2.496t12.992 8.512l23.008 35.008q14.016 23.008 8.992 47.488t-27.008 40.512l-36 23.008q-7.008 4.992-15.008 3.008t-14.016-8.992l-46.016-71.008q-4.992-8-3.008-16t8.992-12.992z" /></svg>