<?xml version="1.0" standalone="no"?><!DOCTYPE svg PUBLIC "-//W3C//DTD SVG 1.1//EN" "http://www.w3.org/Graphics/SVG/1.1/DTD/svg11.dtd"><svg class="icon" width="200px" height="200.00px" viewBox="0 0 1024 1024" version="1.1" xmlns="http://www.w3.org/2000/svg"><path fill="#1296db" d="M512 640q108.992-3.008 180.992-75.008T768 384q-3.008-108.992-75.008-180.992T512 128q-108.992 3.008-180.992 75.008T256 384q3.008 108.992 75.008 180.992T512 640z m0 64q-136-3.008-226.496-93.504T192 384q3.008-136 93.504-226.496T512 64q136 3.008 226.496 93.504T832 384q-3.008 136-93.504 226.496T512 704z m0-64q32 0 32 32v256q0 32-32 32t-32-32v-256q0-32 32-32z m-160 160h320q32 0 32 32t-32 32H352q-32 0-32-32t32-32z" /></svg>