<?xml version="1.0" standalone="no"?><!DOCTYPE svg PUBLIC "-//W3C//DTD SVG 1.1//EN" "http://www.w3.org/Graphics/SVG/1.1/DTD/svg11.dtd"><svg class="icon" width="200px" height="200.00px" viewBox="0 0 1024 1024" version="1.1" xmlns="http://www.w3.org/2000/svg"><path fill="#1296db" d="M160 160v704h704V160H160zM128 96h768q14.016 0 23.008 8.992T928 128v768q0 14.016-8.992 23.008T896 928H128q-14.016 0-23.008-8.992T96 896V128q0-14.016 8.992-23.008T128 96z m192 192V128h64v352h256V128h64v160h160v64h-160v128h160v64h-160v128h160v64h-160v160h-64V544h-256v352h-64v-160H128v-64h192v-128H128v-64h192v-128H128V288h192z" /></svg>