<?xml version="1.0" standalone="no"?><!DOCTYPE svg PUBLIC "-//W3C//DTD SVG 1.1//EN" "http://www.w3.org/Graphics/SVG/1.1/DTD/svg11.dtd"><svg class="icon" width="200px" height="200.00px" viewBox="0 0 1024 1024" version="1.1" xmlns="http://www.w3.org/2000/svg"><path fill="#1296db" d="M192 256q-27.008 0.992-44.992 19.008T128 320v448q0.992 27.008 19.008 44.992T192 832h640q27.008-0.992 44.992-19.008T896 768V320q-0.992-27.008-19.008-44.992T832 256H192z m0-64h640q54.016 0.992 90.496 37.504T960 320v448q-0.992 54.016-37.504 90.496T832 896H192q-54.016-0.992-90.496-37.504T64 768V320q0.992-54.016 37.504-90.496T192 192z m352 320h96q14.016 0 23.008 8.992T672 544t-8.992 23.008T640 576h-96v96q0 14.016-8.992 23.008T512 704t-23.008-8.992T480 672v-96h-96q-14.016 0-23.008-8.992T352 544t8.992-23.008T384 512h96v-96q0-14.016 8.992-23.008T512 384t23.008 8.992T544 416v96zM352 128v64h320V128H352z m-32-64h384q14.016 0 23.008 8.992T736 96v128q0 14.016-8.992 23.008T704 256H320q-14.016 0-23.008-8.992T288 224V96q0-14.016 8.992-23.008T320 64z" /></svg>