<?xml version="1.0" standalone="no"?><!DOCTYPE svg PUBLIC "-//W3C//DTD SVG 1.1//EN" "http://www.w3.org/Graphics/SVG/1.1/DTD/svg11.dtd"><svg class="icon" width="200px" height="200.00px" viewBox="0 0 1024 1024" version="1.1" xmlns="http://www.w3.org/2000/svg"><path fill="#1296db" d="M878.016 448H242.016l-96 384h636zM832 384v-64H485.984l-128-128H127.968v448l58.016-232q3.008-11.008 11.488-17.504T216.96 384h615.008z m-24.992 512H96q-14.016 0-23.008-8.992T64 864V160q0-14.016 8.992-23.008T96 128h288l128 128h352q14.016 0 23.008 8.992T896 288v96h23.008q15.008 0 24.512 12.512t6.496 27.488l-112 448q-3.008 11.008-11.488 17.504T807.04 896z" /></svg>