<?xml version="1.0" standalone="no"?><!DOCTYPE svg PUBLIC "-//W3C//DTD SVG 1.1//EN" "http://www.w3.org/Graphics/SVG/1.1/DTD/svg11.dtd"><svg class="icon" width="200px" height="200.00px" viewBox="0 0 1024 1024" version="1.1" xmlns="http://www.w3.org/2000/svg"><path fill="#1296db" d="M128 352.992V352q0.992-88.992 48.512-160t129.504-104.992 165.504-17.504 147.488 78.496q50.016-24 102.496-19.008t96.992 37.504 64 82.016 10.496 103.488q28 3.008 44.992 24.992t12.992 48.992q-44 262.016-215.008 331.008V800q-0.992 40.992-28 68T639.968 896h-256q-40.992-0.992-68-28T287.968 800v-43.008Q116.96 688 72.96 425.984q-4-26.016 12-47.488t43.008-25.504zM192 352h64q2.016-68 47.008-112.992T416 192q68 2.016 112.992 47.008T576 352h64q-2.016-95.008-65.504-158.496T416 128q-95.008 2.016-158.496 65.504T192 352z m128 0h192q-0.992-40.992-28-68T416 256.992t-68 27.008T320 352z m439.008 0h68.992q7.008-28.992 0.992-57.504t-24-52.512-44.512-36.992T703.968 192q-23.008 0-44 8 18.016 27.008 28 58.016 19.008-4.992 36.992 1.504t30.016 22.016 12.992 34.496-8.992 36zM672 768H352v32q0 14.016 8.992 23.008T384 832h256q14.016 0 23.008-8.992T672 800v-32z m-343.008-64h366.016q76-24 124-95.008T887.008 416H136.992q20 122.016 68 192.992T328.992 704z" /></svg>