<?xml version="1.0" standalone="no"?><!DOCTYPE svg PUBLIC "-//W3C//DTD SVG 1.1//EN" "http://www.w3.org/Graphics/SVG/1.1/DTD/svg11.dtd"><svg class="icon" width="200px" height="200.00px" viewBox="0 0 1024 1024" version="1.1" xmlns="http://www.w3.org/2000/svg"><path fill="#1296db" d="M512 960q-190.016-4.992-316.512-131.488T64 512q4.992-190.016 131.488-316.512T512 64q190.016 4.992 316.512 131.488T960 512q-4.992 190.016-131.488 316.512T512 960z m0-64q163.008-4 271.488-112.512T896 512q-4-163.008-112.512-271.488T512 128q-163.008 4-271.488 112.512T128 512q4 163.008 112.512 271.488T512 896zM187.008 268q24-24 47.008-46.016 26.016 46.016 66.016 80.992l-32.992 56.992q-47.008-39.008-80-92z m653.984-4.992q-34.016 55.008-84 96.992L724 304q42.016-36.992 68.992-86.016 23.008 20.992 48 44.992z m-374.976 181.984l11.008-63.008q35.008 4 70.016 0l11.008 63.008q-46.016 6.016-92 0z m-63.008-12.992q-44-12.992-83.008-35.008l32-56q28.992 16.992 62.016 28zM704 396.992q-39.008 22.016-83.008 35.008l-11.008-63.008q32.992-11.008 62.016-28zM183.008 760.992q34.016-55.008 84-96.992l32.992 56q-40.992 36.992-68 84-24-20-48.992-43.008z m657.984 1.024q-24.992 23.008-48.992 43.008-27.008-48-68-84.992l32.992-56q50.016 42.016 84 98.016z m-374.976-183.008q46.016-6.016 92 0l-11.008 63.008q-35.008-4-70.016 0z m-63.008 12.992l11.008 63.008q-32.992 11.008-62.016 28l-32-56q39.008-22.016 83.008-35.008zM704 627.008l-32 56q-30.016-16.992-63.008-28l12-63.008q44 12.992 83.008 35.008z" /></svg>