<?xml version="1.0" standalone="no"?><!DOCTYPE svg PUBLIC "-//W3C//DTD SVG 1.1//EN" "http://www.w3.org/Graphics/SVG/1.1/DTD/svg11.dtd"><svg class="icon" width="200px" height="200.00px" viewBox="0 0 1024 1024" version="1.1" xmlns="http://www.w3.org/2000/svg"><path fill="#1296db" d="M256 410.016V96q0-14.016 8.992-23.008T288 64t23.008 8.992T320 96v314.016q28.992-10.016 46.496-34.496T384 320.032v-224q0-14.016 8.992-23.008T416 64.032t23.008 8.992 8.992 23.008v224q-0.992 58.016-36 100.992T320 477.024v451.008q0 14.016-8.992 23.008T288 960.032t-23.008-8.992T256 928.032V477.024q-56.992-12.992-92-56T128 320.032v-224q0-14.016 8.992-23.008T160 64.032t23.008 8.992 8.992 23.008v224q0 31.008 17.504 55.488T256 410.016z m416 161.984q-70.016-16.992-114.496-86.016T512 319.968q2.016-108.992 56-180.992T704 63.968q82.016 3.008 136 75.008T896 319.968q-0.992 96.992-45.504 166.016T736 572V928q0 14.016-8.992 23.008T704 960t-23.008-8.992T672 928V572zM704 512q51.008-2.016 88.512-55.008T832 320q-2.016-84-39.488-136.992T704 128q-51.008 2.016-88.512 55.008T576 320q2.016 84 39.488 136.992T704 512z" /></svg>