<?xml version="1.0" standalone="no"?><!DOCTYPE svg PUBLIC "-//W3C//DTD SVG 1.1//EN" "http://www.w3.org/Graphics/SVG/1.1/DTD/svg11.dtd"><svg class="icon" width="200px" height="200.00px" viewBox="0 0 1024 1024" version="1.1" xmlns="http://www.w3.org/2000/svg"><path fill="#1296db" d="M256 320h512q0-118.016-36.992-192H296.992Q256 224 256 320z m504 64H264q24 86.016 91.488 138.016T512 576.032q88.992-2.016 156.512-54.016T760 384zM544 638.016v258.016h96q14.016 0 23.008 8.992t8.992 23.008-8.992 23.008-23.008 8.992h-256q-14.016 0-23.008-8.992T352 928.032t8.992-23.008 23.008-8.992h96v-258.016q-124.992-15.008-204.992-103.488T192 320.032q0-128 64-256h512q64 96 64 256-3.008 126.016-83.008 214.496T544 638.016z" /></svg>