<?xml version="1.0" standalone="no"?><!DOCTYPE svg PUBLIC "-//W3C//DTD SVG 1.1//EN" "http://www.w3.org/Graphics/SVG/1.1/DTD/svg11.dtd"><svg class="icon" width="200px" height="200.00px" viewBox="0 0 1024 1024" version="1.1" xmlns="http://www.w3.org/2000/svg"><path fill="#1296db" d="M256 271.008l16 10.016 12.992 8.992q52.992 31.008 115.008 30.016 22.016 0.992 41.504-8.512t49.504-32.512q39.008-30.016 68-43.008T624 224q40.992 0 75.488 15.008t66.496 42.016l2.016 2.016V128.032H256V271.04z m0.992 76Q264 450.016 326.496 512T512 576q118.016-0.992 180-58.016t72.992-152q-20-16.992-40-36-24-20.992-48.512-31.488T622.976 288q-22.016-0.992-42.016 8.512t-51.008 33.504h-0.992q-36.992 28.992-65.504 42.016t-63.488 12q-40.992 0-76.512-9.504t-66.496-27.488zM480 639.008q-168.992-19.008-230.496-119.488T192 320.032v-224q0-14.016 8.992-23.008T224 64.032h576q14.016 0 23.008 8.992t8.992 23.008v224q4 99.008-57.504 199.488T544 639.008V896h96q14.016 0 23.008 8.992T672 928t-8.992 23.008T640 960h-256q-14.016 0-23.008-8.992T352 928t8.992-23.008T384 896h96v-256.992z" /></svg>