<?xml version="1.0" standalone="no"?><!DOCTYPE svg PUBLIC "-//W3C//DTD SVG 1.1//EN" "http://www.w3.org/Graphics/SVG/1.1/DTD/svg11.dtd"><svg class="icon" width="200px" height="200.00px" viewBox="0 0 1024 1024" version="1.1" xmlns="http://www.w3.org/2000/svg"><path fill="#1296db" d="M544 639.008V896h96q14.016 0 23.008 8.992T672 928t-8.992 23.008T640 960h-256q-14.016 0-23.008-8.992T352 928t8.992-23.008T384 896h96v-256.992q-168.992-19.008-230.496-119.488T192 320.032v-224q0-14.016 8.992-23.008T224 64.032h576q14.016 0 23.008 8.992t8.992 23.008v224q4 99.008-57.504 199.488T544 639.008zM256 320q0 114.016 62.496 184T512 576q132-2.016 194.496-72T768 320V128H256v192z" /></svg>