<?xml version="1.0" standalone="no"?><!DOCTYPE svg PUBLIC "-//W3C//DTD SVG 1.1//EN" "http://www.w3.org/Graphics/SVG/1.1/DTD/svg11.dtd"><svg class="icon" width="200px" height="200.00px" viewBox="0 0 1024 1024" version="1.1" xmlns="http://www.w3.org/2000/svg"><path fill="#1296db" d="M320 288v-22.016q2.016-86.016 56-143.008T512 63.968q82.016 2.016 136 59.008T704 265.984V288h131.008q12.992 0 21.504 8t10.496 20.992l56.992 576q2.016 14.016-7.488 24.512t-23.488 10.496H131.008q-14.016 0-23.488-10.496t-7.488-24.512l56.992-576q2.016-12.992 10.496-20.992T189.024 288h131.008z m64 0h256v-22.016q-0.992-59.008-37.504-98.016T512 127.968q-54.016 0.992-90.496 40T384 265.984V288z m-64 64H217.984L166.976 864h690.016l-51.008-512h-102.016v96q0 14.016-8.992 23.008t-23.008 8.992-23.008-8.992-8.992-23.008v-96h-256v96q0 14.016-8.992 23.008t-23.008 8.992-23.008-8.992T319.968 448v-96z" /></svg>