<?xml version="1.0" standalone="no"?><!DOCTYPE svg PUBLIC "-//W3C//DTD SVG 1.1//EN" "http://www.w3.org/Graphics/SVG/1.1/DTD/svg11.dtd"><svg class="icon" width="200px" height="200.00px" viewBox="0 0 1024 1024" version="1.1" xmlns="http://www.w3.org/2000/svg"><path fill="#1296db" d="M544 195.008q28.992 6.016 53.504 21.504T640 256q34.016-44 85.504-58.016t103.008 7.008 78.016 67.488 19.008 101.504-45.504 92.512-94.016 44.512q16 35.008 14.016 72.992t-20.992 71.488-50.496 54.016-70.496 25.504q22.016 52 8.992 104t-56.992 86.496T512.032 960t-98.016-34.496-56.992-86.496 8.992-104q-39.008-4.992-70.496-25.504t-50.496-54.016-20.992-71.488 14.016-72.992q-56-7.008-94.016-44.512t-45.504-92.512 19.008-101.504 78.016-67.488 103.008-7.008T384.064 256q18.016-24 42.496-39.488t53.504-21.504V128h-64q-14.016 0-23.008-8.992T384.064 96t8.992-23.008 23.008-8.992h192q14.016 0 23.008 8.992t8.992 23.008-8.992 23.008-23.008 8.992h-64v67.008zM512 448q40.992-0.992 68-28T607.008 352t-27.008-68T512 256.992t-68 27.008T416.992 352t27.008 68T512 448z m-256 0q40.992-0.992 68-28T351.008 352t-27.008-68T256 256.992t-68 27.008T160.992 352t27.008 68T256 448z m128 224q40.992-0.992 68-28T479.008 576t-27.008-68T384 480.992t-68 27.008T288.992 576t27.008 68T384 672z m128 224q40.992-0.992 68-28T607.008 800t-27.008-68T512 704.992t-68 27.008T416.992 800t27.008 68T512 896z m128-224q40.992-0.992 68-28T735.008 576t-27.008-68T640 480.992t-68 27.008T544.992 576t27.008 68T640 672z m128-224q40.992-0.992 68-28T863.008 352t-27.008-68T768 256.992t-68 27.008T672.992 352t27.008 68T768 448z" /></svg>