<?xml version="1.0" standalone="no"?><!DOCTYPE svg PUBLIC "-//W3C//DTD SVG 1.1//EN" "http://www.w3.org/Graphics/SVG/1.1/DTD/svg11.dtd"><svg class="icon" width="200px" height="200.00px" viewBox="0 0 1024 1024" version="1.1" xmlns="http://www.w3.org/2000/svg"><path fill="#1296db" d="M953.6 665.6l-99.2-112c-6.4-6.4-12.8-9.6-25.6-9.6H640v-64h160c9.6 0 16-3.2 22.4-9.6s9.6-12.8 9.6-22.4V224c0-9.6-3.2-16-9.6-22.4S809.6 192 800 192h-160V96c0-9.6-3.2-16-9.6-22.4S617.6 64 608 64h-192c-9.6 0-16 3.2-22.4 9.6s-9.6 12.8-9.6 22.4v96H204.8c-9.6 0-16 3.2-22.4 9.6L83.2 313.6c-6.4 6.4-6.4 12.8-6.4 22.4s3.2 16 6.4 22.4l99.2 112c6.4 6.4 12.8 9.6 22.4 9.6H384v64H233.6c-9.6 0-16 3.2-22.4 9.6-6.4 6.4-9.6 12.8-9.6 22.4v224c0 9.6 3.2 16 9.6 22.4 6.4 6.4 16 9.6 22.4 9.6H384v96c0 9.6 3.2 16 9.6 22.4s12.8 9.6 22.4 9.6h192c9.6 0 16-3.2 22.4-9.6s9.6-12.8 9.6-22.4v-96h185.6c9.6 0 19.2-3.2 25.6-9.6l99.2-112c6.4-6.4 6.4-12.8 6.4-22.4s0-16-3.2-22.4zM448 128h128v64h-128V128z m-227.2 288l-70.4-80L220.8 256H768v160H220.8z m227.2 64h128v64h-128v-64z m128 416h-128v-64h128v64z m236.8-128H265.6v-160h547.2l70.4 80-70.4 80z" /></svg>