<?xml version="1.0" standalone="no"?><!DOCTYPE svg PUBLIC "-//W3C//DTD SVG 1.1//EN" "http://www.w3.org/Graphics/SVG/1.1/DTD/svg11.dtd"><svg class="icon" width="200px" height="200.00px" viewBox="0 0 1024 1024" version="1.1" xmlns="http://www.w3.org/2000/svg"><path fill="#1296db" d="M896 528.992V512q-4-163.008-112.512-271.488T512 128q-163.008 4-271.488 112.512T128 512v16.992Q158.016 512 192 512t64 17.504T303.008 576 320 640v128q-0.992 54.016-37.504 90.496T192 896q-54.016-0.992-90.496-37.504T64 768v-256q4.992-190.016 131.488-316.512T512 64q190.016 4.992 316.512 131.488T960 512v256q-0.992 54.016-37.504 90.496T832 896q-54.016-0.992-90.496-37.504T704 768v-128q0-35.008 16.992-64T768 529.504 832 512t64 16.992zM896 640q-0.992-27.008-19.008-44.992T832 576.992t-44.992 18.016T768 640v128q0.992 27.008 19.008 44.992t44.992 18.016 44.992-18.016T896 768v-128zM128 640v128q0.992 27.008 19.008 44.992T192 831.008t44.992-18.016T256 768v-128q-0.992-27.008-19.008-44.992T192 576.992t-44.992 18.016T128 640z" /></svg>