<?xml version="1.0" standalone="no"?><!DOCTYPE svg PUBLIC "-//W3C//DTD SVG 1.1//EN" "http://www.w3.org/Graphics/SVG/1.1/DTD/svg11.dtd"><svg class="icon" width="200px" height="200.00px" viewBox="0 0 1024 1024" version="1.1" xmlns="http://www.w3.org/2000/svg"><path fill="#1296db" d="M760 804.992l-91.008-91.008q-34.016 27.008-74.016 40.512T511.968 768t-83.008-13.504-74.016-40.512l-91.008 91.008q52 44 115.488 67.488t132.512 23.488q71.008 0 134.016-24t114.016-67.008z m44.992-44.992q44-52 67.488-115.488T895.968 512q0-71.008-24-134.016t-67.008-114.016l-91.008 91.008q26.016 32.992 40 72.512T767.968 512t-14.016 84.512-40 72.512zM760 219.008q-52-44-115.488-67.488T512 128.032q-71.008 0-134.016 24T263.968 219.04l91.008 91.008q34.016-27.008 74.016-40.512t84-13.504 83.488 14.016 72.512 40zM219.008 264q-44 52-67.488 115.488T128.032 512q0 71.008 24 134.016t67.008 114.016l91.008-91.008q-27.008-34.016-40.512-74.016t-13.504-84 14.016-83.488 40-72.512z m416.992 395.008q12-11.008 23.008-23.008 20.992-24.992 32.992-56.512T704 512q0-43.008-17.504-80.992t-50.496-66.016q-26.016-22.016-58.016-33.504T511.968 320q-43.008 0-80.992 17.504t-66.016 50.496q-20.992 24.992-32.992 56.512T319.968 512q0 43.008 17.504 80.992t50.496 66.016q24.992 20.992 56.512 32.992t67.488 12 67.488-12 56.512-32.992zM512 960q-190.016-4.992-316.512-131.488T64 512q4.992-190.016 131.488-316.512T512 64q190.016 4.992 316.512 131.488T960 512q-4.992 190.016-131.488 316.512T512 960z" /></svg>