<?xml version="1.0" standalone="no"?><!DOCTYPE svg PUBLIC "-//W3C//DTD SVG 1.1//EN" "http://www.w3.org/Graphics/SVG/1.1/DTD/svg11.dtd"><svg class="icon" width="200px" height="200.00px" viewBox="0 0 1024 1024" version="1.1" xmlns="http://www.w3.org/2000/svg"><path fill="#1296db" d="M272.992 478.016h478.016v-68H272.992v68z m0 68v51.008q0 38.016 14.496 72t40.992 60.992 60.512 40.992 72 14.016h102.016q38.016 0 72-14.016t60.512-40.992 40.992-60.992 14.496-72v-51.008H272.992z m-33.984-205.024h546.016q14.016 0.992 24 10.496t10.016 23.488v222.016q-3.008 108.992-75.008 181.504t-180.992 74.496h-102.016q-52 0-98.496-19.008t-82.496-55.488-55.488-83.008-19.488-98.496v-222.016q0-14.016 10.016-23.488t24-10.496zM512 34.016q14.016 0 24 10.016t10.016 24V239.04q0 14.016-9.504 24T512 273.056t-24.512-10.016-9.504-24V68.032q0-14.016 10.016-24t24-10.016z m-136.992 68q15.008 0.992 24.512 10.496t10.496 24.512V239.04q-0.992 14.016-10.496 24t-24 10.016-24-10.016-10.496-24V137.024q0.992-15.008 10.496-24.512t23.488-10.496z m273.984 0q14.016 0.992 23.488 10.496t10.496 24.512V239.04q-0.992 14.016-10.496 24t-24 10.016-24-10.016-10.496-24V137.024q0.992-15.008 10.496-24.512t24.512-10.496zM171.008 922.016h682.016q15.008 0 24.512 9.504t9.504 24-9.504 24.512-24.512 10.016H171.008q-15.008 0-24.512-10.016t-9.504-24.512 9.504-24 24.512-9.504z" /></svg>