<?xml version="1.0" standalone="no"?><!DOCTYPE svg PUBLIC "-//W3C//DTD SVG 1.1//EN" "http://www.w3.org/Graphics/SVG/1.1/DTD/svg11.dtd"><svg class="icon" width="200px" height="200.00px" viewBox="0 0 1024 1024" version="1.1" xmlns="http://www.w3.org/2000/svg"><path fill="#1296db" d="M416 640h256q14.016 0 23.008-8.992T704 608V160q0-14.016-8.992-23.008T672 128H352q-14.016 0-23.008 8.992T320 160v448q0 14.016 8.992 23.008T352 640h64z m192 64v160q-0.992 40.992-28 68T512 959.008t-68-27.008T416 864v-160h-64q-40.992-0.992-68-28T256 608V160q0.992-40.992 28-68T352 64h320q40.992 0.992 68 28T768 160v448q-0.992 40.992-28 68T672 704h-64z m-64 0h-64v160q0 14.016 8.992 23.008T512 896t23.008-8.992T544 864v-160z" /></svg>