<?xml version="1.0" standalone="no"?><!DOCTYPE svg PUBLIC "-//W3C//DTD SVG 1.1//EN" "http://www.w3.org/Graphics/SVG/1.1/DTD/svg11.dtd"><svg class="icon" width="200px" height="200.00px" viewBox="0 0 1024 1024" version="1.1" xmlns="http://www.w3.org/2000/svg"><path fill="#1296db" d="M512 448v128h240l16-128h-256z m-64 0H256l16 128H448v-128z m64-255.008V384h248Q736 297.984 668.512 245.984T512 192.992z m-64 8q-68 18.016-116.512 66.496T264 384H448V200.992z m64-72q116 2.016 202.016 71.488t111.008 183.488h71.008q14.016 0 23.008 8.992t8.992 23.008-8.992 23.008-23.008 8.992h-64l-56.992 456q-4 24-21.504 39.488t-41.504 16.512h-400q-24-0.992-41.504-16.512t-21.504-39.488l-56.992-456h-64q-14.016 0-23.008-8.992t-8.992-23.008 8.992-23.008 23.008-8.992H199.04q20-95.008 87.008-161.504t162.016-87.488V95.968q0.992-40.992 28-68t68-28h128q14.016 0 23.008 8.992t8.992 23.008-8.992 23.008-23.008 8.992h-128q-14.016 0-23.008 8.992t-8.992 23.008V128.96zM744 640H280l32 256h400z" /></svg>