<?xml version="1.0" standalone="no"?><!DOCTYPE svg PUBLIC "-//W3C//DTD SVG 1.1//EN" "http://www.w3.org/Graphics/SVG/1.1/DTD/svg11.dtd"><svg class="icon" width="200px" height="200.00px" viewBox="0 0 1024 1024" version="1.1" xmlns="http://www.w3.org/2000/svg"><path fill="#1296db" d="M198.016 260q24-115.008 110.016-186.496T512.032 0q118.016 2.016 204 73.504t110.016 186.496q32 8.992 51.008 34.016t19.008 58.016v64q-0.992 32.992-20 58.496t-52 34.496l-48.992 395.008q-4 24-21.504 39.488t-42.496 16.512H313.056q-24.992-0.992-42.496-16.512t-21.504-39.488L200.064 509.024q-32.992-8.992-52-34.496t-20-58.496v-64q0-32.992 19.008-58.016T198.08 260zM264 256h496Q736 169.984 668.512 117.984T512 63.968q-88.992 2.016-156.512 54.016T264 256z m495.008 256H264.992l48 384h398.016zM224 448h576q14.016 0 23.008-8.992T832 416v-64q0-14.016-8.992-23.008T800 320H224q-14.016 0-23.008 8.992T192 352v64q0 14.016 8.992 23.008T224 448z m160 192h64v64h-64v-64z m192 64h64v64h-64v-64z m-128 64h64v64h-64v-64z m64-192h64v64h-64v-64z" /></svg>