<?xml version="1.0" standalone="no"?><!DOCTYPE svg PUBLIC "-//W3C//DTD SVG 1.1//EN" "http://www.w3.org/Graphics/SVG/1.1/DTD/svg11.dtd"><svg class="icon" width="200px" height="200.00px" viewBox="0 0 1024 1024" version="1.1" xmlns="http://www.w3.org/2000/svg"><path fill="#1296db" d="M128.992 448q7.008-79.008 60.512-132T322.016 256q14.016-86.016 78.016-139.488T552.032 64q88 4.992 147.488 62.496T767.008 272q55.008 23.008 88.992 70.016t39.008 106.016H896l-347.008 536q-10.016 14.016-27.008 14.016t-26.016-14.016l-368-536h0.992z m64 0h286.016q-7.008-56-47.008-91.488T336 320q-56 0.992-96 36.512T192.992 448zM544 448h287.008q-8-56-47.488-91.488T687.008 320q-56 0.992-95.488 36.512T544.032 448z m-295.008 64l272 396.992L777.984 512H248.992zM512 352.992q31.008-48.992 80.992-74.496T700.992 256q-12.992-56.992-56.992-92.512t-103.008-34.496-101.504 38.016-53.504 95.008q40 10.016 72 33.504T512 353.024z" /></svg>