<?xml version="1.0" standalone="no"?><!DOCTYPE svg PUBLIC "-//W3C//DTD SVG 1.1//EN" "http://www.w3.org/Graphics/SVG/1.1/DTD/svg11.dtd"><svg class="icon" width="200px" height="200.00px" viewBox="0 0 1024 1024" version="1.1" xmlns="http://www.w3.org/2000/svg"><path fill="#1296db" d="M308 488.992l227.008 227.008q10.016 8.992 22.496 8.992t22.496-8.992L784 512q56-59.008 56-135.488T784 240q-60-56-136.512-56T512 240l-204 204q-8.992 10.016-8.992 23.008t8.992 22.016z m136 227.008l-136 135.008q-28.992 28-67.008 27.488t-66.496-28.992-28.992-66.496 27.488-67.008l135.008-136-44.992-44.992q-27.008-28.992-27.008-68.512t27.008-67.488l204-204Q546.016 120 648 120t180.992 75.008q75.008 79.008 75.008 180.992t-75.008 180.992l-204 204q-28 28-67.488 28t-68.512-28z m-44.992-45.984l-44.992-44.992-136 136q-8.992 10.016-8.992 22.496t9.504 22.016 22.016 9.504 22.496-8.992z m248.992-384q8.992 10.016 8.992 22.496t-8.992 22.496L467.008 512q-14.016 12.992-32 8.512t-22.496-22.496 8.512-31.008l180.992-180.992q10.016-10.016 23.008-10.016t23.008 10.016z m90.016 89.984q10.016 10.016 10.016 23.008t-10.016 23.008l-180.992 180q-12.992 12.992-30.496 8.512t-22.496-22.496 8-31.008l180.992-180.992q8.992-8.992 22.496-8.992t22.496 8.992z" /></svg>