<?xml version="1.0" standalone="no"?><!DOCTYPE svg PUBLIC "-//W3C//DTD SVG 1.1//EN" "http://www.w3.org/Graphics/SVG/1.1/DTD/svg11.dtd"><svg class="icon" width="200px" height="200.00px" viewBox="0 0 1024 1024" version="1.1" xmlns="http://www.w3.org/2000/svg"><path fill="#1296db" d="M512 64q190.016 4.992 316.512 131.488T960 512q-4.992 190.016-131.488 316.512T512 960q-190.016-4.992-316.512-131.488T64 512q4.992-190.016 131.488-316.512T512 64z m67.008 275.008q26.016 0 43.008-15.488t16.992-41.504-16.992-41.504-42.496-15.488-42.496 15.488-16.992 41.504 16.992 41.504 42.016 15.488z m12 360q0-6.016 0.992-16t0-19.008l-52.992 60.992q-8 8.992-16.512 14.016t-14.496 3.008q-8.992-4-8-14.016l88-276.992q4.992-28-8.992-48t-44.992-24q-35.008 0.992-76.512 29.504t-72.512 72.512v15.008q-0.992 10.016 0 19.008l52.992-60.992q8-8.992 16.512-14.016t13.504-3.008q10.016 4.992 7.008 16l-87.008 276q-7.008 24.992 7.008 44.512t48.992 26.496q50.016-0.992 84-28.992t63.008-72z" /></svg>