<?xml version="1.0" standalone="no"?><!DOCTYPE svg PUBLIC "-//W3C//DTD SVG 1.1//EN" "http://www.w3.org/Graphics/SVG/1.1/DTD/svg11.dtd"><svg class="icon" width="200px" height="200.00px" viewBox="0 0 1024 1024" version="1.1" xmlns="http://www.w3.org/2000/svg"><path fill="#1296db" d="M448 456V96q0-12.992 9.504-22.496T480 64h192q14.016 0 23.008 8.992T704 96t-8.992 23.008T672 128h-160v128h160q14.016 0 23.008 8.992T704 288t-8.992 23.008T672 320h-160v128q104 2.016 175.008 69.504t80 170.496q4 104-58.496 179.488T544 957.984q-104 11.008-183.008-46.496T260 752q-16.992-102.016 35.488-184.992T448 456zM512 896q82.016-2.016 136-56T704 704q-2.016-82.016-56-136T512 512q-82.016 2.016-136 56T320 704q2.016 82.016 56 136T512 896z" /></svg>