<?xml version="1.0" standalone="no"?><!DOCTYPE svg PUBLIC "-//W3C//DTD SVG 1.1//EN" "http://www.w3.org/Graphics/SVG/1.1/DTD/svg11.dtd"><svg class="icon" width="200px" height="200.00px" viewBox="0 0 1024 1024" version="1.1" xmlns="http://www.w3.org/2000/svg"><path fill="#1296db" d="M256 411.008V96q0-14.016 8.992-23.008T288 64t23.008 8.992T320 96v315.008q28.992-11.008 46.496-35.488T384 320.032v-224q0-14.016 8.992-23.008T416 64.032t23.008 8.992 8.992 23.008v224q-0.992 58.016-36 100.992T320 477.024v451.008q0 14.016-8.992 23.008T288 960.032t-23.008-8.992T256 928.032V477.024q-56.992-12.992-92-56T128 320.032v-224q0-14.016 8.992-23.008T160 64.032t23.008 8.992 8.992 23.008v224q0 31.008 17.504 55.488T256 411.008zM640 160v384h127.008q-4.992-118.016-28.992-208Q717.024 253.984 640 160z m0 448v320q0 14.016-8.992 23.008T608 960t-23.008-8.992T576 928V64h64q128 134.016 160 256t32 288h-192z" /></svg>