<?xml version="1.0" standalone="no"?><!DOCTYPE svg PUBLIC "-//W3C//DTD SVG 1.1//EN" "http://www.w3.org/Graphics/SVG/1.1/DTD/svg11.dtd"><svg class="icon" width="200px" height="200.00px" viewBox="0 0 1024 1024" version="1.1" xmlns="http://www.w3.org/2000/svg"><path fill="#1296db" d="M739.008 291.008L704 284.992l-12.992-34.016q-24-59.008-75.488-92.512t-115.488-29.504-111.488 43.488-63.488 102.496l-10.016 40-40.992 7.008q-64.992 12.992-104.992 60.512t-40.992 113.504q2.016 75.008 51.488 124.512t124.512 51.488h400q76-2.016 128.992-50.016t62.016-124q4.992-76-38.016-133.504t-118.016-73.504zM960 480q-3.008 108.992-75.488 180.992T704 736H304q-48.992 0-92.512-18.016t-77.504-52-52-78.016-18.016-92q0.992-90.016 56-155.008t143.008-82.016q22.016-82.016 84.512-135.008T496 64.928q84.992-4.992 154.016 39.488t100.992 123.488q92 20 149.504 88.992T960 479.904zM288 800h64v64H288v-64z m192 0h64v64h-64v-64z m-96 96h64v64h-64v-64z m192 0h64v64h-64v-64z m96-96h64v64h-64v-64z" /></svg>