<?xml version="1.0" standalone="no"?><!DOCTYPE svg PUBLIC "-//W3C//DTD SVG 1.1//EN" "http://www.w3.org/Graphics/SVG/1.1/DTD/svg11.dtd"><svg class="icon" width="200px" height="200.00px" viewBox="0 0 1024 1024" version="1.1" xmlns="http://www.w3.org/2000/svg"><path fill="#1296db" d="M288 671.008v64q-96.992-8-159.488-75.008T64 496q0.992-90.016 56-155.008t143.008-82.016q22.016-82.016 84.512-135.008t148.512-59.008q84.992-4.992 154.016 39.488t100.992 123.488q95.008 20 152.512 91.488t55.488 168.512q-4 96-65.504 164t-157.504 82.016v-64.992q70.016-12.992 114.016-64.512t46.016-122.496q-0.992-72-44-124t-112.992-67.008l-35.008-6.016-12.992-34.016q-24-59.008-75.488-92.512t-115.488-29.504-111.488 43.488T325.12 274.88l-10.016 40-40.992 7.008q-64.992 12.992-104.992 60.512t-40.992 113.504q0.992 71.008 46.016 119.488t114.016 55.488zM416 736q-18.016-0.992-27.008-16.512t-0.992-31.488l128-224q10.016-16 28-16t27.488 16 0.512 32L471.008 672H608q18.016 0.992 27.008 16.512t0.992 31.488l-128 224q-7.008 12-19.488 15.008t-24.512-3.488-15.008-19.008 3.008-24.512l100.992-176H416z" /></svg>