<?xml version="1.0" standalone="no"?><!DOCTYPE svg PUBLIC "-//W3C//DTD SVG 1.1//EN" "http://www.w3.org/Graphics/SVG/1.1/DTD/svg11.dtd"><svg class="icon" width="200px" height="200.00px" viewBox="0 0 1024 1024" version="1.1" xmlns="http://www.w3.org/2000/svg"><path fill="#1296db" d="M716 624.992l-46.016-44.992 91.008-91.008q56-59.008 62.496-128.992T784 240q-50.016-46.016-120-39.488t-128.992 62.496l-91.008 91.008-44.992-46.016 90.016-90.016q79.008-75.008 175.008-81.504t164.992 58.496q64.992 68.992 58.496 164.992t-81.504 175.008z m-91.008 91.008l-90.016 90.016q-79.008 75.008-175.008 81.504t-164.992-58.496q-64.992-68.992-58.496-164.992t81.504-175.008l90.016-90.016 46.016 44.992-91.008 91.008q-56 59.008-62.496 128.992T240 784q50.016 46.016 120 39.488t128.992-62.496l91.008-91.008z m0-361.984l44.992 44.992-271.008 271.008-44.992-44.992z" /></svg>