<?xml version="1.0" standalone="no"?><!DOCTYPE svg PUBLIC "-//W3C//DTD SVG 1.1//EN" "http://www.w3.org/Graphics/SVG/1.1/DTD/svg11.dtd"><svg class="icon" width="200px" height="200.00px" viewBox="0 0 1024 1024" version="1.1" xmlns="http://www.w3.org/2000/svg"><path fill="#1296db" d="M512 928q20.992-2.016 76.992-44.992T704 775.008q75.008-84.992 116.992-176.992T864 416q-4-144-102.496-231.008T512 96q-151.008 2.016-249.504 88.992T160 416q0.992 91.008 43.008 182.496T320 775.008q59.008 64.992 115.008 108T512 928z m0-435.008q27.008-0.992 44.992-19.008t18.016-44.992-18.016-45.504T512 364.992t-44.992 18.496-18.016 45.504 18.016 44.992 44.992 19.008z m0 141.024q-87.008-3.008-144.992-60.512t-60-144.512q2.016-87.008 60-144.992T512 224q87.008 2.016 144.992 60t60 144.992q-2.016 87.008-60 144.512T512 634.016z" /></svg>