<?xml version="1.0" standalone="no"?><!DOCTYPE svg PUBLIC "-//W3C//DTD SVG 1.1//EN" "http://www.w3.org/Graphics/SVG/1.1/DTD/svg11.dtd"><svg class="icon" width="200px" height="200.00px" viewBox="0 0 1024 1024" version="1.1" xmlns="http://www.w3.org/2000/svg"><path fill="#1296db" d="M800 416q-3.008-122.016-84.512-203.488T512 128q-122.016 3.008-203.488 84.512T224 416q0 88.992 71.488 203.488T512 872.992q144.992-139.008 216.512-253.504T800 416z m-288 544Q160 640 160 416q4-150.016 103.008-248.992T512 64q150.016 4 248.992 103.008T864 416q0 224-352 544z m0-448q40.992-0.992 68-28T607.008 416t-27.008-68T512 320.992t-68 27.008T416.992 416t27.008 68T512 512z m0 64q-68-2.016-112.992-47.008T352 416q2.016-68 47.008-112.992T512 256q68 2.016 112.992 47.008T672 416q-2.016 68-47.008 112.992T512 576z" /></svg>