<?xml version="1.0" standalone="no"?><!DOCTYPE svg PUBLIC "-//W3C//DTD SVG 1.1//EN" "http://www.w3.org/Graphics/SVG/1.1/DTD/svg11.dtd"><svg class="icon" width="200px" height="200.00px" viewBox="0 0 1024 1024" version="1.1" xmlns="http://www.w3.org/2000/svg"><path fill="#1296db" d="M512.992 448q-4-27.008 10.016-48t40.512-26.496 47.488 8 27.008 40-8 48-40 28.512q16.992 28 46.496 39.488t60.992 2.496 51.008-34.016 19.488-58.016h64q-2.016 68-47.008 112.992T672 607.968q-68-2.016-112.992-47.008T512 447.968h0.992z m-126.976-29.984q15.008 94.016 80.992 154.496t160 67.488q94.016 3.008 166.016-51.008t96-144.992q20-92-19.488-172.512t-124.512-121.504q-87.008-36.992-173.504-12.992t-141.504 100.992q60-40.992 130.016-45.504t134.496 28.992 100.512 93.504 36.992 132.992h-64q-2.016-76.992-51.008-130.496T591.008 256.96q-76.992-4.992-134.016 40t-71.008 120.992z m105.984 249.984l-206.016 206.016q-30.016 27.008-67.488 26.496t-66.016-28.992-28.992-66.016 26.496-67.488l206.016-206.016q-54.016-108.992-28-220.512t123.008-185.504q99.008-70.016 213.504-60.992t201.504 92.992q84 87.008 92.992 201.504t-60.992 213.504q-74.016 96.992-185.504 123.008t-220.512-28z m-53.984-36q-24.992-20.992-46.016-46.016L195.008 784q-12.992 12.992-8 30.496t22.496 22.496 30.496-8z" /></svg>