<?xml version="1.0" standalone="no"?><!DOCTYPE svg PUBLIC "-//W3C//DTD SVG 1.1//EN" "http://www.w3.org/Graphics/SVG/1.1/DTD/svg11.dtd"><svg class="icon" width="200px" height="200.00px" viewBox="0 0 1024 1024" version="1.1" xmlns="http://www.w3.org/2000/svg"><path fill="#1296db" d="M400 848.992q95.008-2.016 158.496-65.504t66.496-159.488q-3.008-95.008-66.496-158.496T400 399.008q-96 3.008-159.488 66.496T175.008 624q2.016 96 65.504 159.488t158.496 65.504h0.992z m0 57.024q-120-3.008-199.488-82.496t-82.496-198.496q3.008-120 82.496-199.488t198.496-82.496q120 3.008 199.488 82.496t82.496 198.496q-3.008 120-82.496 199.488T400 906.016z m252.992-788h224.992q28 0 28 28t-28 28h-224.992q-28 0-28-28t28-28z m225.024 0q28 0 28 28v224.992q0 28-28 28t-28-28V146.016q0-28 28-28z m-273.024 340.992l-40-40 292.992-292.992 40 40z" /></svg>