<?xml version="1.0" standalone="no"?><!DOCTYPE svg PUBLIC "-//W3C//DTD SVG 1.1//EN" "http://www.w3.org/Graphics/SVG/1.1/DTD/svg11.dtd"><svg class="icon" width="200px" height="200.00px" viewBox="0 0 1024 1024" version="1.1" xmlns="http://www.w3.org/2000/svg"><path fill="#1296db" d="M800 416q-3.008-122.016-84.512-203.488T512 128q-122.016 3.008-203.488 84.512T224 416q0 88.992 71.488 203.488T512 872.992q144.992-139.008 216.512-253.504T800 416z m-288 544Q160 640 160 416q4-150.016 103.008-248.992T512 64q150.016 4 248.992 103.008T864 416q0 224-352 544z m0-512q27.008-0.992 44.992-19.008T575.008 384t-18.016-44.992T512 320.992t-44.992 18.016T448.992 384t18.016 44.992T512 448z m0 64q-54.016-0.992-90.496-37.504T384 384q0.992-54.016 37.504-90.496T512 256q54.016 0.992 90.496 37.504T640 384q-0.992 54.016-37.504 90.496T512 512z m346.016 192l102.016 256h-288v-64h-320v64h-288l102.016-256h692z m-69.024 0H234.976l-76 192h706.016z" /></svg>