<?xml version="1.0" standalone="no"?><!DOCTYPE svg PUBLIC "-//W3C//DTD SVG 1.1//EN" "http://www.w3.org/Graphics/SVG/1.1/DTD/svg11.dtd"><svg class="icon" width="200px" height="200.00px" viewBox="0 0 1024 1024" version="1.1" xmlns="http://www.w3.org/2000/svg"><path fill="#1296db" d="M512 896q108.992-3.008 180.992-75.008T768 640q-3.008-108.992-75.008-180.992T512 384q-108.992 3.008-180.992 75.008T256 640q3.008 108.992 75.008 180.992T512 896z m0 64q-136-3.008-226.496-93.504T192 640q3.008-136 93.504-226.496T512 320q136 3.008 226.496 93.504T832 640q-3.008 136-93.504 226.496T512 960z m64-832h-128v200q32-8 64-8 28.992 0 64 8V128z m64 0v220q36.992 12.992 78.016 34.016L757.024 128h-116.992z m-256 0H267.008l39.008 254.016q40.992-20.992 78.016-34.016V128zM228.992 64h566.016q14.016 0 23.488 11.008t7.488 26.016l-58.016 379.008q-171.008-96-256-96t-256 96L197.952 101.024q-2.016-15.008 7.488-26.016T228.928 64z" /></svg>