<?xml version="1.0" standalone="no"?><!DOCTYPE svg PUBLIC "-//W3C//DTD SVG 1.1//EN" "http://www.w3.org/Graphics/SVG/1.1/DTD/svg11.dtd"><svg class="icon" width="200px" height="200.00px" viewBox="0 0 1024 1024" version="1.1" xmlns="http://www.w3.org/2000/svg"><path fill="#1296db" d="M128 224v512q0.992 27.008 19.008 44.992T192 800h640q27.008-0.992 44.992-19.008T896 736V224H128z m0-64h768q27.008 0.992 44.992 19.008T960 224v512q-0.992 54.016-37.504 90.496T832 864H192q-54.016-0.992-90.496-37.504T64 736V224q0.992-27.008 19.008-44.992T128 160z m776 64l-247.008 283.008q-28 31.008-65.504 48T512 572t-79.488-16.992-65.504-48L120 224h784zM204.992 224L416 464.992q18.016 20.992 43.008 32t52.992 11.008 52.992-11.008 43.008-32L819.008 224H204.992z" /></svg>