<?xml version="1.0" standalone="no"?><!DOCTYPE svg PUBLIC "-//W3C//DTD SVG 1.1//EN" "http://www.w3.org/Graphics/SVG/1.1/DTD/svg11.dtd"><svg class="icon" width="200px" height="200.00px" viewBox="0 0 1024 1024" version="1.1" xmlns="http://www.w3.org/2000/svg"><path fill="#1296db" d="M512 128q-54.016 0.992-90.496 37.504T384 256v256q0.992 54.016 37.504 90.496T512 640q54.016-0.992 90.496-37.504T640 512V256q-0.992-54.016-37.504-90.496T512 128z m0-64q82.016 2.016 136 56T704 256v256q-2.016 82.016-56 136T512 704q-82.016-2.016-136-56T320 512V256q2.016-82.016 56-136T512 64z m-32 832v-64q-122.016-3.008-203.488-84.512T192 544v-32q0-14.016 8.992-23.008T224 480t23.008 8.992T256 512v32q2.016 95.008 65.504 158.496T480 768h64q95.008-2.016 158.496-65.504T768 544v-32q0-14.016 8.992-23.008T800 480t23.008 8.992T832 512v32q-3.008 122.016-84.512 203.488T544 832v64h64q14.016 0 23.008 8.992T640 928t-8.992 23.008T608 960h-192q-14.016 0-23.008-8.992T384 928t8.992-23.008T416 896h64z" /></svg>