<?xml version="1.0" standalone="no"?><!DOCTYPE svg PUBLIC "-//W3C//DTD SVG 1.1//EN" "http://www.w3.org/Graphics/SVG/1.1/DTD/svg11.dtd"><svg class="icon" width="200px" height="200.00px" viewBox="0 0 1024 1024" version="1.1" xmlns="http://www.w3.org/2000/svg"><path fill="#1296db" d="M416 128V96q0.992-40.992 28-68T512 0h128q14.016 0 23.008 8.992T672 32t-8.992 23.008T640 64h-128q-14.016 0-23.008 8.992T480 96v32h320q39.008 0.992 66.016 26.016t28.992 64-21.504 67.488-61.504 33.504l-40 580.992q-2.016 26.016-20 42.496T708 960H316q-26.016-0.992-44-17.504t-20-42.496L212 319.008q-38.016-4.992-61.504-33.504t-21.504-67.488 28.992-64T224 128h192z m-140 192l40 576h392l4.992-71.008q-80-22.016-126.016-85.504t-42.016-146.496q7.008-83.008 61.504-140t136.512-68L747.968 320H275.968zM224 256h576q14.016 0 23.008-8.992T832 224t-8.992-23.008T800 192H224q-14.016 0-23.008 8.992T192 224t8.992 23.008T224 256z m492.992 504l22.016-308.992q-55.008 11.008-90.496 50.496t-39.488 95.488 26.016 100 82.016 63.008z" /></svg>