<?xml version="1.0" standalone="no"?><!DOCTYPE svg PUBLIC "-//W3C//DTD SVG 1.1//EN" "http://www.w3.org/Graphics/SVG/1.1/DTD/svg11.dtd"><svg class="icon" width="200px" height="200.00px" viewBox="0 0 1024 1024" version="1.1" xmlns="http://www.w3.org/2000/svg"><path fill="#1296db" d="M256 128q-27.008 0.992-44.992 19.008T192 192v640q0.992 27.008 19.008 44.992T256 896h512q27.008-0.992 44.992-19.008T832 832V192q-0.992-27.008-19.008-44.992T768 128H256z m0-64h512q54.016 0.992 90.496 37.504T896 192v640q-0.992 54.016-37.504 90.496T768 960H256q-54.016-0.992-90.496-37.504T128 832V192q0.992-54.016 37.504-90.496T256 64z m128 128h256q14.016 0 23.008 8.992T672 224t-8.992 23.008T640 256h-256q-14.016 0-23.008-8.992T352 224t8.992-23.008T384 192z m128 640q-27.008-0.992-44.992-19.008T448.992 768t18.016-44.992T512 704.992t44.992 18.016 18.016 44.992-18.016 44.992T512 832z" /></svg>