<?xml version="1.0" standalone="no"?><!DOCTYPE svg PUBLIC "-//W3C//DTD SVG 1.1//EN" "http://www.w3.org/Graphics/SVG/1.1/DTD/svg11.dtd"><svg class="icon" width="200px" height="200.00px" viewBox="0 0 1024 1024" version="1.1" xmlns="http://www.w3.org/2000/svg"><path fill="#1296db" d="M256 640v192h640V384h-128v-64h151.008q10.016 0 15.488 0.992t9.504 3.008q8 4.992 12 12 2.016 4 3.008 9.504t0.992 15.488v494.016q0 10.016-0.992 15.488t-3.008 9.504q-4.992 8-12 12-4 2.016-9.504 3.008t-15.488 0.992H232.992q-10.016 0-15.488-0.992t-9.504-3.008q-8-4.992-12-12-2.016-4-3.008-9.504T192 855.008V640h64zM768 192H128v448h640V192z m64-23.008v494.016q0 10.016-0.992 15.488t-3.008 9.504q-4.992 8-12 12-4 2.016-9.504 3.008t-15.488 0.992H104.992q-10.016 0-15.488-0.992t-9.504-3.008q-8-4.992-12-12-2.016-4-3.008-9.504T64 663.008V168.992q0-10.016 0.992-15.488t3.008-9.504q4.992-8 12-12 4-2.016 9.504-3.008T104.992 128h686.016q10.016 0 15.488 0.992t9.504 3.008q7.008 4.992 12 12 2.016 4 3.008 9.504t0.992 15.488zM448 576q-68-2.016-112.992-47.008T288 416q2.016-68 47.008-112.992T448 256q68 2.016 112.992 47.008T608 416q-2.016 68-47.008 112.992T448 576z m0-64q40.992-0.992 68-28T543.008 416t-27.008-68T448 320.992t-68 27.008T352.992 416t27.008 68T448 512z" /></svg>