<?xml version="1.0" standalone="no"?><!DOCTYPE svg PUBLIC "-//W3C//DTD SVG 1.1//EN" "http://www.w3.org/Graphics/SVG/1.1/DTD/svg11.dtd"><svg class="icon" width="200px" height="200.00px" viewBox="0 0 1024 1024" version="1.1" xmlns="http://www.w3.org/2000/svg"><path fill="#1296db" d="M544 768v128h192q14.016 0 23.008 8.992T768 928t-8.992 23.008T736 960H288q-14.016 0-23.008-8.992T256 928t8.992-23.008T288 896h192v-128H192q-54.016-0.992-90.496-37.504T64 640V256q0.992-54.016 37.504-90.496T192 128h640q54.016 0.992 90.496 37.504T960 256v384q-0.992 54.016-37.504 90.496T832 768h-288zM192 192q-27.008 0.992-44.992 19.008T128 256v384q0.992 27.008 19.008 44.992T192 704h640q27.008-0.992 44.992-19.008T896 640V256q-0.992-27.008-19.008-44.992T832 192H192z" /></svg>