<?xml version="1.0" standalone="no"?><!DOCTYPE svg PUBLIC "-//W3C//DTD SVG 1.1//EN" "http://www.w3.org/Graphics/SVG/1.1/DTD/svg11.dtd"><svg class="icon" width="200px" height="200.00px" viewBox="0 0 1024 1024" version="1.1" xmlns="http://www.w3.org/2000/svg"><path fill="#1296db" d="M384 512q0.992-119.008 57.504-220t158.496-163.008q-98.016-6.016-184.512 34.016T269.984 281.024 196.48 453.024t17.504 187.008h188.992q-19.008-63.008-19.008-128z m-212.992 192q-63.008-138.016-34.496-280t139.488-244.992q112.992-100 257.504-113.504t274.496 63.488q-100.992 7.008-183.488 60t-130.496 142.016-46.496 187.008 51.488 186.016H171.008zM32 640h960q32 0 32 32t-32 32H32q-32 0-32-32t32-32z m128 128h384q14.016 0 23.008 8.992T576 800t-8.992 23.008T544 832H160q-14.016 0-23.008-8.992T128 800t8.992-23.008T160 768z m160 128h224q14.016 0 23.008 8.992T576 928q0 14.016-8.992 23.008T544 960h-224q-14.016-0.992-23.008-10.016T288 927.968q0-14.016 8.992-23.008t23.008-8.992z" /></svg>