<?xml version="1.0" standalone="no"?><!DOCTYPE svg PUBLIC "-//W3C//DTD SVG 1.1//EN" "http://www.w3.org/Graphics/SVG/1.1/DTD/svg11.dtd"><svg class="icon" width="200px" height="200.00px" viewBox="0 0 1024 1024" version="1.1" xmlns="http://www.w3.org/2000/svg"><path fill="#1296db" d="M240 240q-74.016 76.992-99.488 176.512t4 202.016 104.992 172.992 179.008 94.016 202.016-8.512 169.504-111.008q-116 28-227.488-3.008t-196-115.488-115.488-196-3.008-227.488z m182.016 362.016q112 108 259.008 112.512t266.016-95.488q-43.008 163.008-172.992 256.512t-298.016 82.496q-168-16-280.992-128.992t-128.992-280.992q-11.008-168 82.496-298.016t256.512-172.992q-100 119.008-95.488 266.016t112.512 259.008z" /></svg>