<?xml version="1.0" standalone="no"?><!DOCTYPE svg PUBLIC "-//W3C//DTD SVG 1.1//EN" "http://www.w3.org/Graphics/SVG/1.1/DTD/svg11.dtd"><svg class="icon" width="200px" height="200.00px" viewBox="0 0 1024 1024" version="1.1" xmlns="http://www.w3.org/2000/svg"><path fill="#1296db" d="M176 416q-48 0.992-79.488 32.512T64 528q0.992 48 32.512 79.488T176 640q48-0.992 79.488-32.512T288 528q-0.992-48-32.512-79.488T176 416z m0 64q20 0.992 33.504 14.496t13.504 33.504-13.504 33.504-33.504 13.504-33.504-13.504-13.504-33.504 13.504-33.504T176 480zM512 416q48 0.992 79.488 32.512T624 528q-0.992 48-32.512 79.488T512 640q-48-0.992-79.488-32.512T400 528q0.992-48 32.512-79.488T512 416z m0 64q-20 0.992-33.504 14.496t-13.504 33.504 13.504 33.504 33.504 13.504 33.504-13.504 13.504-33.504-13.504-33.504T512 480z m336-64q48 0.992 79.488 32.512T960 528q-0.992 48-32.512 79.488T848 640q-48-0.992-79.488-32.512T736 528q0.992-48 32.512-79.488T848 416z m0 64q-20 0.992-33.504 14.496t-13.504 33.504 13.504 33.504 33.504 13.504 33.504-13.504 13.504-33.504-13.504-33.504T848 480z" /></svg>