<?xml version="1.0" standalone="no"?><!DOCTYPE svg PUBLIC "-//W3C//DTD SVG 1.1//EN" "http://www.w3.org/Graphics/SVG/1.1/DTD/svg11.dtd"><svg class="icon" width="200px" height="200.00px" viewBox="0 0 1024 1024" version="1.1" xmlns="http://www.w3.org/2000/svg"><path fill="#1296db" d="M438.016 256q-50.016 0-75.008 4T320 274.016q-30.016 16-46.016 46.016-10.016 18.016-14.016 43.008t-4 75.008v276q0 50.016 4 75.008t14.016 43.008q16 30.016 46.016 46.016 18.016 10.016 43.008 14.016t75.008 4h148q50.016 0 75.008-4t43.008-14.016q30.016-16 46.016-46.016 10.016-18.016 14.016-43.008t4-75.008v-276q0-50.016-4-75.008t-14.016-43.008q-16-30.016-46.016-46.016-18.016-10.016-43.008-14.016T586.016 256h-148z m0-64h148q62.016 0 94.016 6.496t54.016 19.488q47.008 24.992 72 72 12.992 22.016 19.488 54.016t6.496 94.016v276q0 62.016-6.496 94.016t-19.488 54.016q-24.992 47.008-72 72-22.016 12.992-54.016 19.488t-94.016 6.496h-148q-62.016 0-94.016-6.496t-54.016-19.488q-47.008-24.992-72-72-12.992-22.016-19.488-54.016T192 714.016v-276q0-62.016 6.496-94.016t19.488-54.016q24.992-47.008 72-72 22.016-12.992 54.016-19.488T438.016 192zM512 320q32 0 32 32v128q0 32-32 32t-32-32v-128q0-32 32-32z m32-96q0 14.016-8.992 23.008T512 256t-23.008-8.992T480 224V160q0-14.016-8.992-23.008T448 128h-96q-14.016 0-23.008-8.992T320 96t8.992-23.008T352 64h96q40.992 0.992 68 28T544 160v64z" /></svg>