<?xml version="1.0" standalone="no"?><!DOCTYPE svg PUBLIC "-//W3C//DTD SVG 1.1//EN" "http://www.w3.org/Graphics/SVG/1.1/DTD/svg11.dtd"><svg class="icon" width="200px" height="200.00px" viewBox="0 0 1024 1024" version="1.1" xmlns="http://www.w3.org/2000/svg"><path fill="#1296db" d="M512 128v64H256q-27.008 0.992-44.992 19.008T192 256v512q0.992 27.008 19.008 44.992T256 832h512q27.008-0.992 44.992-19.008T832 768v-256h64v256q-0.992 54.016-37.504 90.496T768 896H256q-54.016-0.992-90.496-37.504T128 768V256q0.992-54.016 37.504-90.496T256 128h256z m256 256q54.016-0.992 90.496-37.504T896 256q-0.992-54.016-37.504-90.496T768 128q-54.016 0.992-90.496 37.504T640 256q0.992 54.016 37.504 90.496T768 384z m0 64q-82.016-2.016-136-56T576 256q2.016-82.016 56-136T768 64q82.016 2.016 136 56T960 256q-2.016 82.016-56 136T768 448z" /></svg>