<?xml version="1.0" standalone="no"?><!DOCTYPE svg PUBLIC "-//W3C//DTD SVG 1.1//EN" "http://www.w3.org/Graphics/SVG/1.1/DTD/svg11.dtd"><svg class="icon" width="200px" height="200.00px" viewBox="0 0 1024 1024" version="1.1" xmlns="http://www.w3.org/2000/svg"><path fill="#1296db" d="M192 128v768h640V128H192zM160 64h704q14.016 0 23.008 8.992T896 96v832q0 14.016-8.992 23.008T864 960H160q-14.016 0-23.008-8.992T128 928V96q0-14.016 8.992-23.008T160 64z m512 64h64v768h-64V128zM96 192h128q32 0 32 32T224 256H96Q64 256 64 224t32-32z m0 192h128q32 0 32 32t-32 32H96q-32 0-32-32t32-32z m0 192h128q32 0 32 32t-32 32H96q-32 0-32-32t32-32z m0 192h128q32 0 32 32t-32 32H96q-32 0-32-32t32-32z" /></svg>