<?xml version="1.0" standalone="no"?><!DOCTYPE svg PUBLIC "-//W3C//DTD SVG 1.1//EN" "http://www.w3.org/Graphics/SVG/1.1/DTD/svg11.dtd"><svg class="icon" width="200px" height="200.00px" viewBox="0 0 1024 1024" version="1.1" xmlns="http://www.w3.org/2000/svg"><path fill="#1296db" d="M512 896q163.008-4 271.488-112.512T896 512q-4-163.008-112.512-271.488T512 128q-163.008 4-271.488 112.512T128 512q4 163.008 112.512 271.488T512 896z m0 64q-190.016-4.992-316.512-131.488T64 512q4.992-190.016 131.488-316.512T512 64q190.016 4.992 316.512 131.488T960 512q-4.992 190.016-131.488 316.512T512 960zM192 512q3.008-136 93.504-226.496T512 192q136 3.008 226.496 93.504T832 512q0 14.016-8.992 23.008T800 544t-23.008-8.992T768 512q-3.008-108.992-75.008-180.992T512 256q-108.992 3.008-180.992 75.008T256 512q0 14.016-8.992 23.008T224 544t-23.008-8.992T192 512z m378.016 116q28 22.016 35.488 55.488t-8.992 64.992-48.512 44.512-66.016 1.504-52-40-12.512-64 31.008-58.016 61.504-24.512l60.992-188q6.016-16.992 23.488-20.992t30.016 9.504 6.496 31.488z m-68 106.016q12.992 4 24.512-1.504t15.488-18.496-1.504-24.512-18.496-15.488-24.512 1.504-15.488 18.496 1.504 24.512 18.496 15.488z" /></svg>