<?xml version="1.0" standalone="no"?><!DOCTYPE svg PUBLIC "-//W3C//DTD SVG 1.1//EN" "http://www.w3.org/Graphics/SVG/1.1/DTD/svg11.dtd"><svg class="icon" width="200px" height="200.00px" viewBox="0 0 1024 1024" version="1.1" xmlns="http://www.w3.org/2000/svg"><path fill="#1296db" d="M192 128v704h384V128H192zM160 64h448q14.016 0 23.008 8.992T640 96v768q0 14.016-8.992 23.008T608 896H160q-14.016 0-23.008-8.992T128 864V96q0-14.016 8.992-23.008T160 64z m96 192h256v64H256V256z m0 192h256v64H256v-64z m0 192h256v64H256v-64z m384-128h128v64h-128v-64z m0 128h128v64h-128v-64zM64 832h896v64H64v-64z m576-448v448h192V384h-192z m-32-64h256q14.016 0 23.008 8.992T896 352v512q0 14.016-8.992 23.008T864 896h-256q-14.016 0-23.008-8.992T576 864V352q0-14.016 8.992-23.008T608 320z" /></svg>