<?xml version="1.0" standalone="no"?><!DOCTYPE svg PUBLIC "-//W3C//DTD SVG 1.1//EN" "http://www.w3.org/Graphics/SVG/1.1/DTD/svg11.dtd"><svg class="icon" width="200px" height="200.00px" viewBox="0 0 1024 1024" version="1.1" xmlns="http://www.w3.org/2000/svg"><path fill="#1296db" d="M544 895.008q60-4.992 115.008-28t100.992-62.016l-183.008-183.008q-15.008 8.992-32.992 14.016v259.008z m260.992-135.008q39.008-46.016 62.016-100.992T895.008 544h-259.008q-4.992 18.016-14.016 32.992zM895.008 480q-4.992-60-28-115.008T804.992 264l-183.008 183.008q8.992 15.008 14.016 32.992h259.008zM760 219.008q-46.016-39.008-100.992-62.016T544 128.992v259.008q18.016 4.992 32.992 14.016zM480 128.992q-60 4.992-115.008 28T264 219.008l183.008 183.008q15.008-8.992 32.992-14.016V128.992zM219.008 264q-39.008 46.016-62.016 100.992T128.992 480h259.008q4.992-18.016 14.016-32.992zM128.992 544q4.992 60 28 115.008t62.016 100.992l183.008-183.008q-8.992-16-14.016-32.992H128.992z m135.008 260.992q46.016 39.008 100.992 62.016t115.008 28v-259.008q-16.992-4.992-32.992-14.016zM512 960q-190.016-4.992-316.512-131.488T64 512q4.992-190.016 131.488-316.512T512 64q190.016 4.992 316.512 131.488T960 512q-4.992 190.016-131.488 316.512T512 960z m0-384q27.008-0.992 44.992-19.008T575.008 512t-18.016-44.992T512 448.992t-44.992 18.016T448.992 512t18.016 44.992T512 576z" /></svg>