<?xml version="1.0" standalone="no"?><!DOCTYPE svg PUBLIC "-//W3C//DTD SVG 1.1//EN" "http://www.w3.org/Graphics/SVG/1.1/DTD/svg11.dtd"><svg class="icon" width="200px" height="200.00px" viewBox="0 0 1024 1024" version="1.1" xmlns="http://www.w3.org/2000/svg"><path fill="#1296db" d="M602.016 240q60-56 136.512-56t135.488 56q56 60 56 136.512T874.016 512l-316.992 316.992q-79.008 75.008-180.992 75.008t-180.992-75.008q-75.008-79.008-75.008-180.992t75.008-180.992l407.008-408 46.016 46.016-408 407.008q-56 59.008-56 135.488t56 136.512q60 56 136.512 56t135.488-56l316.992-316.992q36.992-40 36.992-91.008t-36.992-90.016q-40-38.016-91.008-38.016t-90.016 38.016l-294.016 294.016q-12.992 12.992-8.512 31.008t22.496 22.496 31.008-8.512l294.016-294.016 44.992 44.992-294.016 294.016q-18.016 19.008-43.008 26.016t-50.496 0.512-43.488-24.512-24.512-44 0.512-50.496 24.992-42.496z" /></svg>