<?xml version="1.0" standalone="no"?><!DOCTYPE svg PUBLIC "-//W3C//DTD SVG 1.1//EN" "http://www.w3.org/Graphics/SVG/1.1/DTD/svg11.dtd"><svg class="icon" width="200px" height="200.00px" viewBox="0 0 1024 1024" version="1.1" xmlns="http://www.w3.org/2000/svg"><path fill="#1296db" d="M598.016 832H328q-106.016 0.992-180-66.016T64 592.992q-4-106.016 60-182.016t170.016-90.016q62.016-118.016 179.488-166.496t245.504-8.512q126.016 44.992 191.008 154.016t44.992 240.992q-26.016 131.008-124.512 211.488t-232.512 79.488z m-271.008-64h272q110.016 0.992 190.496-64.512t101.504-173.504q18.016-108-35.488-197.504t-156.512-125.504q-104.992-32.992-200.992 6.496t-147.008 136.512l-16 31.008-35.008 4q-79.008 10.016-127.008 67.488T128 588.992q8 80 63.488 130.016T326.976 768z" /></svg>