<?xml version="1.0" standalone="no"?><!DOCTYPE svg PUBLIC "-//W3C//DTD SVG 1.1//EN" "http://www.w3.org/Graphics/SVG/1.1/DTD/svg11.dtd"><svg class="icon" width="200px" height="200.00px" viewBox="0 0 1024 1024" version="1.1" xmlns="http://www.w3.org/2000/svg"><path fill="#1296db" d="M79.008 432L592 944.992q7.008 7.008 16.512 8.512t18.496-2.496l252.992-108q16-7.008 19.008-23.488t-8.992-28.512l-152.992-154.016q-8-7.008-18.016-8.992t-19.008 3.008l-70.016 35.008-272-272 35.008-70.016q4.992-8.992 3.008-19.008t-8.992-18.016L232.992 133.984q-12-12-28.512-8.992t-23.488 19.008l-108 252.992q-4 8.992-2.496 18.496t8.512 16.512z m60.992-29.984l80.992-190.016 104.992 104-46.016 91.008L616.96 744l91.008-46.016 104 104.992-190.016 80.992zM512 320V256q108.992 3.008 180.992 75.008T768 512h-64q-2.016-82.016-56-136T512 320z m0-192V64q190.016 4.992 316.512 131.488T960 512h-64q-4-163.008-112.512-271.488T512 128z" /></svg>