<?xml version="1.0" standalone="no"?><!DOCTYPE svg PUBLIC "-//W3C//DTD SVG 1.1//EN" "http://www.w3.org/Graphics/SVG/1.1/DTD/svg11.dtd"><svg class="icon" width="200px" height="200.00px" viewBox="0 0 1024 1024" version="1.1" xmlns="http://www.w3.org/2000/svg"><path fill="#1296db" d="M160 160v704h704V160H160zM128 96h768q14.016 0 23.008 8.992T928 128v768q0 14.016-8.992 23.008T896 928H128q-14.016 0-23.008-8.992T96 896V128q0-14.016 8.992-23.008T128 96z m256 192q64 0 64 64t-64 64q-64 0-64-64t64-64zM184.992 876.992l-50.016-39.008 216-282.016q24-31.008 63.488-36t70.496 18.016l124.992 100.992q11.008 8 23.488 6.496t21.504-11.488l216-270.016 50.016 40-216 270.016q-24.992 31.008-64.512 35.008t-70.496-20l-124-100q-11.008-8-23.488-6.496t-20.512 12.512z" /></svg>