<?xml version="1.0" standalone="no"?><!DOCTYPE svg PUBLIC "-//W3C//DTD SVG 1.1//EN" "http://www.w3.org/Graphics/SVG/1.1/DTD/svg11.dtd"><svg class="icon" width="200px" height="200.00px" viewBox="0 0 1024 1024" version="1.1" xmlns="http://www.w3.org/2000/svg"><path fill="#1296db" d="M512 128q-163.008 4-271.488 112.512T128 512q4 163.008 112.512 271.488T512 896q163.008-4 271.488-112.512T896 512q-4-163.008-112.512-271.488T512 128z m0-64q190.016 4.992 316.512 131.488T960 512q-4.992 190.016-131.488 316.512T512 960q-190.016-4.992-316.512-131.488T64 512q4.992-190.016 131.488-316.512T512 64z m128 224q64 0 64 64t-64 64q-64 0-64-64t64-64zM215.008 791.008l-46.016-46.016 186.016-184.992q26.016-24.992 60-28t64 18.016l138.016 98.016q8.992 7.008 20 6.016t20-8l250.016-224 42.016 48-248.992 224q-27.008 22.016-59.488 24t-60.512-18.016l-139.008-98.016q-8.992-7.008-20.512-6.016t-20.512 8.992z" /></svg>