<?xml version="1.0" standalone="no"?><!DOCTYPE svg PUBLIC "-//W3C//DTD SVG 1.1//EN" "http://www.w3.org/Graphics/SVG/1.1/DTD/svg11.dtd"><svg class="icon" width="200px" height="200.00px" viewBox="0 0 1024 1024" version="1.1" xmlns="http://www.w3.org/2000/svg"><path fill="#1296db" d="M448 68v64.992q-150.016 30.016-238.496 144T130.016 544q16 152 122.496 250.016T512 896.032q144-3.008 248-91.008t131.008-228.992h64q-30.016 178.016-162.496 284T480 958.048q-179.008-16.992-295.008-141.504T64 512.032q3.008-171.008 108.992-293.504T448 68.032z m128 28.992V448h351.008q-15.008-143.008-111.488-239.488t-239.488-111.488zM512 64v-31.008q98.016-6.016 188.512 27.488t160 103.008 103.008 160T991.008 512H512V64z" /></svg>