<?xml version="1.0" standalone="no"?><!DOCTYPE svg PUBLIC "-//W3C//DTD SVG 1.1//EN" "http://www.w3.org/Graphics/SVG/1.1/DTD/svg11.dtd"><svg class="icon" width="200px" height="200.00px" viewBox="0 0 1024 1024" version="1.1" xmlns="http://www.w3.org/2000/svg"><path fill="#1296db" d="M512 512q82.016-2.016 136-56T704 320q-2.016-82.016-56-136T512 128q-82.016 2.016-136 56T320 320q2.016 82.016 56 136T512 512z m0 64q-108.992-3.008-180.992-75.008T256 320q3.008-108.992 75.008-180.992T512 64q108.992 3.008 180.992 75.008T768 320q-3.008 108.992-75.008 180.992T512 576z m0-64q14.016 0 23.008 8.992T544 544v256q0 14.016-8.992 23.008T512 832t-23.008-8.992T480 800v-256q0-14.016 8.992-23.008T512 512z m-128 136.992v64.992q-87.008 15.008-139.008 39.488T192 799.968q3.008 31.008 92.512 62.496T512 895.968q138.016-2.016 227.488-33.504T832 799.968q-0.992-22.016-52.992-46.496T640 713.984v-64.992q114.016 16.992 184 57.504T896 800q-4 68-112.512 112.992T512 960q-163.008-2.016-271.488-47.008T128 800q2.016-52.992 72-93.504T384 648.992z" /></svg>