<?xml version="1.0" standalone="no"?><!DOCTYPE svg PUBLIC "-//W3C//DTD SVG 1.1//EN" "http://www.w3.org/Graphics/SVG/1.1/DTD/svg11.dtd"><svg class="icon" width="200px" height="200.00px" viewBox="0 0 1024 1024" version="1.1" xmlns="http://www.w3.org/2000/svg"><path fill="#1296db" d="M176 64h672q48 0.992 79.488 32.512T960 176v672q-0.992 48-32.512 79.488T848 960h-672q-48-0.992-79.488-32.512T64 848v-672Q64.992 128 96.512 96.512T176 64z m151.008 174.016q-116 79.008-143.488 208t45.504 248.992q80 115.008 208.992 142.496t248-46.496q14.016-8 24.992-18.016 6.016-4.992 7.008-12t-3.008-12.992l-15.008-23.008q-11.008-16.992-29.504-20.992t-35.488 7.008q-84.992 52-176.512 32.512t-147.488-101.504q-52.992-84.992-33.504-176.512t101.504-149.504q66.016-40.992 140.992-36.992t136 52.992q2.016 0.992 3.008 4 4.992 6.016 3.008 12.992t-8 12l-196.992 128.992q-16.992 11.008-20.992 29.504t6.016 35.488l16 24q4.992 7.008 12 8.512t14.016-2.496l308-200q12-10.016 7.008-24v-0.992l-15.008-27.008q-80-114.016-208.992-141.504t-248 46.496z m460 266.976l-62.016 40q-7.008 4.992-8.512 12t3.488 12.992l40 62.016q4.992 7.008 12 8.512t12.992-3.488l31.008-20q20-12.992 24.512-34.496t-8.512-41.504l-20-31.008q-4.992-6.016-12-7.488t-12.992 2.496z" /></svg>