<?xml version="1.0" standalone="no"?><!DOCTYPE svg PUBLIC "-//W3C//DTD SVG 1.1//EN" "http://www.w3.org/Graphics/SVG/1.1/DTD/svg11.dtd"><svg class="icon" width="200px" height="200.00px" viewBox="0 0 1024 1024" version="1.1" xmlns="http://www.w3.org/2000/svg"><path fill="#1296db" d="M160 224q-14.016 0-23.008 8.992T128 256v512q0 14.016 8.992 23.008T160 800h704q14.016 0 23.008-8.992T896 768V256q0-14.016-8.992-23.008T864 224H160z m0-64h704q40.992 0.992 68 28T960 256v512q-0.992 40.992-28 68T864 864H160q-40.992-0.992-68-28T64 768V256q0.992-40.992 28-68T160 160z m544 160q27.008 0.992 44.992 19.008T767.008 384t-18.016 44.992-44.992 18.016-44.992-18.016T640.992 384t18.016-44.992T704 320zM288 448h256q32 0 32 32t-32 32H288q-32 0-32-32t32-32z m0 128h256q32 0 32 32t-32 32H288q-32 0-32-32t32-32z" /></svg>