<?xml version="1.0" standalone="no"?><!DOCTYPE svg PUBLIC "-//W3C//DTD SVG 1.1//EN" "http://www.w3.org/Graphics/SVG/1.1/DTD/svg11.dtd"><svg class="icon" width="200px" height="200.00px" viewBox="0 0 1024 1024" version="1.1" xmlns="http://www.w3.org/2000/svg"><path fill="#1296db" d="M608 224V160q0-14.016-8.992-23.008T576 128t-23.008 8.992T544 160v336h27.008q20 0 36.992-12V224z m100.992 160q-20 0-36.992 12V384h64V224q0-14.016-8.992-23.008T704 192t-23.008 8.992T672 224v160h36.992z m75.008 0q20.992 0 39.488 8.992t32 24.992 18.496 35.488 0.992 40.512l-60 324q-7.008 34.016-32.992 55.488t-62.016 22.496h-416q-36-0.992-62.016-22.496T208.96 817.984L148.96 493.984q-4-20.992 0.992-40.512t18.496-35.488 32-24.992T239.936 384h-16V224q0.992-36.992 24-63.488t59.488-31.008 65.504 14.496 40 55.008q32.992-12.992 67.008-2.016V160q0.992-36.992 24-63.488t59.488-31.008 65.504 14.496 40 55.008q22.016-8.992 45.504-6.496t43.488 16 31.008 34.496T799.936 224v160h-16z m-112.992 128q-19.008 23.008-44.992 35.488t-55.008 12.512h-118.016q-28.992 0-55.008-12.512T352.992 512H352v-2.016q-6.016-7.008-10.016-15.008l-27.008-47.008H239.968q-12.992 0-22.016 10.496t-6.016 23.488l28.992 158.016h542.016l28.992-158.016q3.008-12.992-6.016-23.488t-22.016-10.496h-75.008l-27.008 47.008q-4.992 8-10.016 15.008V512h-0.992zM480 288q0-14.016-8.992-23.008T448 256t-23.008 8.992T416 288v196q16.992 12 36.992 12H480V288z m-128 96V224q0-14.016-8.992-23.008T320 192t-23.008 8.992T288 224v160h27.008q20 0 36.992 12V384zM252.992 704l19.008 102.016q3.008 11.008 11.488 18.496T304 832h416q12 0 20.512-7.488t11.488-18.496L771.008 704H252.992z" /></svg>