<?xml version="1.0" standalone="no"?><!DOCTYPE svg PUBLIC "-//W3C//DTD SVG 1.1//EN" "http://www.w3.org/Graphics/SVG/1.1/DTD/svg11.dtd"><svg class="icon" width="200px" height="200.00px" viewBox="0 0 1024 1024" version="1.1" xmlns="http://www.w3.org/2000/svg"><path fill="#1296db" d="M480 896v-256H192v-64h288v-256H192v576h288z m64 0h288V320h-288v256h288v64h-288v256zM128 256h768v672q0 14.016-8.992 23.008T864 960H160q-14.016 0-23.008-8.992T128 928V256zM96 256h832q32 0 32 32t-32 32H96q-32 0-32-32t32-32z m320 0q27.008-0.992 44.992-19.008T479.008 192t-18.016-44.992T416 128.992t-44.992 18.016T352.992 192t18.016 44.992T416 256z m0 64q-54.016-0.992-90.496-37.504T288 192q0.992-54.016 37.504-90.496T416 64q54.016 0.992 90.496 37.504T544 192q-0.992 54.016-37.504 90.496T416 320z m192-64q27.008-0.992 44.992-19.008T671.008 192t-18.016-44.992T608 128.992t-44.992 18.016T544.992 192t18.016 44.992T608 256z m0 64q-54.016-0.992-90.496-37.504T480 192q0.992-54.016 37.504-90.496T608 64q54.016 0.992 90.496 37.504T736 192q-0.992 54.016-37.504 90.496T608 320z" /></svg>