<?xml version="1.0" standalone="no"?><!DOCTYPE svg PUBLIC "-//W3C//DTD SVG 1.1//EN" "http://www.w3.org/Graphics/SVG/1.1/DTD/svg11.dtd"><svg class="icon" width="200px" height="200.00px" viewBox="0 0 1024 1024" version="1.1" xmlns="http://www.w3.org/2000/svg"><path fill="#1296db" d="M224 318.016v578.016h576V318.016l-247.008-202.016q-19.008-15.008-40.992-15.008t-40.992 15.008z m368.992-252l259.008 212q12 10.016 12 24.992V928q0 14.016-8.992 23.008T832 960H192q-14.016 0-23.008-8.992T160 928V303.008q0-15.008 12-24.992l259.008-212q36.992-28.992 80.992-28.992t80.992 28.992zM512 448q27.008-0.992 44.992-19.008T575.008 384t-18.016-44.992T512 320.992t-44.992 18.016T448.992 384t18.016 44.992T512 448z m0 64q-54.016-0.992-90.496-37.504T384 384q0.992-54.016 37.504-90.496T512 256q54.016 0.992 90.496 37.504T640 384q-0.992 54.016-37.504 90.496T512 512z" /></svg>