<?xml version="1.0" standalone="no"?><!DOCTYPE svg PUBLIC "-//W3C//DTD SVG 1.1//EN" "http://www.w3.org/Graphics/SVG/1.1/DTD/svg11.dtd"><svg class="icon" width="200px" height="200.00px" viewBox="0 0 1024 1024" version="1.1" xmlns="http://www.w3.org/2000/svg"><path fill="#1296db" d="M256 768H104.992q-10.016 0-15.488-0.992t-9.504-3.008q-8-4.992-12-12-2.016-4-3.008-9.504T64 727.008V379.008q0-31.008 3.488-47.008t9.504-27.008q12.992-23.008 36-36 11.008-6.016 27.008-9.504T187.008 256H256V64h512v192h68.992q31.008 0 47.008 3.488t27.008 9.504q23.008 12.992 36 36 6.016 11.008 9.504 27.008T960 379.008v348q0 10.016-0.992 15.488t-3.008 9.504q-4.992 8-12 12-4 2.016-9.504 3.008t-15.488 0.992H768v192H256v-192z m64-192v320h384V576H320z m-64 128v-192h512v192h128V379.008q0-20.992-0.992-30.016t-4.512-14.496-8.992-8.992-14.496-4.512-30.016-0.992H186.976q-20.992 0-30.016 0.992t-14.496 4.512-8.992 8.992-4.512 14.496-0.992 30.016V704h128z m64-448h384V128H320v128z m-64 128h64v64H256v-64z m128 0h64v64h-64v-64z" /></svg>