<?xml version="1.0" standalone="no"?><!DOCTYPE svg PUBLIC "-//W3C//DTD SVG 1.1//EN" "http://www.w3.org/Graphics/SVG/1.1/DTD/svg11.dtd"><svg class="icon" width="200px" height="200.00px" viewBox="0 0 1024 1024" version="1.1" xmlns="http://www.w3.org/2000/svg"><path fill="#1296db" d="M512 863.008l384-54.016V169.984L525.984 222.976q-14.016 2.016-28 0L127.968 169.984v639.008zM136.992 106.016l370.016 52.992q4.992 0.992 10.016 0L887.04 106.016q28.992-3.008 50.496 16t22.496 48v639.008q0 24-15.488 41.504t-39.488 21.504L517.056 927.04q-4.992 0.992-10.016 0L119.04 872.032q-24-4-39.488-21.504t-15.488-41.504V170.016q0.992-28.992 22.496-48t50.496-16zM480 192h64v704h-64V192z" /></svg>