<?xml version="1.0" standalone="no"?><!DOCTYPE svg PUBLIC "-//W3C//DTD SVG 1.1//EN" "http://www.w3.org/Graphics/SVG/1.1/DTD/svg11.dtd"><svg class="icon" width="200px" height="200.00px" viewBox="0 0 1024 1024" version="1.1" xmlns="http://www.w3.org/2000/svg"><path fill="#1296db" d="M288 384h448v64H288v-64z m96-128h256v64h-256V256z m-252.992 256H384v128h256v-128h252.992L721.984 192H301.984zM896 576h-192v128H320v-128H128v256h768v-256zM276 128h472q20 0.992 28.992 18.016l180 359.008q3.008 7.008 3.008 15.008v344q0 14.016-8.992 23.008t-23.008 8.992H96q-14.016 0-23.008-8.992T64 864.032v-344q0-8 3.008-15.008L247.008 146.016Q256 129.024 276 128z" /></svg>