<?xml version="1.0" standalone="no"?><!DOCTYPE svg PUBLIC "-//W3C//DTD SVG 1.1//EN" "http://www.w3.org/Graphics/SVG/1.1/DTD/svg11.dtd"><svg class="icon" width="200px" height="200.00px" viewBox="0 0 1024 1024" version="1.1" xmlns="http://www.w3.org/2000/svg"><path fill="#1296db" d="M256 448h512V160q0-14.016-8.992-23.008T736 128H288q-14.016 0-23.008 8.992T256 160v288z m0 64v352q0 14.016 8.992 23.008T288 896h448q14.016 0 23.008-8.992T768 864V512H256zM288 64h448q40.992 0.992 68 28T832 160v704q-0.992 40.992-28 68T736 960H288q-40.992-0.992-68-28T192 864V160q0.992-40.992 28-68T288 64z m32 224h64v96h-64V288z m0 288h64v96h-64v-96z" /></svg>