<?xml version="1.0" standalone="no"?><!DOCTYPE svg PUBLIC "-//W3C//DTD SVG 1.1//EN" "http://www.w3.org/Graphics/SVG/1.1/DTD/svg11.dtd"><svg class="icon" width="200px" height="200.00px" viewBox="0 0 1024 1024" version="1.1" xmlns="http://www.w3.org/2000/svg"><path fill="#1296db" d="M772 795.008q-87.008 78.016-197.504 96T357.984 864q-106.016-48-167.488-142.016T128 511.968h64q0.992 100.992 55.488 180.992t148.512 116.992q94.016 36 188.512 14.016t163.488-96h-92.992q-14.016 0-23.008-8.992t-8.992-22.496 8.992-22.496 23.008-10.016h148.992q12.992 0.992 22.016 10.016t10.016 22.016v148.992q-0.992 14.016-10.016 23.008t-22.496 8.992-22.496-8.992-8.992-23.008v-50.016zM276 296h92.992q14.016 0 23.008 8.992t8.992 22.496-8.992 22.496-23.008 10.016H220q-12.992-0.992-22.016-10.016t-10.016-22.016V178.976q0.992-14.016 10.016-23.008t22.496-8.992 22.496 8.992 8.992 23.008v50.016q87.008-78.016 197.504-96T666.976 160q106.016 48 167.008 142.016T896 512.032h-64q-0.992-100.992-55.488-180.992t-148.512-116.992q-94.016-36-188.512-14.016t-163.488 96z" /></svg>