<?xml version="1.0" standalone="no"?><!DOCTYPE svg PUBLIC "-//W3C//DTD SVG 1.1//EN" "http://www.w3.org/Graphics/SVG/1.1/DTD/svg11.dtd"><svg class="icon" width="200px" height="200.00px" viewBox="0 0 1024 1024" version="1.1" xmlns="http://www.w3.org/2000/svg"><path fill="#1296db" d="M736 504q-24-0.992-39.488-16.512T681.024 448t15.488-39.488T736 393.024t39.488 15.488 15.488 39.488-15.488 39.488T736 504z m-224 0q-24-0.992-39.488-16.512T457.024 448t15.488-39.488T512 393.024t39.488 15.488 15.488 39.488-15.488 39.488T512 504z m-224 0q-24-0.992-39.488-16.512T233.024 448t15.488-39.488T288 393.024t39.488 15.488 15.488 39.488-15.488 39.488T288 504zM128 128v640h192v160l224-160h352V128H128z" /></svg>