<?xml version="1.0" standalone="no"?><!DOCTYPE svg PUBLIC "-//W3C//DTD SVG 1.1//EN" "http://www.w3.org/Graphics/SVG/1.1/DTD/svg11.dtd"><svg class="icon" width="200px" height="200.00px" viewBox="0 0 1024 1024" version="1.1" xmlns="http://www.w3.org/2000/svg"><path fill="#1296db" d="M384 960v-64h192v64h-192z m448-544q0 80-33.504 150.496T704 687.008q-28.992 24-46.496 56.512T640 814.016v18.016H320v-14.016q0-36.992-14.496-70.016t-42.496-55.008q-79.008-63.008-112.992-154.496t-16-190.496q20.992-104 93.504-178.496t176.512-97.504q79.008-16.992 156 0.992t140 68.992 97.504 122.016T832.032 416zM288 448q0.992-100.992 52.512-161.504T480 224V160q-116.992 3.008-185.504 82.496T224 448h64z" /></svg>