<?xml version="1.0" standalone="no"?><!DOCTYPE svg PUBLIC "-//W3C//DTD SVG 1.1//EN" "http://www.w3.org/Graphics/SVG/1.1/DTD/svg11.dtd"><svg class="icon" width="200px" height="200.00px" viewBox="0 0 1024 1024" version="1.1" xmlns="http://www.w3.org/2000/svg"><path fill="#1296db" d="M704 704h64v192H256v-192h64v64h384v-64z m188.992-152q3.008 11.008 3.008 24-0.992 40.992-28 68T800 671.008t-68-27.008T704 576q-0.992 40.992-28 68T608 671.008t-68-27.008T512 576q-0.992 40.992-28 68T416 671.008t-68-27.008T320 576q-0.992 40.992-28 68T224 671.008t-68-27.008T128 576q0-12.992 3.008-24L192 128h640z" /></svg>