<?xml version="1.0" standalone="no"?><!DOCTYPE svg PUBLIC "-//W3C//DTD SVG 1.1//EN" "http://www.w3.org/Graphics/SVG/1.1/DTD/svg11.dtd"><svg class="icon" width="200px" height="200.00px" viewBox="0 0 1024 1024" version="1.1" xmlns="http://www.w3.org/2000/svg"><path fill="#1296db" d="M764 255.008q62.016 64 87.008 148.992H960v192h-108.992q-24.992 84.992-87.008 148.992l55.008 95.008-166.016 96-55.008-95.008q-86.016 22.016-172 0l-55.008 95.008-166.016-96 55.008-95.008q-62.016-64-87.008-148.992H63.968v-192h108.992q24.992-84.992 87.008-148.992L204.96 160l166.016-96 55.008 95.008q86.016-22.016 172 0L652.992 64l166.016 96zM704 500q-2.016-82.016-56-136T512 308q-82.016 2.016-136 56T320 500q2.016 82.016 56 136t136 56q82.016-2.016 136-56t56-136z" /></svg>