<?xml version="1.0" standalone="no"?><!DOCTYPE svg PUBLIC "-//W3C//DTD SVG 1.1//EN" "http://www.w3.org/Graphics/SVG/1.1/DTD/svg11.dtd"><svg class="icon" width="200px" height="200.00px" viewBox="0 0 1024 1024" version="1.1" xmlns="http://www.w3.org/2000/svg"><path fill="#1296db" d="M224 128v704h576V128H224zM192 64h640q14.016 0 23.008 8.992T864 96v768q0 14.016-8.992 23.008T832 896H192q-14.016 0-23.008-8.992T160 864V96q0-14.016 8.992-23.008T192 64zM64 832h896v64H64v-64z m256-640h128v96h-128V192z m64 640h256v-64q-0.992-54.016-37.504-90.496T512 640q-54.016 0.992-90.496 37.504T384 768v64z m128-256q82.016 2.016 136 56T704 768v128H320v-128q2.016-82.016 56-136T512 576z m-192-192h128v96h-128v-96z m256-192h128v96h-128V192z m0 192h128v96h-128v-96z" /></svg>