<?xml version="1.0" standalone="no"?><!DOCTYPE svg PUBLIC "-//W3C//DTD SVG 1.1//EN" "http://www.w3.org/Graphics/SVG/1.1/DTD/svg11.dtd"><svg class="icon" width="200px" height="200.00px" viewBox="0 0 1024 1024" version="1.1" xmlns="http://www.w3.org/2000/svg"><path fill="#1296db" d="M512 578.016l-107.008 152.992q0.992 62.016-36 107.008t-98.016 56q-60.992 8.992-110.496-22.016t-68.512-90.016q-16.992-59.008 7.488-112.512t80.512-79.488q56.992-24 112.992-6.496t88.992 69.504l91.008-130.016L196.96 127.968q-8-11.008-5.504-23.488t13.504-20.512 23.488-5.504 20.512 13.504l392.992 560.992q34.016-52 89.504-69.504t112.512 6.496q56 26.016 80.512 79.488t7.488 112.512q-19.008 59.008-68.512 90.016t-110.496 22.016q-60-11.008-97.504-56t-36.512-107.008z m54.016-189.024l208.992-296.992q8-11.008 20.512-13.504t23.488 5.504 13.504 20.512-5.504 23.488l-220.992 316.992-39.008-56h-0.992zM190.016 815.008q22.016 15.008 47.008 17.504t48.992-8.512 38.496-32 16.992-47.008-8.512-48.992-32.992-38.016q-34.016-22.016-71.008-15.008t-60 40-16.992 70.016 38.016 62.016z m644 0q22.016-15.008 32.992-38.016t8.992-49.504-16.512-47.488-39.008-32-50.016-8.512-46.496 18.496q-32 24-38.016 61.504t16.992 70.016 60 39.488 71.008-14.016z" /></svg>