<?xml version="1.0" standalone="no"?><!DOCTYPE svg PUBLIC "-//W3C//DTD SVG 1.1//EN" "http://www.w3.org/Graphics/SVG/1.1/DTD/svg11.dtd"><svg class="icon" width="200px" height="200.00px" viewBox="0 0 1024 1024" version="1.1" xmlns="http://www.w3.org/2000/svg"><path fill="#1296db" d="M704 288h131.008q12.992 0 21.504 8t10.496 20.992L886.016 512h-64l-16-160H704v96q0 14.016-8.992 23.008T672 480t-23.008-8.992T640 448v-96h-256v96q0 14.016-8.992 23.008T352 480t-23.008-8.992T320 448v-96H217.984L166.976 864h344.992v64H130.976q-14.016 0-23.488-10.496t-7.488-24.512l56.992-576q2.016-12.992 10.496-20.992T188.992 288H320v-22.016q2.016-86.016 56-143.008T512 63.968q82.016 2.016 136 59.008T704 265.984V288z m-64 0v-22.016q-0.992-59.008-37.504-98.016T512 127.968q-54.016 0.992-90.496 40T384 265.984V288h256z m200.992 484L768 697.984V928q0 14.016-8.992 23.008T736 960t-23.008-8.992T704 928v-230.016l-72.992 74.016q-14.016 12.992-31.488 8t-22.016-22.496 7.488-30.496l128-128q10.016-10.016 23.008-10.016t23.008 10.016l128 128q12 12.992 7.488 30.496t-22.016 22.496-31.488-8z" /></svg>