<?xml version="1.0" standalone="no"?><!DOCTYPE svg PUBLIC "-//W3C//DTD SVG 1.1//EN" "http://www.w3.org/Graphics/SVG/1.1/DTD/svg11.dtd"><svg class="icon" width="200px" height="200.00px" viewBox="0 0 1024 1024" version="1.1" xmlns="http://www.w3.org/2000/svg"><path fill="#1296db" d="M864 410.016q50.016 28.992 75.488 79.008t19.008 107.488-42.016 100.992-90.496 61.504q-20.992 90.016-89.504 144.512t-160.512 56.512h-96q-14.016 0-23.008-8.992t-8.992-23.008 8.992-23.008 23.008-8.992h96q62.016-0.992 111.008-35.488t70.016-92.512H736q-14.016 0-23.008-8.992T704 736.032v-320q0-14.016 8.992-23.008t23.008-8.992h32q16 0 31.008 2.016-14.016-112-93.504-184T512 128.032q-114.016 2.016-193.504 74.016t-93.504 184q15.008-2.016 31.008-2.016h32q14.016 0 23.008 8.992t8.992 23.008v320q0 14.016-8.992 23.008T288 768.032H256q-67.008-0.992-116.992-39.488t-67.488-103.008 7.008-123.008 81.504-92.512q4-150.016 103.008-249.504t248.992-102.496q150.016 3.008 248.992 102.496t103.008 249.504zM256 448q-54.016 0.992-90.496 37.504T128 576q0.992 54.016 37.504 90.496T256 704v-256z m640 128q-0.992-54.016-37.504-90.496T768 448v256q54.016-0.992 90.496-37.504T896 576z" /></svg>