<?xml version="1.0" standalone="no"?><!DOCTYPE svg PUBLIC "-//W3C//DTD SVG 1.1//EN" "http://www.w3.org/Graphics/SVG/1.1/DTD/svg11.dtd"><svg class="icon" width="200px" height="200.00px" viewBox="0 0 1024 1024" version="1.1" xmlns="http://www.w3.org/2000/svg"><path fill="#1296db" d="M224 160q-27.008 0.992-44.992 19.008T160 224v576q0.992 27.008 19.008 44.992T224 864h576q27.008-0.992 44.992-19.008T864 800V224q-0.992-27.008-19.008-44.992T800 160H224z m0-64h576q54.016 0.992 90.496 37.504T928 224v576q-0.992 54.016-37.504 90.496T800 928H224q-54.016-0.992-90.496-37.504T96 800V224q0.992-54.016 37.504-90.496T224 96z m160 320q27.008-0.992 44.992-19.008T447.008 352t-18.016-44.992T384 288.992t-44.992 18.016T320.992 352t18.016 44.992T384 416z m0 64q-54.016-0.992-90.496-37.504T256 352q0.992-54.016 37.504-90.496T384 224q54.016 0.992 90.496 37.504T512 352q-0.992 54.016-37.504 90.496T384 480z m96-160h256q32 0 32 32t-32 32h-256q-32 0-32-32t32-32z m160 416q27.008-0.992 44.992-19.008T703.008 672t-18.016-44.992T640 608.992t-44.992 18.016T576.992 672t18.016 44.992T640 736z m0 64q-54.016-0.992-90.496-37.504T512 672q0.992-54.016 37.504-90.496T640 544q54.016 0.992 90.496 37.504T768 672q-0.992 54.016-37.504 90.496T640 800zM288 640h256q32 0 32 32t-32 32H288q-32 0-32-32t32-32z" /></svg>