<?xml version="1.0" standalone="no"?><!DOCTYPE svg PUBLIC "-//W3C//DTD SVG 1.1//EN" "http://www.w3.org/Graphics/SVG/1.1/DTD/svg11.dtd"><svg class="icon" width="200px" height="200.00px" viewBox="0 0 1024 1024" version="1.1" xmlns="http://www.w3.org/2000/svg"><path fill="#1296db" d="M624.992 64l222.016 128-43.008 75.008q22.016 26.016 40 56.992t30.016 64h86.016v256h-86.016q-24 67.008-70.016 120.992l43.008 75.008-222.016 128-43.008-75.008q-70.016 12.992-140 0l-43.008 75.008-222.016-128 43.008-75.008q-23.008-27.008-40.512-57.504t-29.504-63.488H63.936v-256h86.016q24-67.008 70.016-120.992L176.96 192l222.016-128 43.008 75.008q70.016-12.992 140 0z m24 87.008l-12 20-22.016 39.008-44.992-8q-58.016-11.008-116 0l-44.992 8-34.016-59.008-110.016 64 32.992 59.008-28.992 34.016q-38.016 44.992-58.016 100.992l-15.008 43.008H127.936v128h67.008l16 43.008q10.016 28.992 24 52.992t34.016 48l28.992 34.016-32.992 59.008 110.016 64 34.016-59.008 44.992 8q58.016 11.008 116 0l44.992-8 34.016 59.008 110.016-64-32.992-59.008 28.992-34.016q38.016-46.016 58.016-100.992l15.008-43.008h68v-128h-67.008l-16-43.008q-8.992-27.008-24-52.512t-34.016-48.512l-28.992-34.016 32.992-59.008zM512 292q95.008 2.016 158.496 65.504T736 516q-2.016 95.008-65.504 158.496T512 740q-95.008-2.016-158.496-65.504T288 516q2.016-95.008 65.504-158.496T512 292z m0 64q-68 2.016-112.992 47.008T352 516q2.016 68 47.008 112.992T512 676q68-2.016 112.992-47.008T672 516q-2.016-68-47.008-112.992T512 356z" /></svg>