<?xml version="1.0" standalone="no"?><!DOCTYPE svg PUBLIC "-//W3C//DTD SVG 1.1//EN" "http://www.w3.org/Graphics/SVG/1.1/DTD/svg11.dtd"><svg class="icon" width="200px" height="200.00px" viewBox="0 0 1024 1024" version="1.1" xmlns="http://www.w3.org/2000/svg"><path fill="#1296db" d="M680 348.992l-302.016 188q8 26.016 4.992 52.992l280 104.992q28.992-40 74.496-51.008t89.504 12 60.512 66.496-0.512 90.016-58.496 68.512-89.504 10.496-75.488-49.504-22.496-88l-280-104.992q-24 34.016-60.992 47.488t-76.512 3.008-64.992-40.512-29.504-70.496 15.008-75.008 56-52 75.488-12 68.512 33.504l302.016-188q-14.016-48 4.992-91.008t64-63.488 89.504-7.008 71.008 55.488 19.008 88-46.016 77.504-85.504 29.504-83.008-35.008z" /></svg>