<?xml version="1.0" standalone="no"?><!DOCTYPE svg PUBLIC "-//W3C//DTD SVG 1.1//EN" "http://www.w3.org/Graphics/SVG/1.1/DTD/svg11.dtd"><svg class="icon" width="200px" height="200.00px" viewBox="0 0 1024 1024" version="1.1" xmlns="http://www.w3.org/2000/svg"><path fill="#1296db" d="M512 387.008V448h406.016q15.008 0 24.512 12.992t5.504 28l-76 268q-19.008 63.008-68.992 100.512T687.04 896H337.024q-66.016-0.992-116-38.496t-68.992-100.512l-76-268q-4-15.008 5.504-28T106.048 448h342.016V117.984q0.992-18.016 16-27.008t31.008-0.992l14.016 7.008 3.008-0.992v3.008l232 126.016q16 10.016 15.488 29.504t-17.504 27.488z m0-70.016l144.992-66.016L512 171.968v144.992zM512 512H148.992l18.016 64h690.016l18.016-64H512.032zM184.992 640l28.992 99.008q12 42.016 45.504 67.008t77.504 26.016h350.016q44-0.992 77.504-26.016t45.504-67.008L839.008 640H184.992z" /></svg>