<?xml version="1.0" standalone="no"?><!DOCTYPE svg PUBLIC "-//W3C//DTD SVG 1.1//EN" "http://www.w3.org/Graphics/SVG/1.1/DTD/svg11.dtd"><svg class="icon" width="200px" height="200.00px" viewBox="0 0 1024 1024" version="1.1" xmlns="http://www.w3.org/2000/svg"><path fill="#1296db" d="M96 128h823.008q15.008 0 24.512 12.512t6.496 27.488l-112 448q-3.008 11.008-11.488 17.504T807.04 640H256.032v64h608q14.016 0 23.008 8.992t8.992 23.008-8.992 23.008-23.008 8.992h-672V192h-96q-14.016 0-23.008-8.992T64.032 160t8.992-23.008T96.032 128z m160 64v384h526.016l96-384H256z m112 736q-20-0.992-33.504-14.496t-13.504-33.504 13.504-33.504 33.504-13.504 33.504 13.504 13.504 33.504-13.504 33.504T368 928z m320 0q-20-0.992-33.504-14.496t-13.504-33.504 13.504-33.504 33.504-13.504 33.504 13.504 13.504 33.504-13.504 33.504T688 928z" /></svg>