<?xml version="1.0" standalone="no"?><!DOCTYPE svg PUBLIC "-//W3C//DTD SVG 1.1//EN" "http://www.w3.org/Graphics/SVG/1.1/DTD/svg11.dtd"><svg class="icon" width="200px" height="200.00px" viewBox="0 0 1024 1024" version="1.1" xmlns="http://www.w3.org/2000/svg"><path fill="#1296db" d="M432 928q-20-0.992-33.504-14.496t-13.504-33.504 13.504-33.504 33.504-13.504 33.504 13.504 13.504 33.504-13.504 33.504T432 928z m320 0q-20-0.992-33.504-14.496t-13.504-33.504 13.504-33.504 33.504-13.504 33.504 13.504 13.504 33.504-13.504 33.504T752 928zM96 128q-14.016 0-23.008-8.992T64 96t8.992-23.008T96 64h160q12 0 20.512 7.008t10.496 19.008l34.016 166.016h607.008q15.008 0 24.512 12t6.496 27.008l-96 448q-2.016 11.008-10.496 18.016t-20.512 7.008h-448q-12 0-20.512-7.008t-10.496-19.008L230.016 128.032H96z m314.016 576h396l82.016-384H333.024z m289.984-448L608 145.984 516 256h184z m-140.992-151.008q19.008-22.016 48.992-22.016t48.992 22.016L836 320h-456z" /></svg>