<?xml version="1.0" standalone="no"?><!DOCTYPE svg PUBLIC "-//W3C//DTD SVG 1.1//EN" "http://www.w3.org/Graphics/SVG/1.1/DTD/svg11.dtd"><svg class="icon" width="200px" height="200.00px" viewBox="0 0 1024 1024" version="1.1" xmlns="http://www.w3.org/2000/svg"><path fill="#1296db" d="M256 576v128h640v-128H256z m-32-64h704q14.016 0 23.008 8.992T960 544v192q0 14.016-8.992 23.008T928 768H224q-14.016 0-23.008-8.992T192 736v-192q0-14.016 8.992-23.008T224 512z m480 64h64v128h-64v-128zM256 64h64v320H256V64zM128 192h64v192H128V192zM64 512h64v256H64v-256z" /></svg>