<?xml version="1.0" standalone="no"?><!DOCTYPE svg PUBLIC "-//W3C//DTD SVG 1.1//EN" "http://www.w3.org/Graphics/SVG/1.1/DTD/svg11.dtd"><svg class="icon" width="200px" height="200.00px" viewBox="0 0 1024 1024" version="1.1" xmlns="http://www.w3.org/2000/svg"><path fill="#1296db" d="M418.016 871.008L152 604.992q-12 71.008-1.504 130.016t44.992 92.992 92.992 44.512 129.504-1.504z m72.992-18.016q63.008-20.992 120-55.488t104.512-82.016 82.016-104.512 55.488-120l-319.008-319.008q-64 20.992-121.504 56T307.52 309.984t-82.016 103.488-55.488 118.496z m380-434.976q12-71.008 1.504-129.504t-44.512-92.512T736 151.488t-130.016 2.496zM150.016 874.016Q64 781.024 88 602.528T260.992 265.024q159.008-148.992 339.008-175.008t274.016 60q86.016 94.016 60.992 272.992t-174.016 338.016q-159.008 148.992-338.016 174.016t-272.992-60.992zM602.016 376l23.008-22.016q10.016-8.992 22.496-8.992t22.016 9.504 9.504 22.016-8.992 22.496l-22.016 23.008 44.992 44.992q12.992 12.992 8 30.496t-22.496 22.496-30.496-8l-46.016-44.992L557.024 512l44.992 44.992q12.992 12.992 8.512 31.008t-22.496 22.496-31.008-8.512l-44.992-44.992-44.992 44.992 44.992 46.016q12.992 12.992 8 30.496t-22.496 22.496-30.496-8l-44.992-44.992-23.008 22.016q-12.992 12.992-31.008 8.512t-22.496-22.496 8.512-31.008l22.016-23.008-44.992-44.992q-12.992-12.992-8-30.496t22.496-22.496 30.496 8l46.016 44.992 44.992-44.992-44.992-44.992q-12.992-12.992-8.512-31.008t22.496-22.496 31.008 8.512l44.992 44.992 44.992-44.992-44.992-46.016q-8.992-10.016-8.992-22.496t9.504-22.016 22.016-9.504 22.496 8.992z" /></svg>