<?xml version="1.0" standalone="no"?><!DOCTYPE svg PUBLIC "-//W3C//DTD SVG 1.1//EN" "http://www.w3.org/Graphics/SVG/1.1/DTD/svg11.dtd"><svg class="icon" width="200px" height="200.00px" viewBox="0 0 1024 1024" version="1.1" xmlns="http://www.w3.org/2000/svg"><path fill="#1296db" d="M384 96q0-14.016 8.992-23.008T416 64t23.008 8.992T448 96v787.008q0 10.016-5.504 17.504t-14.496 11.488-18.496 2.016-16.512-8.992L96 608.032q-8.992-8.992-8.992-22.496T96 563.04q10.016-10.016 22.496-10.016t22.496 10.016L384 806.048V96.032z m192 44.992q0-10.016 5.504-17.504t14.496-11.488 18.496-2.016 16.512 8.992L928 415.968q8.992 8.992 8.992 22.496t-8.992 22.496q-10.016 10.016-22.496 10.016t-22.496-10.016L640 217.952v710.016q0 14.016-8.992 23.008t-23.008 8.992-23.008-8.992-8.992-23.008V140.96z" /></svg>