<?xml version="1.0" standalone="no"?><!DOCTYPE svg PUBLIC "-//W3C//DTD SVG 1.1//EN" "http://www.w3.org/Graphics/SVG/1.1/DTD/svg11.dtd"><svg class="icon" width="200px" height="200.00px" viewBox="0 0 1024 1024" version="1.1" xmlns="http://www.w3.org/2000/svg"><path fill="#1296db" d="M802.016 348.992l4 4.992q38.016 39.008 38.016 90.016t-38.016 91.008l-271.008 271.008q-19.008 18.016-42.016 28t-48.992 10.016-48.992-10.016-40.992-28l-4.992-4-19.008 108.992q-4 18.016-15.488 31.488t-28.512 19.008-34.496 0.992-30.496-16.512l-143.008-143.008q-12-12.992-16.512-30.496t0.992-34.496 19.008-28.512 31.488-15.488l108.992-19.008-4-4.992q-18.016-18.016-28-40.992t-10.016-48.992 10.016-48.992 28-42.016l271.008-271.008q19.008-18.016 42.016-28t48.992-10.016 48.992 10.016 40.992 28l4.992 4 19.008-108.992q4-18.016 15.488-31.008t28.992-18.496 34.496-1.504 30.016 16.992l142.016 143.008q12.992 12.992 16.992 30.016t-1.504 34.496-18.496 28.992-31.008 14.496zM252.992 548h447.008v2.016l60.992-60.992q18.016-18.016 19.008-44H352.992L262.976 535.04q-6.016 6.016-10.016 12.992z m0 64q4 7.008 10.016 12.992l136 136q20 19.008 45.504 19.008t44.512-19.008l148.992-148.992H253.024z m490.016-231.008l-118.016-118.016q-20-19.008-45.504-19.008t-44.512 19.008l-118.016 118.016h326.016zM124 756.992l143.008 143.008 24-136.992q2.016-12.992-7.488-22.496t-22.496-7.488zM756.992 124l-24 136.992q-2.016 12.992 7.488 22.496t22.496 7.488l136.992-24z" /></svg>