<?xml version="1.0" standalone="no"?><!DOCTYPE svg PUBLIC "-//W3C//DTD SVG 1.1//EN" "http://www.w3.org/Graphics/SVG/1.1/DTD/svg11.dtd"><svg class="icon" width="200px" height="200.00px" viewBox="0 0 1024 1024" version="1.1" xmlns="http://www.w3.org/2000/svg"><path fill="#1296db" d="M128 384h768v-64q-0.992-27.008-19.008-44.992T832 256H192q-27.008 0.992-44.992 19.008T128 320v64z m0 64v320q0.992 27.008 19.008 44.992T192 832h64V448H128z m192 384h384V448H320v384z m448 0h64q27.008-0.992 44.992-19.008T896 768V448h-128v384zM192 192h640q54.016 0.992 90.496 37.504T960 320v448q-0.992 54.016-37.504 90.496T832 896H192q-54.016-0.992-90.496-37.504T64 768V320q0.992-54.016 37.504-90.496T192 192z m192-64v64h256V128h-256z m0-64h256q27.008 0.992 44.992 19.008T704 128v64q-0.992 27.008-19.008 44.992T640 256h-256q-27.008-0.992-44.992-19.008T320 192V128q0.992-27.008 19.008-44.992T384 64z" /></svg>