<?xml version="1.0" standalone="no"?><!DOCTYPE svg PUBLIC "-//W3C//DTD SVG 1.1//EN" "http://www.w3.org/Graphics/SVG/1.1/DTD/svg11.dtd"><svg class="icon" width="200px" height="200.00px" viewBox="0 0 1024 1024" version="1.1" xmlns="http://www.w3.org/2000/svg"><path fill="#1296db" d="M512 704q82.016-2.016 136-56T704 512q-2.016-82.016-56-136T512 320q-82.016 2.016-136 56T320 512q2.016 82.016 56 136T512 704z m0 64q-108.992-3.008-180.992-75.008T256 512q3.008-108.992 75.008-180.992T512 256q108.992 3.008 180.992 75.008T768 512q-3.008 108.992-75.008 180.992T512 768z m0-704q14.016 0 23.008 8.992T544 96v64q0 14.016-8.992 23.008T512 192t-23.008-8.992T480 160V96q0-14.016 8.992-23.008T512 64z m0 768q14.016 0 23.008 8.992T544 864v64q0 14.016-8.992 23.008T512 960t-23.008-8.992T480 928v-64q0-14.016 8.992-23.008T512 832zM195.008 195.008q10.016-8.992 23.008-8.992t22.016 8.992L286.048 240q12 14.016 7.488 31.488t-22.016 22.016-31.488-7.488L195.04 240q-8.992-8.992-8.992-22.016t8.992-23.008z m543.008 543.008q10.016-8.992 23.008-8.992t23.008 8.992l44.992 46.016q8.992 8.992 8.992 22.016t-9.504 22.496-22.496 9.504-22.016-8.992l-46.016-44.992q-8.992-10.016-8.992-23.008t8.992-23.008zM64 512q0-14.016 8.992-23.008T96 480h64q14.016 0 23.008 8.992T192 512t-8.992 23.008T160 544H96q-14.016 0-23.008-8.992T64 512z m768 0q0-14.016 8.992-23.008T864 480h64q14.016 0 23.008 8.992T960 512t-8.992 23.008T928 544h-64q-14.016 0-23.008-8.992T832 512zM195.008 828.992q-8.992-10.016-8.992-23.008t8.992-22.016L240 737.952q10.016-8.992 23.008-8.992t22.496 9.504 9.504 22.496-8.992 23.008L240 828.96q-8.992 8.992-22.016 8.992t-23.008-8.992zM738.016 286.016q-8.992-10.016-8.992-23.008t8.992-23.008l46.016-44.992q8.992-8.992 22.016-8.992t22.496 9.504 9.504 22.496-8.992 22.016l-44.992 46.016q-10.016 8.992-23.008 8.992t-23.008-8.992z" /></svg>