<?xml version="1.0" standalone="no"?><!DOCTYPE svg PUBLIC "-//W3C//DTD SVG 1.1//EN" "http://www.w3.org/Graphics/SVG/1.1/DTD/svg11.dtd"><svg class="icon" width="200px" height="200.00px" viewBox="0 0 1024 1024" version="1.1" xmlns="http://www.w3.org/2000/svg"><path fill="#1296db" d="M32 704h960q14.016 0 23.008 8.992T1024 736t-8.992 23.008T992 768H32q-14.016 0-23.008-8.992T0 736t8.992-23.008T32 704z m256 128h448q32 0 32 32t-32 32H288q-32 0-32-32t32-32z m-128-192q4-150.016 103.008-248.992T512 288q150.016 4 248.992 103.008T864 640h-64q-3.008-122.016-84.512-203.488T512 352q-122.016 3.008-203.488 84.512T224 640H160zM512 64q14.016 0 23.008 8.992T544 96v96q0 14.016-8.992 23.008T512 224t-23.008-8.992T480 192V96q0-14.016 8.992-23.008T512 64z m407.008 168.992q10.016 10.016 10.016 22.496t-10.016 22.496l-68 68q-12.992 12.992-30.496 8t-22.496-22.496 8-30.496l68-68q10.016-10.016 22.496-10.016t22.496 10.016z m-814.016 0q10.016-10.016 22.496-10.016t22.496 10.016l68 68q12.992 12.992 8 30.496t-22.496 22.496-30.496-8L104.992 277.984q-10.016-10.016-10.016-22.496t10.016-22.496z" /></svg>