<?xml version="1.0" standalone="no"?><!DOCTYPE svg PUBLIC "-//W3C//DTD SVG 1.1//EN" "http://www.w3.org/Graphics/SVG/1.1/DTD/svg11.dtd"><svg class="icon" width="200px" height="200.00px" viewBox="0 0 1024 1024" version="1.1" xmlns="http://www.w3.org/2000/svg"><path fill="#1296db" d="M32 768h960q14.016 0 23.008 8.992T1024 800t-8.992 23.008T992 832H32q-14.016 0-23.008-8.992T0 800t8.992-23.008T32 768z m128.992-96q16-139.008 113.504-228.512T512 350.976q140 3.008 237.504 92.512T863.008 672h-64.992q-14.016-112-93.504-183.008T512 416q-112.992 2.016-192.512 72.992T225.984 672H160.992zM512 128q14.016 0 23.008 8.992T544 160v96q0 14.016-8.992 23.008T512 288t-23.008-8.992T480 256V160q0-14.016 8.992-23.008T512 128z m407.008 168.992q10.016 10.016 10.016 22.496t-10.016 22.496l-68 68q-12.992 12.992-30.496 8t-22.496-22.496 8-30.496l68-68q10.016-10.016 22.496-10.016t22.496 10.016z m-814.016 0q10.016-10.016 22.496-10.016t22.496 10.016l68 68q12.992 12.992 8 30.496t-22.496 22.496-30.496-8l-68-68q-10.016-10.016-10.016-22.496t10.016-22.496z" /></svg>