<?xml version="1.0" standalone="no"?><!DOCTYPE svg PUBLIC "-//W3C//DTD SVG 1.1//EN" "http://www.w3.org/Graphics/SVG/1.1/DTD/svg11.dtd"><svg class="icon" width="200px" height="200.00px" viewBox="0 0 1024 1024" version="1.1" xmlns="http://www.w3.org/2000/svg"><path fill="#1296db" d="M83.008 640q-40-140.992 5.504-273.504t163.488-218.496Q372 64 512 64t260 84q118.016 86.016 163.488 218.496T940.992 640h-67.008q40.992-122.016 4.992-240t-139.008-196Q635.968 128 512.48 128T283.968 204Q180.96 282.016 144.96 400t4.992 240H82.944zM32 704h960q32 0 32 32t-32 32H32q-32 0-32-32t32-32z m256 128h448q32 0 32 32t-32 32H288q-32 0-32-32t32-32z" /></svg>