<?xml version="1.0" standalone="no"?><!DOCTYPE svg PUBLIC "-//W3C//DTD SVG 1.1//EN" "http://www.w3.org/Graphics/SVG/1.1/DTD/svg11.dtd"><svg class="icon" width="200px" height="200.00px" viewBox="0 0 1024 1024" version="1.1" xmlns="http://www.w3.org/2000/svg"><path fill="#1296db" d="M352 160v70.016q-110.016 59.008-159.488 167.008t-22.496 228.992q31.008 120.992 124 194.496T512.032 896q124.992-2.016 218.016-75.488t124-194.496q27.008-120.992-22.496-228.992t-159.488-167.008V160q139.008 60.992 207.008 188.512t40.992 276.512q-32.992 148.992-144.512 240.512t-263.488 94.496q-152-3.008-264-94.496t-144-239.488q-27.008-150.016 40.992-277.504t207.008-188.512z m160-96q32 0 32 32v320q0 32-32 32t-32-32V96q0-32 32-32z" /></svg>