<?xml version="1.0" standalone="no"?><!DOCTYPE svg PUBLIC "-//W3C//DTD SVG 1.1//EN" "http://www.w3.org/Graphics/SVG/1.1/DTD/svg11.dtd"><svg class="icon" width="200px" height="200.00px" viewBox="0 0 1024 1024" version="1.1" xmlns="http://www.w3.org/2000/svg"><path fill="#1296db" d="M352 896h320q32 0 32 32t-32 32H352q-32 0-32-32t32-32zM307.008 128L208 576h608L716.992 128H306.976z m-24.992-64h460q12 0 20.512 7.008t11.488 18.016l112.992 512q3.008 15.008-6.496 27.008t-24.512 12H168q-15.008 0-24.512-12t-6.496-27.008l112.992-512q3.008-11.008 11.488-18.016T281.984 64zM672 576q32 0 32 32v128q0 32-32 32t-32-32v-128q0-32 32-32z m-192 0h64v384h-64V576z" /></svg>