<?xml version="1.0" standalone="no"?><!DOCTYPE svg PUBLIC "-//W3C//DTD SVG 1.1//EN" "http://www.w3.org/Graphics/SVG/1.1/DTD/svg11.dtd"><svg class="icon" width="200px" height="200.00px" viewBox="0 0 1024 1024" version="1.1" xmlns="http://www.w3.org/2000/svg"><path fill="#1296db" d="M714.016 704q64-44.992 102.496-111.488T863.008 448H160.992q8 78.016 46.496 144.512T309.984 704h404zM288 767.008q-91.008-59.008-140.992-151.008T96 416q0-14.016 8.992-23.008T128 384h768q14.016 0 23.008 8.992T928 416q-0.992 108-51.008 200T736 767.008V832q-0.992 27.008-19.008 44.992T672 896H352q-27.008-0.992-44.992-19.008T288 832v-64.992zM492.992 320h-90.016l254.016-254.016q12.992-12.992 31.008-8.512t22.496 22.496-8.512 31.008z m188 0h-128l268.992-156q12-6.016 24.512-2.496t19.008 15.008 3.488 24-15.008 19.488zM352 768v64h320v-64H352z" /></svg>