<?xml version="1.0" standalone="no"?><!DOCTYPE svg PUBLIC "-//W3C//DTD SVG 1.1//EN" "http://www.w3.org/Graphics/SVG/1.1/DTD/svg11.dtd"><svg class="icon" width="200px" height="200.00px" viewBox="0 0 1024 1024" version="1.1" xmlns="http://www.w3.org/2000/svg"><path fill="#1296db" d="M832 384H192v448h640V384zM96 320h832V128H96v192z m800 64v480q0 14.016-8.992 23.008T864 896H160q-14.016 0-23.008-8.992T128 864V384H64q-14.016 0-23.008-8.992T32 352V96q0-14.016 8.992-23.008T64 64h896q14.016 0 23.008 8.992T992 96v256q0 14.016-8.992 23.008T960 384h-64z m-480 128h192q14.016 0 23.008 8.992T640 544t-8.992 23.008T608 576h-192q-14.016 0-23.008-8.992T384 544t8.992-23.008T416 512z" /></svg>