<?xml version="1.0" standalone="no"?><!DOCTYPE svg PUBLIC "-//W3C//DTD SVG 1.1//EN" "http://www.w3.org/Graphics/SVG/1.1/DTD/svg11.dtd"><svg class="icon" width="200px" height="200.00px" viewBox="0 0 1024 1024" version="1.1" xmlns="http://www.w3.org/2000/svg"><path fill="#1296db" d="M512 128q-28 0.992-46.016 19.008T446.976 192v516.992l-172.992-138.016q-24.992-20-55.488-20.992t-57.504 16.992q-14.016 12-16.992 30.016t8 32.992l180.992 240q8.992 12.992 22.496 19.488t28.512 6.496h512V574.976q0-20.992-12.512-38.016t-33.504-23.008l-206.016-62.016q-31.008-10.016-49.504-34.496t-18.496-57.504v-168q-0.992-27.008-19.008-44.992t-44.992-19.008z m-152.992 428.992l24 19.008V192q0-35.008 16.512-64.992t47.008-48 64.992-18.016 64.992 18.016 47.008 48T640.032 192v168q0 11.008 6.016 19.488t16.992 11.488l206.016 62.016q40.992 12.992 65.504 46.016t25.504 76V896q-0.992 27.008-19.008 44.992T896.064 960h-512q-31.008 0-57.504-13.504t-44.512-37.504l-180.992-240.992q-12.992-18.016-18.496-39.488t-1.504-44 16-40.992 31.008-30.496q44-28.992 94.496-26.496t91.488 34.496z" /></svg>