<?xml version="1.0" standalone="no"?><!DOCTYPE svg PUBLIC "-//W3C//DTD SVG 1.1//EN" "http://www.w3.org/Graphics/SVG/1.1/DTD/svg11.dtd"><svg class="icon" width="200px" height="200.00px" viewBox="0 0 1024 1024" version="1.1" xmlns="http://www.w3.org/2000/svg"><path fill="#1296db" d="M784 304c-67.2-64-144-99.2-240-108.8V128h96c9.6 0 16-3.2 22.4-9.6s9.6-12.8 9.6-22.4-3.2-16-9.6-22.4-12.8-9.6-22.4-9.6h-256c-9.6 0-16 3.2-22.4 9.6s-9.6 12.8-9.6 22.4 3.2 16 9.6 22.4 12.8 9.6 22.4 9.6h96v67.2c-96 9.6-172.8 44.8-240 108.8C166.4 374.4 131.2 467.2 128 576c3.2 108.8 41.6 198.4 112 272s163.2 108.8 272 112c108.8-3.2 198.4-41.6 272-112s108.8-163.2 112-272c-3.2-108.8-41.6-198.4-112-272z m-44.8 499.2C678.4 864 601.6 892.8 512 896c-89.6-3.2-166.4-32-227.2-92.8C224 742.4 195.2 665.6 192 576c3.2-89.6 32-166.4 92.8-227.2C345.6 288 422.4 259.2 512 256c89.6 3.2 166.4 32 227.2 92.8C800 409.6 832 483.2 832 576c-3.2 89.6-32 166.4-92.8 227.2z m-182.4-272c12.8 12.8 19.2 25.6 19.2 44.8s-6.4 32-19.2 44.8c-12.8 12.8-25.6 19.2-44.8 19.2s-32-6.4-44.8-19.2c-12.8-12.8-19.2-25.6-19.2-44.8s6.4-32 19.2-44.8c3.2-3.2 9.6-6.4 12.8-9.6V352c0-9.6 3.2-16 9.6-22.4s12.8-9.6 22.4-9.6 16 3.2 22.4 9.6 9.6 12.8 9.6 22.4v169.6c3.2 3.2 9.6 6.4 12.8 9.6z" /></svg>