<?xml version="1.0" standalone="no"?><!DOCTYPE svg PUBLIC "-//W3C//DTD SVG 1.1//EN" "http://www.w3.org/Graphics/SVG/1.1/DTD/svg11.dtd"><svg class="icon" width="200px" height="200.00px" viewBox="0 0 1024 1024" version="1.1" xmlns="http://www.w3.org/2000/svg"><path fill="#1296db" d="M595.008 128H320q-82.016 2.016-136 56T128 320v576h384V352q0-68 22.496-126.016t60.512-98.016zM736 64q95.008 3.008 158.496 84.512T960 352q-2.016 122.016-65.504 203.488T736 640h-160v320H64V320q3.008-108.992 75.008-180.992T320 64h416z m-160 288v224h160q64.992-2.016 111.488-64.512T896 352q-2.016-96.992-48.512-159.488T736 128q-64.992 2.016-111.488 64.512T576 352z m160 96q-27.008-0.992-44.992-28T672.992 352t18.016-68T736 256.992t44.992 27.008 18.016 68-18.016 68T736 448z" /></svg>