<?xml version="1.0" standalone="no"?><!DOCTYPE svg PUBLIC "-//W3C//DTD SVG 1.1//EN" "http://www.w3.org/Graphics/SVG/1.1/DTD/svg11.dtd"><svg class="icon" width="200px" height="200.00px" viewBox="0 0 1024 1024" version="1.1" xmlns="http://www.w3.org/2000/svg"><path fill="#1296db" d="M128.992 736H96q-14.016 0-23.008-8.992T64 704V224q0-14.016 8.992-23.008T96 192h576q14.016 0 23.008 8.992T704 224v96h164.992q12 0 20.512 7.488t10.496 19.488l54.016 352q2.016 15.008-7.488 26.016t-23.488 11.008H831.04q4 42.016-13.504 78.496t-52.992 59.008-76.512 22.496-76.512-22.496-52.992-59.008T545.024 736h-130.016q4 42.016-13.504 78.496t-52.992 59.008T272 896t-76.512-22.496-52.992-59.008T128.992 736z m23.008-64q20.992-30.016 52-47.008T272 608t68 16.992T392 672h176q27.008-39.008 72-56V256H128v416h24z m656 0h76.992l-19.008-128h-162.016v64.992q32 4 59.008 20T807.968 672z m48-192l-15.008-96H704v96h152zM688 832q34.016-0.992 56.512-23.488t22.496-56.512-22.496-56.512-56.512-22.496-56.512 22.496-22.496 56.512 22.496 56.512T688 832z m-416 0q34.016-0.992 56.512-23.488t22.496-56.512-22.496-56.512-56.512-22.496-56.512 22.496-22.496 56.512 22.496 56.512T272 832z" /></svg>