<?xml version="1.0" standalone="no"?><!DOCTYPE svg PUBLIC "-//W3C//DTD SVG 1.1//EN" "http://www.w3.org/Graphics/SVG/1.1/DTD/svg11.dtd"><svg class="icon" width="200px" height="200.00px" viewBox="0 0 1024 1024" version="1.1" xmlns="http://www.w3.org/2000/svg"><path fill="#1296db" d="M330.016 256.992q-108 3.008-180 75.008T75.008 512q3.008 108 75.008 180t180 75.008h364q108-3.008 180-75.008T949.024 512q-3.008-108-75.008-180t-180-75.008H330.016z m0-72.992h364q139.008 4 231.488 96.512T1022.016 512q-4 139.008-96.512 231.488t-231.488 96.512H330.016q-139.008-4-231.488-96.512T2.016 512q4-139.008 96.512-231.488t231.488-96.512z m0 436.992q30.016 0 54.496-14.496t39.488-40 15.008-54.496-15.008-54.496-39.488-40-54.496-14.496q-46.016 0.992-76.992 32t-32 76.992q0.992 46.016 32 76.992t76.992 32z m0 73.024q-76.992-2.016-128.512-53.504T148 512q2.016-76.992 53.504-128.512t128.512-53.504q76.992 2.016 128.512 53.504T512.032 512q-2.016 76.992-53.504 128.512t-128.512 53.504z" /></svg>