<?xml version="1.0" standalone="no"?><!DOCTYPE svg PUBLIC "-//W3C//DTD SVG 1.1//EN" "http://www.w3.org/Graphics/SVG/1.1/DTD/svg11.dtd"><svg class="icon" width="200px" height="200.00px" viewBox="0 0 1024 1024" version="1.1" xmlns="http://www.w3.org/2000/svg"><path fill="#1296db" d="M412 592l-44.992 46.016q-23.008-27.008-35.008-59.008T320 512V256q2.016-82.016 56-136T512 64q82.016 2.016 136 56T704 256v44l-64 64V256q-0.992-54.016-37.504-90.496T512 128q-54.016 0.992-90.496 37.504T384 256v256q0.992 46.016 28 80z m52 39.008q30.016 12 61.504 8.512t58.016-21.504 41.504-46.016 15.008-60v-56.992l64-64V512q0 52-25.504 96t-70.496 70.016-95.488 26.016-96.512-24.992z m-148.992 148.992l46.016-46.016Q416.032 768 480.032 768h64q95.008-2.016 158.496-65.504T768.032 544v-32q0-14.016 8.992-23.008t23.008-8.992 23.008 8.992 8.992 23.008v32q-3.008 122.016-84.512 203.488T544.032 832v64h64q14.016 0 23.008 8.992t8.992 23.008-8.992 23.008-23.008 8.992h-192q-14.016 0-23.008-8.992T384.032 928t8.992-23.008 23.008-8.992h64v-64q-46.016 0-88-13.504t-76.992-38.496z m-48-41.984q-36.992-40.992-56-90.496T192 544.032v-32q0-14.016 8.992-23.008T224 480.032t23.008 8.992 8.992 23.008v32q0 43.008 15.008 80.512t40.992 67.488z m-116 120.992q-10.016 8.992-22.496 8.992t-22.016-9.504-10.016-22.016 8.512-22.496l704-708.992Q819.008 96 831.488 96t22.016 9.504 10.016 22.496-8.512 23.008z" /></svg>