<?xml version="1.0" standalone="no"?><!DOCTYPE svg PUBLIC "-//W3C//DTD SVG 1.1//EN" "http://www.w3.org/Graphics/SVG/1.1/DTD/svg11.dtd"><svg class="icon" width="200px" height="200.00px" viewBox="0 0 1024 1024" version="1.1" xmlns="http://www.w3.org/2000/svg"><path fill="#1296db" d="M320 768q0-14.016 8.992-23.008T352 736t23.008 8.992T384 768q0.992 27.008 19.008 44.992t44.992 18.016 44.992-18.016T512 768v-256H64q4.992-190.016 131.488-316.512T512 64q190.016 4.992 316.512 131.488T960 512H576v256q-0.992 54.016-37.504 90.496T448 896q-54.016-0.992-90.496-37.504T320 768z m571.008-320Q864 307.008 760 219.008T512 128q-144 3.008-248 91.008T132.992 448h758.016z" /></svg>