<?xml version="1.0" standalone="no"?><!DOCTYPE svg PUBLIC "-//W3C//DTD SVG 1.1//EN" "http://www.w3.org/Graphics/SVG/1.1/DTD/svg11.dtd"><svg class="icon" width="200px" height="200.00px" viewBox="0 0 1024 1024" version="1.1" xmlns="http://www.w3.org/2000/svg"><path fill="#1296db" d="M224 448q-14.016 0-23.008 8.992T192 480v384q0 14.016 8.992 23.008T224 896h576q14.016 0 23.008-8.992T832 864V480q0-14.016-8.992-23.008T800 448H224z m0-64h576q40.992 0.992 68 28T896 480v384q-0.992 40.992-28 68T800 960H224q-40.992-0.992-68-28T128 864V480q0.992-40.992 28-68T224 384z m288 160q14.016 0 23.008 8.992T544 576v192q0 14.016-8.992 23.008T512 800t-23.008-8.992T480 768v-192q0-14.016 8.992-23.008T512 544z m178.016-295.008q-27.008-64.992-86.016-96.992t-128-20q-68.992 14.016-112 65.504T320 320v64h352l96 38.016v26.016H256v-128q2.016-94.016 58.496-163.008T464 68.032q92-16 170.496 27.008t115.488 130.016z" /></svg>