<?xml version="1.0" standalone="no"?><!DOCTYPE svg PUBLIC "-//W3C//DTD SVG 1.1//EN" "http://www.w3.org/Graphics/SVG/1.1/DTD/svg11.dtd"><svg class="icon" width="200px" height="200.00px" viewBox="0 0 1024 1024" version="1.1" xmlns="http://www.w3.org/2000/svg"><path fill="#1296db" d="M544 864v-192h128l-160-192-160 192h128v192H304c-67.2-3.2-124.8-25.6-169.6-70.4S67.2 691.2 64 624c0-64 22.4-115.2 60.8-160s89.6-70.4 150.4-76.8c12.8-57.6 38.4-105.6 83.2-140.8S454.4 192 512 192c57.6 0 108.8 19.2 153.6 54.4s70.4 83.2 83.2 140.8c60.8 6.4 112 35.2 150.4 76.8 38.4 44.8 60.8 96 60.8 160-3.2 67.2-25.6 124.8-70.4 169.6-44.8 44.8-102.4 67.2-169.6 70.4H544z" /></svg>