<?xml version="1.0" standalone="no"?><!DOCTYPE svg PUBLIC "-//W3C//DTD SVG 1.1//EN" "http://www.w3.org/Graphics/SVG/1.1/DTD/svg11.dtd"><svg class="icon" width="200px" height="200.00px" viewBox="0 0 1024 1024" version="1.1" xmlns="http://www.w3.org/2000/svg"><path fill="#1296db" d="M768 576l192-64v320l-192-64v96q0 14.016-8.992 23.008T736 896H96q-14.016 0-23.008-8.992T64 864V480q0-14.016 8.992-23.008T96 448h640q14.016 0 23.008 8.992T768 480v96zM192 768v64h384v-64H192z m192-480q2.016-68 47.008-112.992T544 128q68 2.016 112.992 47.008T704 288q-2.016 68-47.008 112.992T544 448q-68-2.016-112.992-47.008T384 288z m64 0q0 26.016 12.992 48t35.488 35.008 47.488 12.992 48-12.992 35.488-35.008 12.512-48q-0.992-40.992-28-68t-68-27.008-68 27.008T447.968 288zM128 320q0-35.008 16.992-64T192 209.504 256 192t64 17.504T367.008 256 384 320q-0.992 54.016-37.504 90.496T256 448q-54.016-0.992-90.496-37.504T128 320z m64 0q0.992 27.008 19.008 44.992T256 383.008t44.992-18.016T319.008 320t-18.016-44.992T256 256.992t-44.992 18.016T192 320z" /></svg>