<?xml version="1.0" standalone="no"?><!DOCTYPE svg PUBLIC "-//W3C//DTD SVG 1.1//EN" "http://www.w3.org/Graphics/SVG/1.1/DTD/svg11.dtd"><svg class="icon" width="200px" height="200.00px" viewBox="0 0 1024 1024" version="1.1" xmlns="http://www.w3.org/2000/svg"><path fill="#1296db" d="M512 160q242.016 22.016 376 176T1024 512q-2.016 22.016-136 176T512 864q-242.016-22.016-376-176T0 512q2.016-22.016 136-176T512 160z m0 64q-170.016 11.008-283.008 114.496T74.976 512q40.992 70.016 154.016 173.504T512 800q170.016-11.008 283.008-114.496T949.024 512q-40.992-70.016-154.016-173.504T512 224z m0 64q95.008 2.016 158.496 65.504T736 512q-2.016 95.008-65.504 158.496T512 736q-95.008-2.016-158.496-65.504T288 512q2.016-95.008 65.504-158.496T512 288z m0 64q-68 2.016-112.992 47.008T352 512q2.016 68 47.008 112.992T512 672q68-2.016 112.992-47.008T672 512q-2.016-68-47.008-112.992T512 352z" /></svg>