<?xml version="1.0" standalone="no"?><!DOCTYPE svg PUBLIC "-//W3C//DTD SVG 1.1//EN" "http://www.w3.org/Graphics/SVG/1.1/DTD/svg11.dtd"><svg class="icon" width="200px" height="200.00px" viewBox="0 0 1024 1024" version="1.1" xmlns="http://www.w3.org/2000/svg"><path fill="#1296db" d="M640 288h-64V128H128v704h384v32q0 14.016 8.992 23.008T544 896H96q-14.016 0-23.008-8.992T64 864V96q0-14.016 8.992-23.008T96 64h512q14.016 0 23.008 8.992T640 96v192zM128 320v512h768V320H128zM96 256h832q14.016 0 23.008 8.992T960 288v576q0 14.016-8.992 23.008T928 896H96q-14.016 0-23.008-8.992T64 864V288q0-14.016 8.992-23.008T96 256z m608 384q-27.008-0.992-44.992-19.008T640.992 576t18.016-44.992T704 512.992t44.992 18.016 18.016 44.992-18.016 44.992T704 640z" /></svg>