<?xml version="1.0" standalone="no"?><!DOCTYPE svg PUBLIC "-//W3C//DTD SVG 1.1//EN" "http://www.w3.org/Graphics/SVG/1.1/DTD/svg11.dtd"><svg class="icon" width="200px" height="200.00px" viewBox="0 0 1024 1024" version="1.1" xmlns="http://www.w3.org/2000/svg"><path fill="#1296db" d="M512 768q108.992-3.008 180.992-75.008T768 512q-3.008-108.992-75.008-180.992T512 256q-108.992 3.008-180.992 75.008T256 512q3.008 108.992 75.008 180.992T512 768z m0 64q-136-3.008-226.496-93.504T192 512q3.008-136 93.504-226.496T512 192q136 3.008 226.496 93.504T832 512q-3.008 136-93.504 226.496T512 832z m-32-480q14.016 0 23.008 8.992T512 384v160q0 14.016-8.992 23.008T480 576t-23.008-8.992T448 544v-160q0-14.016 8.992-23.008T480 352z m0 160h128q32 0 32 32t-32 32h-128q-32 0-32-32t32-32z m128-256V128h-192v128h-64V64h320v192h-64z m-192 512v128h192v-128h64v192H352v-192h64z" /></svg>