<?xml version="1.0" standalone="no"?><!DOCTYPE svg PUBLIC "-//W3C//DTD SVG 1.1//EN" "http://www.w3.org/Graphics/SVG/1.1/DTD/svg11.dtd"><svg class="icon" width="200px" height="200.00px" viewBox="0 0 1024 1024" version="1.1" xmlns="http://www.w3.org/2000/svg"><path fill="#1296db" d="M512 768q108.992-3.008 180.992-75.008T768 512q-3.008-108.992-75.008-180.992T512 256q-108.992 3.008-180.992 75.008T256 512q3.008 108.992 75.008 180.992T512 768z m0 64q-136-3.008-226.496-93.504T192 512q3.008-136 93.504-226.496T512 192q136 3.008 226.496 93.504T832 512q-3.008 136-93.504 226.496T512 832z m96-576V128h-192v128h-64V64h320v192h-64z m-192 512v128h192v-128h64v192H352v-192h64z m96-384q-14.016 0-23.008-8.992T480 352t8.992-23.008T512 320t23.008 8.992T544 352t-8.992 23.008T512 384z m0 320q-14.016 0-23.008-8.992T480 672t8.992-23.008T512 640t23.008 8.992T544 672t-8.992 23.008T512 704z m-128-192q0 14.016-8.992 23.008T352 544t-23.008-8.992T320 512t8.992-23.008T352 480t23.008 8.992T384 512z m320 0q0 14.016-8.992 23.008T672 544t-23.008-8.992T640 512t8.992-23.008T672 480t23.008 8.992T704 512z m-281.984-89.984q-14.016 12-31.488 7.488t-22.496-22.496 8-31.008q10.016-8.992 22.496-8.992t22.016 9.504 10.016 22.496-8.512 23.008z m225.984 225.984q-12.992 12.992-31.008 8t-22.496-22.496 7.488-31.488q10.016-8.992 23.008-8.512t22.496 10.016 9.504 22.016-8.992 22.496z m-225.984-45.984q12 14.016 7.488 31.488t-22.496 22.496-31.008-8q-8.992-10.016-8.992-22.496t9.504-22.016 22.496-10.016 23.008 8.512z m225.984-226.016q12 14.016 7.488 31.488t-22.016 22.016-31.488-7.488q-8.992-10.016-8.512-23.008t10.016-22.496 22.016-9.504 22.496 8.992z" /></svg>