<?xml version="1.0" standalone="no"?><!DOCTYPE svg PUBLIC "-//W3C//DTD SVG 1.1//EN" "http://www.w3.org/Graphics/SVG/1.1/DTD/svg11.dtd"><svg class="icon" width="200px" height="200.00px" viewBox="0 0 1024 1024" version="1.1" xmlns="http://www.w3.org/2000/svg"><path fill="#1296db" d="M683.008 600l-44 163.008-60.992-16 52.992-199.008L576 492.992l-158.016 159.008-46.016-46.016 159.008-158.016-56-56-198.016 54.016-16.992-62.016 163.008-44-140-140q-96.992 119.008-91.008 264t112 256q111.008 106.016 256 112t264-91.008z m232 140.992q-84.992 96-202.496 133.504t-241.504 8.512q-124-31.008-211.488-118.496t-118.496-211.488q-28.992-124 8.512-241.504t133.504-202.496z" /></svg>