<?xml version="1.0" standalone="no"?><!DOCTYPE svg PUBLIC "-//W3C//DTD SVG 1.1//EN" "http://www.w3.org/Graphics/SVG/1.1/DTD/svg11.dtd"><svg class="icon" width="200px" height="200.00px" viewBox="0 0 1024 1024" version="1.1" xmlns="http://www.w3.org/2000/svg"><path fill="#1296db" d="M736 800V160H160v640q0.992 27.008 19.008 44.992T224 864h448q27.008-0.992 44.992-19.008T736 800z m64-544h64q40 0.992 67.488 28T960 352v224q-0.992 40.992-28.512 68T864 672h-64v128q-0.992 54.016-37.504 90.496T672 928H224q-54.016-0.992-90.496-37.504T96 800V128q0-14.016 8.992-23.008T128 96h640q14.016 0 23.008 8.992T800 128v128z m0 64v288h64q12.992 0 22.016-8.992t10.016-23.008v-224q-0.992-14.016-10.016-23.008T864 320h-64z" /></svg>