<?xml version="1.0" standalone="no"?><!DOCTYPE svg PUBLIC "-//W3C//DTD SVG 1.1//EN" "http://www.w3.org/Graphics/SVG/1.1/DTD/svg11.dtd"><svg class="icon" width="200px" height="200.00px" viewBox="0 0 1024 1024" version="1.1" xmlns="http://www.w3.org/2000/svg"><path fill="#1296db" d="M160 64q32 0 32 32v832q0 32-32 32t-32-32V96q0-32 32-32z m416 355.008l128-12V168.992l-128-12v262.016z m-64 4.992v-272l-192-18.016V160H256V64l616.992 56q38.016 4 62.016 31.008T960 216v144q-0.992 38.016-24.992 64.992t-62.016 31.008L256 512V224h64v218.016z m256-23.008l99.008-8.992q12.992-0.992 20.992-10.016t8-22.016v-144q0-12.992-8-22.016t-20.992-10.016L768 174.944v226.016z" /></svg>