<?xml version="1.0" standalone="no"?><!DOCTYPE svg PUBLIC "-//W3C//DTD SVG 1.1//EN" "http://www.w3.org/Graphics/SVG/1.1/DTD/svg11.dtd"><svg class="icon" width="200px" height="200.00px" viewBox="0 0 1024 1024" version="1.1" xmlns="http://www.w3.org/2000/svg"><path fill="#1296db" d="M796 751.008l124.992 124.992q8.992 10.016 8.992 22.496t-9.504 22.016-22.016 9.504-22.496-8.992l-124.992-124.992q-132.992 108.992-295.008 99.488t-280.992-132.512q-114.016-128.992-111.008-291.008t122.016-286.016q124-119.008 286.016-122.016t291.008 111.008q123.008 119.008 132.512 280.992t-99.488 295.008zM480 832q150.016-4 248.992-103.008T832 480q-4-150.016-103.008-248.992T480 128q-150.016 4-248.992 103.008T128 480q4 150.016 103.008 248.992T480 832z m-32-384v-96q0-14.016 8.992-23.008T480 320t23.008 8.992T512 352v96h96q14.016 0 23.008 8.992T640 480t-8.992 23.008T608 512h-96v96q0 14.016-8.992 23.008T480 640t-23.008-8.992T448 608v-96h-96q-14.016 0-23.008-8.992T320 480t8.992-23.008T352 448h96z" /></svg>